<svg xmlns:inkscape="http://www.inkscape.org/namespaces/inkscape" xmlns:sodipodi="http://sodipodi.sourceforge.net/DTD/sodipodi-0.dtd" xmlns:xlink="http://www.w3.org/1999/xlink" xmlns="http://www.w3.org/2000/svg" xmlns:svg="http://www.w3.org/2000/svg" id="Layer_1" x="0px" y="0px" viewBox="0 0 243.00001 75" xml:space="preserve" sodipodi:docname="as-sunnah-trust-new.svg" width="243" height="75" inkscape:version="1.2.1 (9c6d41e4, 2022-07-14)"><defs id="defs181"></defs><style type="text/css" id="style9">	.st0{fill:#00539B;}	.st1{fill:url(#SVGID_00000138532042701611233710000015301060743568565151_);}	.st2{font-family:'DiavloBlack-Regular';}	.st3{font-size:8.8073px;}	.st4{fill:#231F20;}</style><g id="g176" transform="scale(0.88235294)">	<g id="g40">		<polygon class="st0" points="31.9,48.5 29,45.7 31.9,43 34.8,45.7 " id="polygon11"></polygon>		<path class="st0" d="m 60.6,30.2 c 0,-0.7 -1.2,-5.9 -7.4,-9.4 -6.1,-3.4 -9.7,-5.4 -10.1,-8.3 v -0.2 c 0,0 0,0 0,0.1 0,0 0,0 0,-0.1 v 0.2 c -0.4,2.9 -3.9,4.9 -10.1,8.3 -6.2,3.5 -7.4,8.7 -7.4,9.4 -10.7,0.1 -11.3,9 -11.3,9 0,0.3 0,1.7 0,2.9 v 0 c 0,0 0,10.6 0,12.1 C 10.7,54 8.7,58 8.2,60 7.7,61.9 5.9,63.6 5.9,63.6 h 10.5 v 0 h 8.7 c 0,0 0,1.8 0.1,2.9 0.1,1.1 1,2.4 2.8,3.1 1.8,0.7 4.3,0.2 5.3,-0.4 1,-0.7 1.6,-1.7 1.7,-2.6 0.1,-0.9 0.1,-1.2 0.1,-1.2 v -1.7 h 25.2 c 0,0 -0.1,1.7 1.7,3.9 1.8,2.2 5,1.8 6.8,1.1 1.8,-0.7 3.3,-2.7 3.3,-4.9 V 39.3 c 0,-0.1 0,-0.1 0,-0.2 0.1,0.1 -0.9,-8.8 -11.5,-8.9 z M 13.7,60.4 h -1.8 c 0,0 0.6,-1.7 1.8,-2.1 z M 69,63.5 c 0,1.7 -1.4,2.8 -3.1,2.8 -1.7,0 -2.5,-2.2 -2.5,-2.9 0,-0.7 0,-3 0,-3 H 58.2 V 42.2 c 0,0 -2.4,3.9 -5.2,4.6 0.9,0.3 1.3,0.7 1.3,2.3 V 60.3 H 51.5 V 46.2 c 0,0 -2.4,3.9 -5.2,4.6 0.9,0.3 1.3,0.7 1.3,2.3 v 7.1 H 45 v -9.6 c 0,0 -2.4,3.4 -5.2,4.1 0.9,0.3 1.3,0.7 1.3,2.3 v 3.2 h -6 l 0.2,-10.9 c 0,0 -2.9,3.8 -5.3,4.1 1.1,0.3 1.9,1 1.9,1.7 v 9.5 c 0,0.9 -0.5,1.6 -1.8,1.6 -1.3,0 -1.4,-1 -1.4,-1.9 0,-0.9 0,-4.1 0,-4.1 H 17.4 V 44.3 c 0,0 0,0 0,0 0,0 0,-0.9 0,-1.9 v -0.3 0 c 0,-0.8 0,-1.6 0,-2.2 0.7,-7.2 10.6,-7.8 12.3,-6.3 -2.3,-3.6 1.8,-9 5.8,-10.6 4,-1.5 7.5,-4.9 7.6,-5 0.1,0.1 3.6,3.4 7.6,5 4.1,1.6 8.1,7.1 5.8,10.6 1.6,-1.6 11.8,-1 12.5,6.3 0,0.8 0,2.3 0,3.3 z" id="path13"></path>		<g id="g21">			<defs id="defs16">				<path id="SVGID_1_" d="m 39.2,27.2 c -1.4,0.6 -2.6,1.5 -3.5,2.7 0.1,0 0.3,0 0.4,0 1,-1.2 2.3,-2.1 3.8,-2.6 0.5,-0.2 -0.1,-0.4 -0.7,-0.1 z m -0.6,0 c 0.6,-0.4 -0.5,-0.5 -1.6,0.3 -1,0.7 -1.8,1.6 -2.5,2.6 0.3,-0.1 0.6,-0.1 0.9,-0.2 0.9,-1.1 1.9,-2 3.2,-2.7 z m -3.4,3 c -0.3,0.1 -0.6,0.1 -0.9,0.2 -0.8,1.3 -1.2,2.8 -1.2,4.5 0,0.3 0,0.6 0,0.9 0.1,0.3 0.7,0.4 0.6,-0.1 0,-0.2 0,-0.4 0,-0.7 0,-1.8 0.6,-3.4 1.5,-4.8 z m 0.3,-0.1 c -1,1.4 -1.6,3 -1.6,4.8 0,0.2 0,0.5 0,0.7 0,0.3 0.4,0.3 0.4,0.1 0,-0.3 -0.1,-0.6 -0.1,-0.9 0,-1.8 0.6,-3.4 1.7,-4.8 -0.1,0.1 -0.2,0.1 -0.4,0.1 z m 11.9,13 c 1.4,-0.6 2.6,-1.5 3.5,-2.7 -0.1,0 -0.3,0 -0.4,0 -1,1.2 -2.3,2.1 -3.8,2.6 -0.4,0.1 -0.4,0.5 0.7,0.1 z m 3.7,-3 c 0.1,-0.1 0.7,-0.8 0.4,-1 -0.2,-0.1 -0.5,0.4 -0.7,0.8 -0.1,0.1 -0.1,0.2 -0.2,0.2 0.2,0.1 0.3,0.1 0.5,0 z"></path>			</defs>			<clipPath id="SVGID_00000119817306942489476800000015276118792108786593_">				<use xlink:href="#SVGID_1_" style="overflow:visible" id="use18"></use>			</clipPath>		</g>		<path class="st0" d="m 53.1,34.8 c 0,-5.3 -4.6,-9.6 -10.2,-9.6 -5.6,0 -10.2,4.3 -10.2,9.6 0,5.3 4.6,9.6 10.2,9.6 5.7,0 10.2,-4.3 10.2,-9.6 z" id="path23"></path>					<radialGradient id="SVGID_00000021837076440440890880000001256501079839770003_" cx="-974.51282" cy="-380.79449" r="4.9531002" gradientTransform="matrix(2.4924,0,0,2.3504,2471.3203,928.9985)" gradientUnits="userSpaceOnUse">			<stop offset="0" style="stop-color:#FBFBFB" id="stop25"></stop>			<stop offset="0.6241" style="stop-color:#95B7D4" id="stop27"></stop>			<stop offset="1" style="stop-color:#5C91BF" id="stop29"></stop>		</radialGradient>		<path style="fill:url(#SVGID_00000021837076440440890880000001256501079839770003_)" d="m 47.5,41.8 c -0.1,0.1 -0.1,0.2 -0.2,0.2 -0.1,0 -0.1,0 -0.2,0.1 -0.2,0.1 -0.3,0.3 -0.3,0.5 -0.2,0 -0.3,0.2 -0.3,0.3 0.3,0.2 0.6,0 0.8,-0.2 v -0.1 c 0.3,-0.3 0.7,-0.5 0.6,-1.1 -0.2,0 -0.2,0.2 -0.4,0.3 z M 53,36.4 c 0,0 0,0 0,0 0,-0.1 0,-0.2 0.1,-0.3 C 53,36.2 53,36.3 53,36.4 Z M 33.2,31.8 c 0,0.1 -0.1,0.2 -0.1,0.3 0,0.1 0,0.2 0,0.3 0.1,-0.2 0.1,-0.4 0.1,-0.6 z m 19.9,2.9 c 0,0.1 0,0.1 0,0 0,-0.4 0,-0.9 -0.1,-1.3 0,0 0,0 0,0 0,-0.2 -0.1,-0.4 -0.1,-0.5 0,0 0,0 0,0 -0.2,-1.1 -0.7,-2.1 -1.2,-3 0,0 0,0 0,0 0,0 0,0 0,0.1 0,-0.1 -0.1,-0.2 -0.1,-0.3 C 51,28.8 50.2,28 49.3,27.3 49,27.1 48.7,26.9 48.4,26.7 c 0,0 0,0 0,0 -1,-0.6 -2.1,-1 -3.3,-1.3 0.2,0.1 0.5,0.1 0.7,0.2 0.2,0.1 0.3,0.2 0.5,0.2 0,0.1 0.1,0.1 0.2,0.1 0,0.1 0.1,0.1 0.1,0.2 0.1,0 0.2,0.1 0.3,0.2 0.2,0.1 0.4,0.2 0.5,0.4 0,0.1 -0.1,0.1 -0.1,0.1 0,0.1 0.1,0.2 0.1,0.3 0,0 0,0 -0.1,0 0,0.1 0.1,0.1 0.1,0.3 -0.2,0 -0.2,-0.2 -0.4,-0.2 -0.1,0 -0.2,0.1 -0.2,0.2 0,0.1 0.1,0.1 0.2,0.3 -0.1,0.1 -0.2,0.1 -0.2,0.2 0.1,0.2 0.1,0.5 0.2,0.7 0,0 -0.1,0 -0.1,0 0.1,0.1 0.2,0 0.2,0.1 -0.1,0.1 -0.1,0.2 -0.4,0.2 0,0.1 0.2,0.2 0.2,0.3 -0.2,-0.1 -0.3,-0.2 -0.5,-0.3 0,0.3 0.2,0.4 0.3,0.6 -0.1,0.1 -0.2,0.1 -0.4,0 -0.1,0 -0.2,0.1 -0.2,0.2 -0.2,0 -0.2,0.2 -0.4,0.2 -0.1,0.1 -0.3,0.2 -0.4,0.3 -0.1,0 -0.2,-0.1 -0.3,-0.1 0,0.1 0.1,0.2 0.1,0.3 -0.2,0 -0.2,0.1 -0.3,0.2 0,0.1 -0.2,0.1 -0.2,0.3 -0.1,0 -0.3,-0.1 -0.3,-0.2 0.1,0 0,-0.1 0,-0.1 0.2,0 0.5,0 0.6,-0.1 -0.1,0 -0.1,-0.1 -0.2,-0.2 -0.1,0 -0.1,0 -0.2,0 -0.2,0 -0.5,-0.2 -0.7,-0.1 -0.2,-0.2 -0.3,-0.1 -0.6,-0.1 -0.3,0 -0.4,0.1 -0.4,0.3 -0.3,0 -0.3,0.3 -0.6,0.3 -0.1,0.3 -0.4,0.4 -0.7,0.5 -0.1,0.2 -0.2,0.3 -0.1,0.6 0.1,0 0.3,0.1 0.4,0.1 0.1,0.2 0.2,0.3 0.3,0.5 0.1,0 0.2,0 0.3,0 0.2,-0.1 0.5,-0.3 0.4,-0.6 h 0.1 c -0.1,-0.1 -0.2,-0.2 -0.1,-0.4 0,-0.2 0.2,-0.2 0.3,-0.3 0.1,-0.1 0.2,-0.2 0.3,-0.2 0,0.2 -0.2,0.3 -0.3,0.5 0,0.2 0.2,0.3 0.3,0.4 0,0.1 0,0.3 0,0.3 -0.2,0 -0.2,0.2 -0.3,0.4 -0.2,0 -0.4,0.2 -0.6,0.2 -0.1,0 -0.1,0 -0.2,0 -0.1,0 -0.4,0 -0.5,-0.1 0,-0.1 0.1,-0.1 0.1,-0.1 0,-0.1 -0.1,-0.2 -0.2,-0.4 -0.2,0.1 -0.1,0.4 -0.2,0.5 0,0 -0.1,0 -0.1,0 -0.1,0.1 -0.3,0.1 -0.4,0.2 -0.2,0.1 -0.3,0.4 -0.6,0.4 -0.2,0 -0.4,0 -0.5,0.1 0.1,0.2 0.1,0.3 0.2,0.5 -0.2,0.3 -0.7,0.1 -1,0.1 -0.1,0.1 -0.2,0.3 -0.3,0.4 0,0.2 0,0.3 0,0.5 0.2,0 0.3,0.3 0.5,0.3 0.1,0 0.3,0 0.4,0 0.1,0 0.2,0 0.3,-0.1 0.2,-0.1 0.2,-0.2 0.3,-0.4 0.1,-0.1 0.2,0 0.3,-0.1 0.1,-0.1 0.1,-0.2 0.2,-0.3 0.1,0 0.2,0 0.3,0 0.2,0 0.3,0 0.5,-0.1 0,0.1 0.2,0.2 0.3,0.3 0.1,0.1 0.2,0.2 0.2,0.2 0.1,0.1 0.3,0.1 0.4,0.2 0.1,0.2 0,0.3 0,0.4 0.1,0 0.1,0 0.1,0 0,-0.1 0,-0.3 0.1,-0.3 0.1,0 0,0.1 0.1,0.1 0,-0.1 -0.1,-0.2 -0.2,-0.3 -0.1,-0.2 -0.3,-0.2 -0.5,-0.3 0,-0.1 -0.1,-0.2 -0.1,-0.3 0.1,0 0.2,0 0.3,0 0.1,0 0.1,0.1 0.2,0.2 0.2,0.1 0.4,0.1 0.5,0.3 0,0.1 -0.1,0.1 -0.1,0.2 0,0.2 0.2,0.2 0.3,0.3 0.1,0.1 0.1,0.3 0.2,0.4 0.1,0 0.1,0 0.2,0 0.1,-0.1 0.1,-0.1 0.2,0 0,-0.1 -0.1,-0.1 -0.1,-0.2 0,0 0.1,0 0.1,0 -0.1,-0.1 -0.1,-0.2 -0.2,-0.4 0.1,-0.2 0.5,0 0.7,-0.2 -0.1,0.1 -0.1,0.2 -0.1,0.4 0.1,0.1 0.2,0.3 0.2,0.4 0.4,-0.1 0.8,0.1 1.1,-0.1 0.2,0.3 0,0.6 -0.2,0.8 0,0 -0.1,0 -0.1,0 -0.1,0.1 -0.2,0 -0.4,0.1 -0.1,0 -0.2,0.1 -0.2,0.1 -0.4,0 -0.8,-0.2 -1.2,-0.3 -0.1,0 -0.2,0.1 -0.2,0.1 0,0.1 -0.1,0.2 -0.1,0.3 -0.1,-0.1 -0.2,-0.1 -0.4,-0.1 -0.2,-0.1 -0.3,-0.3 -0.4,-0.3 -0.2,0 -0.3,0.1 -0.4,-0.1 -0.1,-0.1 0,-0.2 -0.1,-0.3 0,-0.1 -0.1,-0.2 -0.2,-0.3 -0.1,0 -0.2,0 -0.3,0 -0.2,0 -0.4,-0.1 -0.6,-0.1 -0.2,0 -0.5,0 -0.7,0 -0.1,0 -0.2,0.1 -0.3,0.1 -0.1,0 -0.2,-0.2 -0.3,-0.2 -0.1,0 -0.2,0.2 -0.3,0.2 -0.1,0 -0.2,0 -0.2,0 -0.1,0 -0.1,0.1 -0.2,0.1 0,0 0,0 0,0.1 -0.1,0.1 -0.2,0.3 -0.3,0.4 -0.2,0.1 -0.4,0.1 -0.6,0.2 -0.2,0.1 -0.5,0.4 -0.5,0.7 0,0.2 -0.1,0.4 -0.1,0.6 -0.2,0.2 0,0.5 -0.1,0.8 0.1,0.2 0.3,0.3 0.4,0.5 0.1,0.1 0,0.2 0.1,0.4 0,0.1 0.2,0.2 0.3,0.3 0.1,0.1 0.2,0.2 0.3,0.3 0.3,0.1 0.6,0.1 0.9,0.2 0.2,0 0.4,0.1 0.6,0.1 0.1,0 0.3,-0.1 0.5,-0.1 0.1,0 0.2,0.1 0.3,0.1 0.1,0.2 0.4,0.2 0.7,0.2 0.1,0.1 0.2,0.1 0.2,0.2 -0.1,0.1 -0.2,0.3 -0.2,0.5 0.4,0.3 0.7,0.7 1,1.1 -0.1,0.1 -0.1,0.2 -0.1,0.3 -0.1,0.1 -0.2,0.1 -0.2,0.1 0,0.1 0,0.3 -0.1,0.4 0.1,0.2 0.4,0.3 0.4,0.4 0.1,0.1 0.1,0.2 0.1,0.3 0.1,0.2 0.4,0.3 0.6,0.4 0,0 0,0.1 0,0.1 0.4,0.1 0.9,0 1.3,-0.1 0.4,-0.1 0.8,-0.2 1,-0.5 0,0 0,-0.1 0,-0.1 0.1,-0.1 0.2,-0.2 0.3,-0.2 0,-0.1 0.1,-0.2 0.1,-0.3 0.3,-0.2 0.7,-0.3 1,-0.6 -0.1,-0.4 0,-0.8 -0.1,-1.1 0.1,-0.1 0.2,-0.3 0.4,-0.5 0.1,-0.1 0.2,-0.1 0.3,-0.2 0.2,-0.1 0.4,-0.4 0.6,-0.6 0.1,-0.1 0.3,-0.2 0.4,-0.4 0,-0.1 0,-0.2 0.1,-0.3 0,-0.1 0.1,-0.2 0.1,-0.3 0.1,-0.2 0.2,-0.3 0.1,-0.4 -0.1,0 -0.2,0 -0.2,0 -0.3,0.1 -0.7,0.5 -1,0.3 v -0.1 c 0.2,-0.1 0.5,-0.2 0.7,-0.4 0.2,-0.1 0.4,-0.2 0.6,-0.3 0.1,-0.1 0.2,-0.3 0.3,-0.3 0.2,-0.1 0.4,-0.1 0.6,-0.3 0,-0.3 0.1,-0.5 0.2,-0.8 -0.1,-0.1 -0.1,-0.2 -0.2,-0.3 -0.1,-0.1 -0.3,-0.1 -0.3,-0.2 0.2,-0.1 0.4,-0.1 0.6,0 0.1,-0.2 0.3,-0.3 0.6,-0.4 0,0.1 0,0.1 0.1,0.1 0.3,0 0.4,0.2 0.6,0.3 0.1,0 0.1,-0.1 0.1,-0.1 0.2,0.1 0.2,0.4 0.3,0.7 0,0.1 0.1,0.1 0.2,0.2 0,0.1 0,0.1 0,0.2 0.1,0.1 0.2,0.2 0.2,0.3 0.1,0 0.2,0 0.2,0.1 0.1,-0.3 0.2,-0.6 0.2,-0.9 0,-0.1 -0.1,-0.2 -0.1,-0.4 0,-0.2 0.2,-0.4 0.3,-0.7 0,-0.1 0,-0.2 0,-0.3 0,-0.1 0.1,-0.1 0.1,-0.2 0,-0.2 0.1,-0.3 0.2,-0.5 0.3,0 0.3,0.3 0.4,0.4 C 53,34.5 53,35 53,35.3 c 0,0.1 0,0.3 0.1,0.3 0,-0.1 0,-0.2 0,-0.3 0,0 0,0 0,0 0,-0.1 0,-0.4 0,-0.6 z m -5.4,-0.9 c -0.1,0 -0.1,0 0,0 0,-0.1 0,0 0,0 z m -0.1,-0.1 c 0,0 0,0.1 0,0 0,0.1 0,0 0,0 z m -2.5,0.5 c -0.1,0 -0.1,0 -0.2,0.1 -0.3,0.1 -0.5,0.1 -0.7,0.2 0,0 0,-0.1 0.1,-0.1 0,-0.2 0,-0.4 0,-0.6 0.1,0 0.1,-0.1 0.2,-0.2 0.2,0 0.2,0.2 0.4,0.2 0,0.1 -0.1,0.1 -0.1,0.1 0.1,0 0.2,0 0.2,0.1 0.1,-0.1 0.2,-0.1 0.2,-0.2 -0.1,0 -0.2,0 -0.3,0 0.1,-0.2 0.3,-0.3 0.4,-0.4 0.2,0.1 0,0.2 0,0.3 0.1,0.1 0.2,0 0.3,0.1 0.1,0 0.3,0.2 0.3,0.3 0,0.1 -0.1,0.1 -0.2,0.2 -0.1,-0.1 -0.4,-0.1 -0.6,-0.1 z m 0,6.7 c 0,-0.1 -0.1,-0.1 0,-0.2 0,0 0.1,0 0.2,0 0,0 0,0 0,-0.1 0.1,0 0.1,0 0.1,0 -0.1,0.2 -0.1,0.3 -0.3,0.3 z m 1.5,-2.6 C 46.5,38.2 46.5,38.2 46.4,38.1 46.1,38 45.8,37.7 46,37.4 c 0,-0.1 -0.1,-0.1 -0.1,-0.1 -0.3,0 -0.3,-0.2 -0.4,-0.3 -0.1,-0.1 -0.2,-0.3 -0.2,-0.4 0,-0.2 0.4,0 0.5,0.1 0.1,0.6 0.6,0.8 1,1.2 0,0.2 0.1,0.3 0.1,0.5 -0.1,0 -0.2,-0.1 -0.3,-0.1 z m 0.6,-4.1 c 0,-0.1 0,-0.1 0.1,-0.1 -0.2,-0.2 -0.5,-0.4 -0.4,-0.8 0.1,-0.1 0.1,-0.2 0.2,-0.2 0,0 0.1,0 0.1,0 0,0 0,0 0.1,-0.1 0,0 0,0 0.1,0 -0.1,0.1 -0.1,0.3 -0.2,0.3 0.1,0.2 0.2,0.4 0.4,0.5 0.1,0.2 0.2,0.3 0.3,0.5 0,0.1 -0.1,0.1 -0.1,0.1 -0.1,0 -0.2,0 -0.3,0 -0.1,0 -0.2,-0.1 -0.3,-0.2 z m 1.4,2.1 c -0.1,0 -0.2,0 -0.3,0.1 -0.3,-0.1 -0.4,-0.4 -0.7,-0.5 0,0 0,-0.1 0,-0.1 0.1,0 0.1,0 0.2,-0.1 0.2,0.1 0.3,0.3 0.5,0.4 0.1,0 0.3,-0.1 0.4,-0.1 -0.1,0.1 -0.1,0.2 -0.1,0.3 z m -13.8,3.5 c 0,-0.3 -0.2,-0.5 -0.3,-0.8 -0.1,-0.2 -0.2,-0.4 -0.3,-0.5 -0.1,-0.1 -0.3,-0.2 -0.3,-0.3 -0.1,-0.2 -0.2,-0.4 -0.3,-0.6 0,-0.1 -0.1,-0.1 -0.1,-0.2 -0.1,-0.2 -0.1,-0.4 -0.1,-0.6 0,-0.2 -0.1,-0.4 -0.2,-0.5 0,-0.1 -0.2,-0.2 -0.2,-0.3 0,-0.1 0,-0.1 0,-0.2 0,-0.5 -0.1,-1.1 -0.2,-1.5 0,0 0,0.1 0,0.1 0,0.1 0,0.3 0,0.4 0,2.2 0.8,4.2 2.1,5.8 0,0 0.1,0 0.1,0 -0.1,-0.1 -0.1,-0.3 -0.2,-0.5 -0.2,-0.2 -0.3,-0.3 0,-0.3 z M 33.1,32.5 C 33,32.7 32.9,32.9 33,33.2 33,33 33,32.7 33.1,32.5 Z M 33,32.3 c 0,0.1 0,0.1 0,0.2 0,0 0,0 0,0 0,0 0,-0.1 0,-0.2 z m -0.1,0.9 c 0,0.1 -0.1,0.2 0,0.3 0.1,0 0.1,-0.2 0,-0.3 z M 39.7,30 c -0.1,-0.1 -0.4,0 -0.5,-0.1 0,0.1 -0.1,0.1 -0.1,0.2 0.1,0.1 0.2,0.2 0.3,0.3 0.1,-0.1 0.3,-0.1 0.5,-0.2 C 39.8,30.1 39.8,30 39.7,30 Z m 5.8,-0.6 c 0.1,0 0.2,0 0.3,0 0,-0.2 -0.2,-0.1 -0.2,-0.3 0,-0.1 0.1,-0.2 0,-0.3 0.1,-0.1 0.1,-0.2 0.2,-0.3 0,0 0.1,0 0.1,0 0,-0.2 -0.3,0 -0.4,0 0,0.1 0,0.1 0,0.2 -0.2,0.1 -0.2,0.6 0,0.7 z m -1.6,6.1 c 0,-0.1 -0.1,-0.1 -0.1,-0.1 0,0 0,0.1 0,0.1 0,0 0,-0.1 0.1,0 z M 42.3,35 c -0.1,-0.1 -0.2,-0.1 -0.3,-0.1 0,0 -0.1,-0.1 -0.1,-0.1 0,0 0,0.1 0,0.1 0.1,0 0.3,0.1 0.4,0.2 -0.1,0 -0.1,0 0,-0.1 z m -1.1,-0.5 c 0,0.1 0.1,0.2 0.2,0.3 0,-0.2 0.1,-0.2 0.1,-0.4 -0.2,-0.1 -0.3,0 -0.3,0.1 z m 0.2,-0.3 c 0,0 0,-0.1 0,0 -0.1,0 -0.1,0 0,0 0,0 0,0 0,0 z m 5.2,-6.9 c -0.1,0 -0.2,-0.1 -0.2,0 0.1,0 0.1,0.1 0.2,0.1 0,0 0,-0.1 0,-0.1 z m 5.3,9.6 c -0.1,0.2 0,0.4 0.1,0.5 0.1,0 0.1,-0.4 -0.1,-0.5 0.1,0 0,0 0,0 z M 40.5,25.7 c 0,0.1 -0.1,0.1 -0.1,0.1 0.1,0 0.2,0 0.3,-0.1 0,-0.1 0,-0.1 0,-0.1 -0.1,0 -0.2,0.1 -0.2,0.1 z m 5.5,1.7 c 0.1,0 0.1,0.1 0.2,0.2 0.1,-0.1 0.2,0 0.2,-0.1 0,-0.1 -0.3,-0.2 -0.4,-0.1 z m 0.4,-1.2 c 0,0.1 0.2,0.2 0.3,0.1 -0.2,0 -0.2,-0.2 -0.3,-0.1 z m -7.5,0.3 c 0.2,0 0.4,-0.1 0.5,-0.2 -0.2,-0.1 -0.4,0 -0.5,0.2 z m 0.5,-0.2 c 0.2,0 0.2,-0.1 0.3,-0.1 -0.1,-0.1 -0.2,0.1 -0.3,0.1 z m 0,6.1 c 0.2,-0.1 0.7,-0.4 0.3,-0.6 -0.2,0.1 -0.4,0.3 -0.5,0.5 0.1,0 0.2,0 0.2,0.1 z m -0.2,-5.9 c -0.1,0 0,-0.1 0,0 -0.1,0 -0.2,0 -0.3,0.1 0.1,0 0.2,-0.1 0.3,-0.1 z m 3.8,2.3 c -0.1,-0.1 -0.1,-0.1 -0.2,-0.1 -0.1,0 -0.2,0 -0.3,0.1 0,0.2 0.2,0.2 0.2,0.4 C 42.9,29 43,29 43,28.8 c 0.1,0.1 0.2,0.1 0.2,0.1 0,-0.1 0.1,-0.1 0.1,-0.2 C 43.2,28.6 43,28.6 43,28.8 Z M 41.3,28.2 C 41.2,28.2 41.1,28 41,28 c 0,-0.1 0.1,-0.1 0,-0.2 -0.2,0 -0.4,-0.2 -0.5,-0.3 -0.1,0 -0.1,0 -0.2,0 0,0 0,-0.1 0,-0.1 -0.2,0 -0.2,-0.1 -0.3,-0.2 -0.1,0 -0.2,0 -0.3,0 0,0 -0.1,0 0,-0.1 -0.1,0 -0.2,-0.1 -0.3,-0.1 0,0 0,-0.1 0,-0.1 -0.3,0 -0.4,0.2 -0.5,0.4 0,0 0.1,0 0.1,0.1 -0.1,0.2 -0.4,0.4 -0.5,0.6 0,0.1 0,0.1 0,0.1 0,0 0,0 -0.1,0 -0.1,0 0,-0.1 -0.1,0 -0.1,0 0,0.3 -0.2,0.3 0,0 -0.1,0 -0.1,0 -0.2,0.1 -0.4,0.2 -0.6,0.4 0,0.3 -0.3,0.4 -0.3,0.7 0.4,0.4 0.5,-0.3 0.9,-0.3 0,0 0.1,0.1 0.1,0.1 0.2,0 0.3,0 0.4,-0.1 0.3,0 0.4,0.1 0.7,0.2 0.1,0 0.2,-0.1 0.3,-0.2 0,0 0.1,0 0.1,-0.1 0,0 0,-0.1 0.1,-0.1 0.1,-0.1 0.3,-0.1 0.4,-0.2 0.1,-0.1 0.2,-0.3 0.4,-0.3 0,0 0,-0.1 0,-0.1 0,0 -0.1,0 -0.1,0 0.4,0 0.7,0 0.9,-0.2 0,0.1 0.1,0.1 0,0 z M 40,32.8 c 0.2,-0.1 0.6,-0.1 0.7,-0.3 0,-0.2 -0.2,-0.3 -0.2,-0.4 -0.1,-0.2 0.1,-0.4 0,-0.7 -0.2,-0.2 -0.3,0.1 -0.4,0.2 0.1,0.1 0.1,0.1 0.2,0.2 -0.1,0.4 -0.3,0.6 -0.5,0.9 0,0 0.1,0 0.2,0.1 z m -0.3,-6.7 c 0.1,-0.1 0.2,0 0.3,-0.1 0,0 0,0 0,0 0.1,-0.1 0.2,-0.1 0.3,-0.1 -0.2,-0.1 -0.4,0 -0.6,0.2 z m 0.2,0.1 c 0.1,0 0.2,-0.1 0.2,-0.1 0,0 -0.3,0 -0.2,0.1 z m -3.4,2.4 c 0,-0.3 0.4,-0.4 0.5,-0.6 0,0 0,0 0,0 0,-0.1 0.1,-0.2 0,-0.3 -0.1,0.1 -0.3,0.1 -0.4,0.2 -0.1,0.1 -0.3,0.3 -0.4,0.3 -0.1,0 -0.1,0 -0.2,0 -0.1,0 -0.2,0.2 -0.4,0.2 0.1,-0.2 0.3,-0.2 0.5,-0.4 0.1,-0.1 0.1,-0.2 0.2,-0.3 0.1,-0.1 0.3,-0.2 0.3,-0.4 0.3,-0.2 0.5,-0.4 0.8,-0.4 0,0.1 0,0.1 0.1,0.1 -0.1,0 -0.2,0.1 -0.3,0.2 0,0 0.1,0 0.1,0 0,0 -0.1,0.1 -0.1,0.1 0.2,-0.1 0.3,-0.3 0.6,-0.4 0,0.1 0,0.1 0,0.1 0.2,0 0.2,-0.1 0.4,-0.1 -0.2,0.2 -0.2,0.5 -0.7,0.5 -0.1,0 -0.1,-0.1 -0.1,-0.1 0,0 -0.1,0 -0.1,0 0,0.2 -0.2,0.3 -0.3,0.5 0,0 0,0 0,0 0,0 0,0 0,0 0,0.1 -0.1,0.1 0,0.2 0.3,0.1 0.4,-0.2 0.6,-0.3 0,0.1 -0.1,0.2 -0.1,0.3 0.1,0 0.1,-0.1 0.2,-0.1 0.1,-0.1 0.1,-0.2 0.2,-0.3 0.1,-0.1 0.3,-0.2 0.4,-0.4 0,0 -0.1,0 0,-0.1 0.1,-0.1 0.3,-0.2 0.4,-0.3 0,-0.1 0.1,-0.2 0.2,-0.3 0,0 -0.1,0 -0.2,0 0.1,0 0.2,-0.1 0.2,-0.2 -0.3,0 -0.6,0.1 -0.7,0.4 -0.1,0 -0.1,0 -0.1,-0.1 0.2,-0.2 0.5,-0.3 0.7,-0.4 -0.2,0 -0.4,0.2 -0.5,0.1 0.1,-0.1 0.3,0 0.3,-0.2 0,0 -0.1,0 -0.1,-0.1 0.2,-0.1 0.3,-0.3 0.5,-0.4 -0.1,0.1 -0.2,0.1 -0.3,0.3 0.3,-0.1 0.6,-0.2 0.9,-0.3 0.2,-0.2 0.7,-0.2 0.9,-0.4 -0.3,0 -0.4,0.1 -0.6,0.2 0,0 0.1,0 0.1,0 -0.2,0 -0.3,0.1 -0.5,0.1 0,0 0,0 0,0 v 0 c 0,0 0,0 0,0 0,0 0,0 0,0 0.3,-0.1 0.5,-0.2 0.8,-0.3 0.7,-0.3 1.7,-0.4 2.6,-0.4 0,0 -0.1,0 -0.1,0 -1.4,0 -2.7,0.3 -3.9,0.7 -0.1,0 -0.2,0.1 -0.3,0.1 -0.2,0.1 -0.4,0.2 -0.7,0.3 -0.6,0.3 -1.1,0.6 -1.6,1 -0.1,0.1 -0.2,0.1 -0.2,0.2 -0.2,0.1 -0.3,0.3 -0.5,0.4 -0.5,0.4 -0.9,0.9 -1.3,1.4 -0.1,0.2 -0.2,0.4 -0.4,0.5 0,0.1 -0.1,0.1 -0.1,0.2 -0.1,0.1 -0.1,0.3 -0.2,0.4 0,0.1 -0.1,0.1 -0.1,0.2 0,0 0,0.1 0,0.1 0.1,-0.1 0.1,-0.2 0.2,-0.3 0,0 0,0 0.1,0 0.2,-0.1 0.3,-0.3 0.5,-0.5 0,0.1 0,0.1 0.1,0.2 0,-0.2 0.3,-0.2 0.4,-0.1 0,0.1 -0.1,0.1 -0.1,0.2 0.1,0 0.1,0.1 0.2,0.1 0.1,-0.2 0.2,-0.4 0.4,-0.6 0,-0.1 0,-0.3 0.1,-0.3 0.1,0.1 0.1,0.3 0.1,0.4 0,0.1 0.1,0 0.1,0 -0.1,0.1 -0.3,0.2 -0.4,0.3 0,0.2 -0.1,0.5 0.1,0.6 0.1,-0.2 0.3,-0.3 0.2,-0.5 0.1,-0.2 0.2,-0.4 0.4,-0.5 0,-0.1 0.1,-0.2 0.2,-0.4 0,-0.1 0.1,-0.2 0.1,-0.3 0.1,-0.2 0.3,-0.3 0.3,-0.5 0.2,0.5 0.1,0.6 0,0.5 z m -1.8,0.9 c 0,-0.1 0,-0.1 0.1,-0.1 0,0 -0.1,0 -0.1,0.1 0.1,-0.1 0.1,0 0,0 z m 0.2,-0.4 c 0,-0.1 0.1,-0.2 0.2,-0.2 0,0 -0.1,0.1 -0.2,0.2 z M 35,28.9 c 0,-0.1 0.2,-0.2 0.3,-0.3 0,0.1 -0.2,0.2 -0.3,0.3 z m 0.4,-0.3 c 0,-0.1 0.1,-0.3 0.2,-0.4 0.1,0.1 -0.1,0.2 -0.2,0.4 z m 3.5,-1.7 c 0.2,0 0.2,-0.2 0.3,-0.2 0,0 -0.1,0 -0.1,0.1 0.1,0.1 0.4,-0.1 0.4,0.2 0.2,0.1 0.4,0 0.6,0 0,-0.1 0,-0.1 0.1,-0.1 0,0 -0.1,0 -0.1,0 0,-0.1 0.1,-0.1 0.1,-0.2 0,0 -0.1,0 -0.1,0 0,0 0.1,-0.1 0.1,-0.1 0,-0.1 -0.1,-0.1 -0.2,-0.2 -0.2,0 -0.3,0.1 -0.4,0.2 0,0.1 0.2,0 0.3,0.1 -0.1,0 0,0.1 0,0.1 -0.1,0 -0.2,0 -0.4,0 -0.1,-0.1 -0.3,0 -0.3,0 0.1,-0.2 0.3,-0.2 0.4,-0.3 0,0 -0.1,0 -0.1,0 -0.3,-0.1 -0.5,0.1 -0.6,0.4 0,0 0,0 0,0 z" id="path32"></path>		<text transform="matrix(0.9729,0,0,1,1.0872,79.0204)" class="st0 st2 st3" id="text34">AS-SUNNAH TRUST</text>		<path class="st0" d="M 80.7,9.8 C 80.7,7.7 79,6 76.9,5.8 76.8,4.8 76.6,2.7 76.6,0 76.5,2.7 76.2,4.8 76,5.8 c -2.1,0.2 -3.8,1.9 -3.8,4 0,1.4 0.7,2.6 1.9,3.3 -0.4,0 -0.9,0 -1.5,0 1.5,0.5 2.2,1.7 2.2,2.9 v 47.7 c 0,0.4 0,4.4 -2.7,6 3.7,-1.2 5.9,-3.5 5.9,-6.1 0,0 0,-45 0,-47.4 v 0 -0.2 c 0.1,-1.1 0.8,-2.3 2.2,-2.8 -0.5,0 -1,0 -1.4,0 1.2,-0.9 1.9,-2.1 1.9,-3.4 z" id="path36"></path>		<path class="st0" d="m 84.8,80 c 0,0 -2.9,5 -10.5,5 -7.5,0 -22.9,0 -22.9,0 h -18 C 33.4,85 18,85 10.5,85 3,85 0,80 0,80 c 0,0 4.6,1.9 9.8,1.9 5.2,0 58.2,0 60.8,0 2.8,0 11.9,0.1 14.2,-1.9 z" id="path38"></path>	</g>	<g id="g174">		<g id="g62">			<path class="st4" d="m 113.7,34.7 h -0.4 v 19.6 l -1.1,-1.5 -0.2,-0.7 -0.2,-0.6 -0.3,-1.1 c -0.1,-0.1 -0.1,-0.2 -0.1,-0.3 0,-0.1 -0.1,-0.2 -0.1,-0.3 l -0.9,-1.7 -0.8,-1.3 c -0.1,-0.1 -0.2,-0.2 -0.3,-0.4 -0.1,-0.1 -0.2,-0.3 -0.4,-0.4 -0.2,0.4 -0.5,0.8 -0.8,1.1 -0.3,0.3 -0.7,0.6 -1.1,0.9 -0.4,0.3 -0.8,0.4 -1.2,0.6 -0.4,0.1 -0.9,0.2 -1.4,0.2 h -0.8 c -0.2,0 -0.5,-0.1 -0.9,-0.3 v 0 c -1,-0.4 -1.9,-0.8 -2.5,-1.3 -0.3,-0.2 -0.7,-0.7 -1.1,-1.2 -0.4,-0.6 -1,-1.3 -1.5,-2.2 -0.2,-0.4 -0.5,-0.9 -0.8,-1.6 -0.3,-0.7 -0.6,-1.6 -1,-2.6 L 95.1,37 C 95,36.7 94.9,36.3 94.8,36 94.7,35.7 94.7,35.4 94.6,35.1 l 1.6,0.6 1.3,3.7 c 0.1,0.2 0.2,0.5 0.3,0.7 0.1,0.3 0.3,0.6 0.5,0.9 v 0 l 0.8,1.2 c 0.6,0.6 1.1,1 1.5,1.4 0.5,0.4 0.9,0.7 1.3,0.9 v 0 c 0.4,0.2 0.8,0.3 1.2,0.4 0.4,0.1 0.9,0.1 1.4,0.1 0.5,0 0.9,-0.1 1.2,-0.2 0.3,-0.1 0.6,-0.3 0.9,-0.6 0.2,-0.3 0.4,-0.5 0.5,-0.9 0.1,-0.3 0.2,-0.7 0.2,-1.1 0,-0.4 0,-0.9 -0.1,-1.3 -0.1,-0.4 -0.2,-0.8 -0.3,-1.1 -0.1,-0.3 -0.3,-0.6 -0.5,-0.8 -0.2,-0.2 -0.4,-0.3 -0.6,-0.3 -0.1,0 -0.2,0.2 -0.5,0.5 -0.3,0.4 -0.6,0.8 -0.9,1 -0.3,0.2 -0.6,0.4 -0.8,0.4 -0.9,0 -1.6,-0.2 -2.1,-0.5 -0.7,-0.5 -1.1,-1.1 -1.1,-2 0,-0.2 0,-0.5 0.1,-0.8 0.1,-0.3 0.2,-0.6 0.3,-1 0.1,-0.2 0.2,-0.4 0.4,-0.5 0.2,-0.1 0.4,-0.3 0.6,-0.4 0.2,-0.1 0.4,-0.2 0.7,-0.2 0.2,0 0.5,-0.1 0.7,-0.1 1.5,0 2.8,0.5 3.9,1.4 l 0.5,0.6 0.6,0.8 c 0.5,0.6 0.9,1.4 1.1,2.2 0.2,0.8 0.4,1.7 0.4,2.7 0.2,0.3 0.3,0.6 0.4,0.8 0.1,0.2 0.3,0.5 0.4,0.7 0.1,0.2 0.2,0.4 0.4,0.7 0.1,0.2 0.3,0.5 0.4,0.8 V 34.7 h -17 l -2.2,-2.4 h 20.3 1.1 l 1.3,0.1 c 0.6,0.1 1.2,0.4 1.7,0.8 0.5,0.4 0.9,1 1.2,1.7 l 0.1,0.2 -0.3,-2.1 -0.1,-2.3 v -0.8 c 0,-0.2 0,-0.4 -0.1,-0.6 0,-0.2 -0.1,-0.5 -0.2,-0.9 l 1.3,1.1 0.2,1.1 0.1,0.6 0.2,0.4 0.4,0.5 0.1,0.1 h 2.1 l 2.2,2.4 h -4.2 v 20 l -2.1,-2.4 V 38.1 c 0,-0.2 0,-0.3 0,-0.4 0,-0.1 0,-0.2 -0.1,-0.3 0,-0.3 -0.1,-0.5 -0.1,-0.7 -0.1,-0.2 -0.2,-0.3 -0.3,-0.5 L 116,35.3 c -0.3,-0.3 -0.7,-0.5 -1.1,-0.6 v 0 z" id="path42"></path>			<path class="st4" d="m 137.5,34.7 v 19.6 l -2.1,-2.6 v -8.2 l -0.3,-0.9 c -0.1,-0.2 -0.3,-0.4 -0.4,-0.6 -0.1,-0.2 -0.3,-0.4 -0.4,-0.6 v 0 c -0.3,-0.3 -0.6,-0.5 -0.9,-0.5 -0.2,0 -0.3,0 -0.5,0.1 -0.1,0 -0.3,0.1 -0.4,0.2 -0.1,0.1 -0.3,0.2 -0.4,0.4 -0.1,0.2 -0.3,0.4 -0.4,0.6 l -2.5,3.7 c -0.5,0.7 -0.9,1.1 -1.3,1.1 h -0.7 -0.4 c -0.1,0 -0.2,0 -0.3,0 -0.1,0 -0.2,0 -0.3,-0.1 l -0.5,-0.2 c -0.2,0 -0.4,-0.1 -0.6,-0.3 -0.2,-0.2 -0.4,-0.4 -0.7,-0.7 l -0.9,-1.4 -0.4,-0.7 -0.4,-0.8 1.6,-1.7 c 0,0.3 0,0.6 0.1,0.8 0.1,0.3 0.1,0.5 0.3,0.8 v 0 l 0.6,0.9 c 0.1,0.1 0.1,0.1 0.2,0.2 0.1,0.1 0.2,0.1 0.3,0.1 0.2,0 0.5,-0.2 0.7,-0.4 v 0 l 0.8,-1.1 1.5,-2.1 -0.1,-1 c 0,-0.1 0,-0.2 0,-0.3 0,-0.1 0,-0.2 -0.1,-0.3 -0.1,-0.3 -0.2,-0.6 -0.4,-0.9 -0.2,-0.3 -0.4,-0.5 -0.6,-0.8 -0.1,-0.1 -0.3,-0.1 -0.4,-0.2 -0.2,-0.1 -0.3,-0.1 -0.4,-0.2 v 0 c -0.3,-0.1 -0.5,-0.1 -0.7,-0.1 -0.2,0 -0.3,0 -0.4,0 -0.5,0 -0.9,0 -1.1,0 -0.3,0 -0.5,-0.1 -0.7,-0.1 -0.2,-0.1 -0.4,-0.2 -0.5,-0.3 -0.1,-0.1 -0.3,-0.2 -0.4,-0.3 l -0.6,-0.9 -0.5,-0.3 -2,-2.1 h 19.6 l 2.2,2.4 h -4.2 z m -2.1,0 h -6.8 c 0.1,0.1 0.2,0.2 0.3,0.2 0.1,0.1 0.2,0.1 0.3,0.2 0.2,0.2 0.3,0.4 0.5,0.6 0.2,0.2 0.3,0.5 0.5,0.9 0.2,0.8 0.4,1.4 0.4,1.9 v 0.2 0 0 0 l 0.3,-0.2 v 0 c 0.5,-0.5 1,-0.8 1.3,-0.9 h 0.5 c 0.2,0 0.4,0 0.5,0 0.1,0 0.3,0.1 0.4,0.1 0.1,0.1 0.2,0.1 0.4,0.3 0.1,0.1 0.3,0.2 0.4,0.4 l 1.2,1.5 z" id="path44"></path>			<path class="st4" d="m 149.3,42 v 2.7 h -7.5 V 42 Z" id="path46"></path>			<path class="st4" d="m 170.9,61.4 -0.4,0.1 c -0.2,-0.4 -0.4,-0.8 -0.6,-1.2 -0.2,-0.4 -0.5,-0.7 -0.8,-1.1 l -1.8,-1.9 v 0 l -2,-1.4 c -0.2,0.3 -0.3,0.5 -0.6,0.7 -0.2,0.2 -0.5,0.5 -0.8,0.8 -0.1,0.1 -0.3,0.2 -0.5,0.3 -0.2,0.1 -0.4,0.2 -0.7,0.3 l -1.2,0.1 c -0.6,0 -1,-0.1 -1.2,-0.2 l -1,-0.6 c -0.2,-0.1 -0.3,-0.3 -0.4,-0.4 -0.1,-0.1 -0.2,-0.2 -0.2,-0.3 -0.2,-0.3 -0.3,-0.5 -0.4,-0.8 l -0.1,-0.6 c 0,-0.2 0,-0.4 0.1,-0.6 0.1,-0.2 0.1,-0.4 0.2,-0.6 l 0.5,-0.8 c 0.4,-0.5 1,-0.9 1.7,-1.1 h 0.6 0.4 c 0.6,0 1,0.1 1.4,0.3 l 0.4,0.2 v -9.1 l -0.3,-0.9 c -0.1,-0.2 -0.3,-0.4 -0.4,-0.6 -0.1,-0.2 -0.3,-0.4 -0.4,-0.6 v 0 c -0.3,-0.3 -0.6,-0.5 -0.9,-0.5 -0.2,0 -0.3,0 -0.5,0.1 -0.1,0 -0.3,0.1 -0.4,0.2 -0.1,0.1 -0.3,0.2 -0.4,0.4 -0.1,0.2 -0.3,0.4 -0.4,0.6 l -2.5,3.7 c -0.5,0.7 -0.9,1.1 -1.2,1.1 h -0.7 -0.4 c -0.1,0 -0.2,0 -0.3,0 -0.1,0 -0.2,0 -0.3,-0.1 l -0.5,-0.2 c -0.2,0 -0.4,-0.1 -0.6,-0.3 -0.2,-0.2 -0.4,-0.4 -0.7,-0.7 l -0.9,-1.4 -0.4,-0.7 -0.4,-0.8 1.6,-1.7 c 0,0.3 0,0.6 0.1,0.8 0.1,0.3 0.1,0.5 0.3,0.8 v 0 l 0.6,0.9 c 0.1,0.1 0.1,0.1 0.3,0.2 0.1,0.1 0.2,0.1 0.3,0.1 0.2,0 0.5,-0.2 0.7,-0.4 v 0 l 0.8,-1.1 1.5,-2.1 -0.1,-1 c 0,-0.1 0,-0.2 0,-0.3 0,-0.1 0,-0.2 -0.1,-0.3 -0.1,-0.3 -0.2,-0.6 -0.4,-0.9 -0.2,-0.3 -0.4,-0.5 -0.6,-0.8 -0.1,-0.1 -0.3,-0.1 -0.4,-0.2 -0.2,-0.1 -0.3,-0.1 -0.4,-0.2 v 0 c -0.3,-0.1 -0.5,-0.1 -0.7,-0.1 -0.2,0 -0.3,0 -0.4,0 -0.5,0 -0.9,0 -1.1,0 -0.3,0 -0.5,-0.1 -0.7,-0.1 -0.2,-0.1 -0.4,-0.2 -0.5,-0.3 -0.1,-0.1 -0.3,-0.2 -0.4,-0.3 l -0.6,-0.9 -0.5,-0.3 -2,-2.1 h 19.7 l 2.2,2.4 h -4.5 v 19.2 l 0.5,0.3 v 0 c 0.1,0.1 0.2,0.1 0.3,0.2 0.1,0.1 0.2,0.1 0.3,0.2 l 0.4,0.4 1.9,1.9 c 0,0 0,0 0.1,0.1 0,0 0.1,0.1 0.1,0.2 0.1,0.1 0.1,0.2 0.2,0.3 0.1,0.1 0.2,0.3 0.4,0.5 0.1,0.2 0.2,0.4 0.2,0.6 0.1,0.3 0.2,0.5 0.3,0.6 l 0.1,1.1 v 0.9 z m -7,-26.7 h -6.8 c 0.1,0.1 0.2,0.2 0.3,0.2 0.1,0.1 0.2,0.1 0.3,0.2 0.2,0.2 0.3,0.4 0.5,0.6 0.2,0.2 0.3,0.5 0.5,0.9 0.2,0.8 0.4,1.4 0.4,1.9 0,0.1 0,0.2 0,0.2 0,0 0,0 0,0 0,0 0,0 0,0 0,0 0,0 0,0 l 0.3,-0.2 v 0 c 0.3,-0.2 0.5,-0.4 0.7,-0.6 0.2,-0.1 0.4,-0.2 0.5,-0.3 h 0.5 c 0.2,0 0.4,0 0.5,0 0.1,0 0.3,0.1 0.4,0.1 0.1,0.1 0.2,0.1 0.4,0.3 0.1,0.1 0.3,0.2 0.4,0.4 L 164,40 Z m -0.9,19.6 -0.9,-0.1 c -0.4,0 -0.7,0.1 -1,0.3 -0.3,0.2 -0.4,0.4 -0.5,0.8 l 0.1,0.3 c 0.1,0.3 0.3,0.4 0.7,0.4 0.3,0 0.6,-0.1 0.8,-0.2 0.3,-0.1 0.6,-0.3 0.8,-0.5 l 0.5,-0.5 v -0.1 z" id="path48"></path>			<path class="st4" d="m 180.4,44.2 c -0.1,-0.3 -0.2,-0.7 -0.5,-1.1 l -0.6,-1.3 c -0.1,-0.2 -0.2,-0.4 -0.3,-0.5 -0.1,-0.2 -0.3,-0.4 -0.4,-0.5 l -1.1,-1.1 c -1,-0.8 -1.9,-1.3 -2.6,-1.3 v 0 c 0.3,0.4 0.5,0.8 0.6,1.2 0.1,0.4 0.2,0.7 0.2,1 0,0.2 0,0.4 0,0.5 0,0.1 0,0.2 -0.1,0.3 0,0.2 -0.1,0.4 -0.2,0.7 -0.4,1 -1.2,1.4 -2.4,1.4 -0.2,0 -0.4,0 -0.5,0 -0.1,0 -0.2,0 -0.3,-0.1 v 0 c -0.3,0 -0.6,-0.1 -0.9,-0.3 -0.3,-0.1 -0.5,-0.3 -0.8,-0.5 -0.2,-0.2 -0.3,-0.5 -0.5,-0.8 -0.2,-0.3 -0.3,-0.8 -0.4,-1.2 l -0.1,-0.9 c 0,-0.7 0.1,-1.3 0.4,-1.8 0.2,-0.5 0.6,-1 1,-1.4 0.4,-0.4 0.9,-0.7 1.4,-0.9 0.5,-0.2 1.1,-0.3 1.7,-0.3 h 0.7 c 0.3,0 0.6,0.1 1,0.3 v 0 c 0.2,0.1 0.4,0.2 0.7,0.3 0.2,0.1 0.5,0.3 0.8,0.5 0.4,0.3 0.7,0.6 1.1,0.9 0.3,0.3 0.7,0.8 1,1.3 0.2,0.3 0.4,0.6 0.5,0.8 0.1,0.2 0.2,0.3 0.3,0.4 0.1,0.1 0.1,0.2 0.1,0.2 0,0.1 0,0.1 0.1,0.2 v -5.7 h -11.9 l -2.2,-2.4 h 18.2 l 2.1,2.4 h -3.9 v 22.2 l -1.3,-1.4 -0.2,-0.7 v 0 L 181,54.3 c 0,0 0,-0.1 0,-0.1 0,0 0,-0.1 -0.1,-0.2 l -0.2,-0.5 -0.5,-1.3 -1,-1.7 -0.3,-0.5 c -0.1,-0.2 -0.3,-0.4 -0.4,-0.5 l -1.1,-1.2 c -0.5,-0.4 -0.9,-0.7 -1.4,-0.9 -0.4,-0.2 -0.9,-0.3 -1.2,-0.4 v 0 c 0.3,0.4 0.5,0.8 0.6,1.1 0.1,0.4 0.2,0.7 0.2,1 0,0.2 0,0.3 0,0.5 0,0.1 0,0.2 0,0.3 0,0.2 -0.1,0.4 -0.3,0.7 -0.2,0.5 -0.6,0.9 -1,1.1 -0.4,0.2 -0.9,0.4 -1.4,0.4 -0.2,0 -0.3,0 -0.4,0 -0.1,0 -0.2,0 -0.3,-0.1 -0.9,-0.1 -1.5,-0.4 -1.8,-0.8 -0.3,-0.4 -0.6,-1 -0.8,-1.7 l -0.1,-1 c 0,-0.7 0.1,-1.3 0.4,-1.8 0.2,-0.6 0.6,-1 1,-1.5 0.4,-0.4 0.9,-0.7 1.4,-1 0.5,-0.2 1.1,-0.3 1.7,-0.3 h 0.8 v 0 c 0.2,0 0.6,0.1 1,0.3 v 0 c 0.5,0.1 0.9,0.4 1.4,0.8 0.3,0.2 0.6,0.6 1,1 0.4,0.4 0.7,0.9 1.1,1.5 0.2,0.4 0.5,0.7 0.6,1 0.2,0.3 0.3,0.5 0.4,0.8 v -5.1 z" id="path50"></path>			<path class="st4" d="m 194,34.7 h -4.2 v 20 l -2.1,-2.4 V 38.1 c 0,-0.3 0,-0.6 -0.1,-0.8 -0.1,-0.4 -0.2,-0.8 -0.4,-1.1 -0.1,-0.2 -0.3,-0.4 -0.5,-0.6 -0.2,-0.2 -0.4,-0.4 -0.6,-0.5 -0.5,-0.3 -1,-0.5 -1.5,-0.5 h -0.5 l -2.3,-2.4 h 1.2 0.7 0.5 c 0.8,0.1 1.4,0.2 1.7,0.3 0.2,0.1 0.3,0.2 0.5,0.3 0.1,0.1 0.2,0.2 0.3,0.3 v 0 c 0.4,0.3 0.8,1 1.2,1.9 l 0.1,0.2 -0.3,-2.1 -0.1,-2.3 V 30 c 0,-0.1 0,-0.3 -0.1,-0.6 0,-0.3 -0.1,-0.5 -0.1,-0.8 l 1.2,1.1 0.2,1.1 0.1,0.5 0.2,0.4 0.4,0.5 0.1,0.1 h 2.2 z" id="path52"></path>			<path class="st4" d="m 208.5,55.8 -1.4,-1.4 v 0 L 205.5,53 c -0.2,-0.1 -0.4,-0.3 -0.6,-0.4 -0.2,-0.2 -0.5,-0.3 -0.8,-0.5 l -2,-1.3 c -0.2,-0.1 -0.5,-0.3 -0.7,-0.4 -0.3,-0.1 -0.5,-0.3 -0.8,-0.4 l -1.7,-0.8 v 0 c -0.4,-0.2 -0.9,-0.3 -1.6,-0.5 -0.6,-0.2 -1.3,-0.4 -2.1,-0.6 l -2.2,-5.8 1.8,1.1 c 0.2,0.1 0.5,0.2 0.7,0.3 0.2,0.1 0.5,0.2 0.7,0.3 v 0 c 0.4,0.1 0.8,0.2 1.3,0.3 0.4,0.1 0.9,0.1 1.3,0.1 h 0.8 l 0.6,-0.1 0.6,-0.1 c 0.1,0 0.3,-0.1 0.4,-0.1 0.1,-0.1 0.3,-0.1 0.4,-0.2 0.7,-0.3 1.2,-0.6 1.5,-0.9 l 0.7,-0.6 c 0.2,-0.2 0.3,-0.4 0.4,-0.6 0.1,-0.2 0.1,-0.4 0.1,-0.7 0,-0.2 0,-0.4 -0.1,-0.7 -0.1,-0.2 -0.2,-0.5 -0.4,-0.8 v 0 c -0.1,-0.1 -0.2,-0.3 -0.4,-0.4 -0.2,-0.1 -0.4,-0.2 -0.6,-0.3 -0.2,-0.1 -0.5,-0.2 -0.7,-0.2 -0.3,-0.1 -0.5,-0.1 -0.7,-0.1 -0.2,0 -0.4,0 -0.5,0.1 0,0.7 -0.2,1.3 -0.7,1.9 l -0.9,0.9 -0.3,0.2 c -0.1,0.1 -0.3,0.3 -0.6,0.4 -0.3,0.1 -0.6,0.2 -1.1,0.2 -0.6,0 -1,-0.2 -1.4,-0.5 -0.4,-0.3 -0.7,-0.8 -0.8,-1.5 v -0.5 l 0.1,-0.6 c 0,-0.2 0.1,-0.4 0.2,-0.6 0.1,-0.2 0.3,-0.4 0.5,-0.7 0.4,-0.6 1.1,-1.1 2,-1.4 l 1.3,-0.5 -0.1,-0.1 c -0.2,-0.2 -0.4,-0.4 -0.6,-0.6 -0.2,-0.2 -0.4,-0.3 -0.7,-0.3 h -5.1 l -2.2,-2.4 h 16.6 l 2.2,2.4 h -8.5 l 0.2,0.6 v 0 c 0.1,0.2 0.2,0.3 0.3,0.4 l 0.2,0.1 c 0.1,0 0.2,0 0.4,0.1 0.2,0.1 0.4,0.2 0.7,0.3 l 0.4,0.1 c 0.9,0.4 1.7,1.1 2.5,2.2 0.4,0.6 0.6,1.1 0.8,1.6 0.2,0.5 0.3,1 0.3,1.6 0,0.4 0,0.7 -0.1,0.8 -0.2,1.1 -0.7,2 -1.4,2.8 -0.3,0.4 -0.8,0.7 -1.3,1 -0.5,0.3 -1.2,0.7 -2,1.1 v 0 c 0.3,0.2 0.6,0.3 0.9,0.5 0.3,0.2 0.6,0.4 0.9,0.5 l 1.6,1.1 c 0.4,0.3 0.7,0.6 1,0.9 0.3,0.3 0.6,0.6 0.8,0.9 l 2,2.4 0.4,2.9 z" id="path54"></path>			<path class="st4" d="m 223.9,51.1 c 0.2,0 0.4,0 0.6,0 0.2,0 0.4,0 0.6,0 h 0.6 0.6 c 0.1,0 0.2,0 0.4,0.1 0.1,0 0.3,0.1 0.4,0.2 l 0.5,0.2 0.8,0.7 0.4,0.4 0.1,0.1 -0.1,-4.8 c -0.2,0.3 -0.5,0.5 -0.7,0.7 -0.2,0.2 -0.4,0.4 -0.6,0.6 -0.2,0.2 -0.4,0.3 -0.6,0.5 -0.2,0.1 -0.4,0.3 -0.7,0.4 v 0 c -0.2,0.2 -0.5,0.3 -0.8,0.4 -0.3,0.1 -0.5,0.2 -0.8,0.2 l -0.9,0.1 h -0.3 c -0.2,0 -0.3,0 -0.5,-0.1 -0.2,-0.1 -0.4,-0.2 -0.6,-0.3 -0.3,-0.2 -0.6,-0.5 -0.9,-1 -0.2,-0.3 -0.4,-0.6 -0.6,-1 -0.2,-0.3 -0.3,-0.7 -0.4,-1 l -0.1,-1.1 V 34.7 H 216 l -1.3,-2.4 h 14.6 v -0.5 c 0,-0.3 0,-0.5 -0.1,-0.7 -0.1,-0.2 -0.2,-0.4 -0.4,-0.5 v 0 c -0.3,-0.1 -0.6,-0.3 -0.9,-0.3 -0.3,-0.1 -0.7,-0.1 -1,-0.1 h -1.5 -1 l -0.9,0.1 c -0.4,0 -0.6,0 -0.8,0.1 h -0.5 c -0.4,0 -0.8,0 -1.2,-0.1 -0.4,-0.1 -0.8,-0.1 -1.2,-0.3 -0.4,-0.1 -0.7,-0.3 -1.1,-0.5 -0.3,-0.2 -0.6,-0.4 -0.9,-0.7 -0.2,-0.2 -0.3,-0.3 -0.5,-0.6 -0.2,-0.2 -0.3,-0.5 -0.4,-0.7 -0.1,-0.3 -0.2,-0.5 -0.3,-0.8 -0.1,-0.3 -0.1,-0.5 -0.1,-0.7 0,-0.5 0.1,-0.9 0.2,-1.1 0.1,-0.3 0.2,-0.6 0.4,-0.8 0.1,-0.1 0.2,-0.3 0.5,-0.3 l 0.6,-0.3 v 0.7 l 0.1,0.4 c -0.3,0.3 -0.5,0.6 -0.5,0.9 0,0.1 0,0.2 0,0.2 0,0.1 0,0.1 0,0.2 l 0.1,0.4 c 0.1,0.1 0.2,0.2 0.3,0.3 0.1,0.1 0.2,0.2 0.3,0.3 v 0 l 0.6,0.3 0.8,0.2 0.9,-0.1 1.2,-0.1 1.8,-0.1 c 0.3,0 0.6,0 0.9,-0.1 0.3,0 0.6,0 0.9,-0.1 1.3,0 2.3,0.3 3,0.8 v 0 c 0.4,0.3 0.8,0.6 1.1,1 0.4,0.4 0.7,0.9 0.9,1.5 0.1,0.4 0.2,0.7 0.2,0.9 0,0.3 0.1,0.5 0.1,0.7 v 0.4 h 1.8 l 1.3,2.4 H 221.8 V 47 c 0,0.3 0.1,0.5 0.3,0.9 0.2,0.2 0.5,0.3 0.8,0.3 0.5,0 1.1,-0.3 1.8,-0.8 0.7,-0.5 1.5,-1.3 2.3,-2.4 0.2,-0.3 0.4,-0.6 0.5,-1 0.2,-0.3 0.3,-0.7 0.3,-1 -0.1,0 -0.1,0 -0.1,0 0,0 -0.1,0 -0.1,0 -0.6,0 -1.2,-0.2 -1.8,-0.6 -0.5,-0.4 -0.7,-1 -0.7,-1.7 l 0.1,-0.6 c 0.2,-0.8 0.6,-1.3 1,-1.7 0.5,-0.3 1,-0.5 1.5,-0.5 0.1,0 0.2,0 0.3,0 0.1,0 0.2,0 0.3,0.1 0.4,0.1 0.7,0.3 1.1,0.6 0.4,0.3 0.7,0.7 1,1.1 l 0.4,0.9 0.1,1.3 c 0,0.8 -0.1,1.4 -0.2,2 0,0.3 -0.1,0.5 -0.1,0.6 0,0.2 -0.1,0.3 -0.1,0.4 v 12.3 l -1.1,-1 -0.8,-1.4 c -0.6,-0.7 -1.3,-1.1 -2.2,-1.1 -0.4,0 -0.9,0 -1.3,0 -0.5,0 -0.9,0 -1.3,0 H 222 c -0.2,0 -0.4,0 -0.6,0 -0.2,0 -0.4,0 -0.6,0 -0.4,0 -0.8,0 -1.2,-0.1 -0.4,-0.1 -0.8,-0.1 -1.2,-0.3 -0.4,-0.1 -0.7,-0.3 -1.1,-0.4 -0.3,-0.2 -0.6,-0.4 -0.8,-0.6 -0.2,-0.2 -0.4,-0.5 -0.6,-0.8 -0.2,-0.3 -0.3,-0.6 -0.5,-1 l -0.3,-1.1 -0.1,-1.1 c 0,-0.3 0,-0.5 0,-0.6 0,-0.2 0,-0.3 0.1,-0.4 0,-0.1 0,-0.2 0,-0.3 0,-0.1 0,-0.2 0,-0.3 0,-0.1 0,-0.3 0.1,-0.5 0.1,-0.2 0.1,-0.4 0.2,-0.5 0,-0.1 0.1,-0.1 0.1,-0.2 0,-0.1 0.1,-0.2 0.1,-0.3 0,-0.1 0.1,-0.2 0.1,-0.3 0,-0.1 0.1,-0.1 0.1,-0.2 l 1,1.1 -0.2,0.7 c 0,0.1 0,0.3 0,0.5 0,0.2 0,0.3 0,0.5 0,0.3 0,0.5 0,0.7 0,0.2 0.1,0.3 0.1,0.5 0.2,0.7 0.7,1.1 1.5,1.4 v 0 l 1.7,0.4 1.1,0.1 h 0.9 z" id="path56"></path>			<path class="st4" d="M 242.3,34.7 H 238 v 20 l -2.1,-2.4 V 38.1 c 0,-0.3 0,-0.6 -0.1,-0.8 -0.1,-0.4 -0.2,-0.8 -0.4,-1.1 -0.1,-0.2 -0.3,-0.4 -0.5,-0.6 -0.2,-0.2 -0.4,-0.4 -0.6,-0.5 -0.5,-0.3 -1,-0.5 -1.5,-0.5 h -0.5 L 230,32.2 h 1.2 0.7 0.5 c 0.8,0.1 1.4,0.2 1.7,0.3 0.2,0.1 0.3,0.2 0.5,0.3 0.1,0.1 0.2,0.2 0.3,0.3 v 0 c 0.4,0.3 0.8,1 1.2,1.9 l 0.1,0.2 -0.3,-2.1 -0.1,-2.3 V 30 c 0,-0.1 0,-0.3 -0.1,-0.6 0,-0.3 -0.1,-0.5 -0.1,-0.8 l 1.2,1.1 0.2,1.1 0.1,0.5 0.2,0.4 0.4,0.5 0.1,0.1 h 2.2 z" id="path58"></path>			<path class="st4" d="m 250.5,39.9 c -0.5,-0.4 -0.9,-0.9 -1.3,-1.4 -0.4,-0.5 -0.6,-1 -0.8,-1.5 l -0.3,0.6 -0.4,0.9 -0.8,1.4 c -0.3,0.4 -0.6,0.7 -1,0.9 -0.4,0.3 -0.7,0.4 -1,0.4 -0.2,0 -0.3,0 -0.4,-0.1 -0.1,0 -0.3,-0.1 -0.5,-0.1 -0.1,-0.1 -0.3,-0.2 -0.4,-0.3 -0.2,-0.1 -0.4,-0.3 -0.6,-0.5 l -0.8,-0.9 c -0.1,-0.2 -0.2,-0.4 -0.3,-0.5 -0.1,-0.2 -0.1,-0.3 -0.2,-0.5 l 0.5,-1.1 0.6,0.1 c 0.5,0.7 0.9,1 1.2,1 0.2,0 0.5,-0.1 0.8,-0.4 0.3,-0.3 0.6,-0.7 0.9,-1.3 0.2,-0.3 0.3,-0.6 0.4,-0.9 0.1,-0.3 0.1,-0.5 0.1,-0.7 0,-0.1 0,-0.2 -0.1,-0.3 -0.1,0 -0.2,-0.1 -0.4,-0.1 h -5 l -2,-2.4 h 25 v -0.5 c 0,-0.3 0,-0.5 -0.1,-0.7 -0.1,-0.2 -0.2,-0.4 -0.4,-0.5 v 0 C 262.7,30.2 262.1,30 261.3,30 h -1.5 -1.1 l -0.8,0.2 c -0.4,0 -0.6,0 -0.7,0.1 h -0.5 c -0.4,0 -0.8,0 -1.2,-0.1 -0.4,-0.1 -0.8,-0.1 -1.2,-0.3 -0.4,-0.1 -0.7,-0.3 -1.1,-0.5 -0.3,-0.2 -0.6,-0.4 -0.9,-0.7 -0.2,-0.2 -0.3,-0.3 -0.5,-0.6 -0.2,-0.2 -0.3,-0.5 -0.4,-0.7 -0.1,-0.3 -0.2,-0.5 -0.3,-0.8 -0.1,-0.3 -0.1,-0.5 -0.1,-0.7 0,-0.5 0.1,-0.9 0.2,-1.2 0,-0.1 0.1,-0.3 0.2,-0.4 0.1,-0.1 0.2,-0.2 0.2,-0.4 0.1,-0.3 0.6,-0.2 1.4,0.3 -0.4,0.4 -0.6,0.8 -0.6,1 0,0.1 0,0.2 0,0.2 0,0.1 0,0.2 0,0.2 0,0.1 0,0.1 0.1,0.2 0,0.1 0.1,0.1 0.1,0.2 l 0.7,0.6 0.6,0.3 0.8,0.2 c 0.2,0 0.3,0 0.5,0 0.2,0 0.3,0 0.5,0 l 1.2,-0.1 h 1.8 l 1.8,-0.1 c 1.3,0 2.3,0.3 3,0.8 v 0 c 0.4,0.3 0.8,0.6 1.1,1 0.4,0.4 0.7,0.9 0.9,1.5 0.1,0.3 0.2,0.6 0.2,0.9 0.1,0.3 0.1,0.5 0.1,0.7 0,0.1 0,0.1 0,0.2 0,0.1 0,0.1 0,0.2 h 2 l 1.4,2.4 h -12.4 c 0,2.1 0,4.1 0,6.2 0,2 0,4.1 0,6.1 0,0.3 0.1,0.5 0.3,0.8 v 0 c 0.2,0.2 0.5,0.3 0.8,0.3 0.5,0 1.1,-0.2 1.8,-0.7 0.7,-0.5 1.5,-1.3 2.3,-2.4 0.2,-0.3 0.4,-0.6 0.6,-0.9 0.1,-0.3 0.2,-0.7 0.3,-1 0,0 -0.1,0 -0.1,0 0,0 -0.1,0 -0.1,0 -0.6,0 -1.2,-0.2 -1.8,-0.6 -0.5,-0.4 -0.7,-1 -0.7,-1.7 l 0.1,-0.6 c 0.2,-0.8 0.6,-1.3 1,-1.7 0.5,-0.3 1,-0.5 1.5,-0.5 0.1,0 0.2,0 0.4,0 0.1,0 0.2,0 0.3,0.1 0.8,0.2 1.4,0.7 2,1.7 l 0.4,0.9 0.1,1.3 c 0,0.6 0,1.1 -0.1,1.6 -0.1,0.5 -0.2,0.9 -0.3,1.4 -0.2,0.4 -0.4,0.8 -0.6,1.2 -0.2,0.4 -0.5,0.8 -0.9,1.1 -0.6,0.6 -1.1,1.2 -1.7,1.7 -0.6,0.5 -1.1,0.9 -1.6,1.2 -0.5,0.3 -1,0.5 -1.6,0.7 l -0.9,0.1 H 258 c -0.3,0 -0.7,-0.2 -1.2,-0.5 v 0 c -0.1,-0.1 -0.3,-0.2 -0.5,-0.4 -0.2,-0.2 -0.3,-0.4 -0.5,-0.6 -0.2,-0.3 -0.4,-0.6 -0.6,-1 -0.2,-0.3 -0.3,-0.7 -0.4,-1 l -0.1,-1.1 v -5.9 c -0.3,0.1 -0.6,0.3 -1.1,0.4 h -1.1 l -1,-0.3 c -0.3,-0.1 -0.5,-0.2 -0.7,-0.3 -0.1,-0.1 -0.3,-0.2 -0.3,-0.3 z m 4,-2.8 c 0,-0.1 0.1,-0.1 0.1,-0.2 v 0 l 0.1,-0.1 v -1 c 0,-0.1 -0.1,-0.2 -0.1,-0.3 0,-0.1 -0.1,-0.2 -0.1,-0.3 -0.1,-0.2 -0.3,-0.3 -0.4,-0.4 -0.2,-0.1 -0.4,-0.1 -0.5,-0.1 h -4 c 0,0.1 0,0.3 0.1,0.4 l 0.4,0.8 c 0.6,1.3 1.5,2 2.7,2 h 0.3 c 0.1,0 0.2,0 0.4,-0.1 0.1,0 0.3,-0.1 0.4,-0.1 0.1,-0.1 0.3,-0.1 0.4,-0.2 0,-0.1 0.1,-0.2 0.2,-0.4 z m 0.1,-1.3 z m 0.1,0.1 c 0,0 0,0 0,0 z" id="path60"></path>		</g>		<g id="g102">			<path class="st0" d="m 129.2,80.3 h -0.1 C 129,80.2 129,80 128.9,79.9 c -0.1,-0.1 -0.2,-0.3 -0.3,-0.4 l -0.7,-0.7 v 0 l -0.7,-0.5 c -0.1,0.1 -0.1,0.2 -0.2,0.3 -0.1,0.1 -0.2,0.2 -0.3,0.3 -0.1,0 -0.1,0.1 -0.2,0.1 -0.1,0 -0.1,0.1 -0.2,0.1 h -0.4 c -0.2,0 -0.4,0 -0.4,-0.1 l -0.4,-0.2 c -0.1,0 -0.1,-0.1 -0.1,-0.1 0,0 -0.1,-0.1 -0.1,-0.1 -0.1,-0.1 -0.1,-0.2 -0.1,-0.3 v -0.2 c 0,-0.1 0,-0.1 0,-0.2 0,-0.1 0.1,-0.1 0.1,-0.2 l 0.2,-0.3 c 0.2,-0.2 0.4,-0.3 0.6,-0.4 h 0.2 0.2 c 0.2,0 0.4,0 0.5,0.1 l 0.2,0.1 v -3.3 l -0.1,-0.3 c 0,-0.1 -0.1,-0.1 -0.1,-0.2 0,-0.1 -0.1,-0.2 -0.1,-0.2 v 0 c -0.1,-0.1 -0.2,-0.2 -0.3,-0.2 -0.1,0 -0.1,0 -0.2,0 0,0 -0.1,0 -0.1,0.1 0,0 -0.1,0.1 -0.1,0.1 0,0.1 -0.1,0.1 -0.2,0.2 l -0.9,1.3 c -0.2,0.3 -0.3,0.4 -0.5,0.4 h -0.3 -0.2 c 0,0 -0.1,0 -0.1,0 0,0 -0.1,0 -0.1,0 L 123.3,75 c -0.1,0 -0.1,-0.1 -0.2,-0.1 -0.1,-0.1 -0.1,-0.2 -0.2,-0.3 l -0.3,-0.5 -0.1,-0.3 -0.1,-0.3 0.6,-0.6 c 0,0.1 0,0.2 0,0.3 0,0.1 0.1,0.2 0.1,0.3 v 0 l 0.2,0.3 c 0,0 0.1,0 0.1,0.1 0,0 0.1,0 0.1,0 0.1,0 0.2,-0.1 0.3,-0.2 v 0 l 0.3,-0.4 0.5,-0.8 -0.1,-0.4 c 0,0 0,-0.1 0,-0.1 0,0 0,-0.1 0,-0.1 0,-0.1 -0.1,-0.2 -0.2,-0.3 -0.1,-0.1 -0.1,-0.2 -0.2,-0.3 -0.1,0 -0.1,0 -0.2,-0.1 -0.1,0 -0.1,0 -0.2,-0.1 v 0 c -0.1,0 -0.2,0 -0.3,-0.1 -0.1,0 -0.1,0 -0.2,0 -0.2,0 -0.3,0 -0.4,0 -0.1,0 -0.2,0 -0.3,-0.1 -0.1,0 -0.1,-0.1 -0.2,-0.1 0,0 -0.1,-0.1 -0.2,-0.1 l -0.2,-0.3 -0.2,-0.1 -0.7,-0.8 h 7.2 l 0.8,0.9 h -1.6 v 7 l 0.2,0.1 v 0 c 0,0 0.1,0 0.1,0.1 0,0 0.1,0.1 0.1,0.1 l 0.2,0.3 0.7,0.7 c 0,0 0,0 0,0 0,0 0,0 0,0.1 0,0 0,0.1 0.1,0.1 0,0 0.1,0.1 0.1,0.2 0,0.1 0.1,0.1 0.1,0.2 0,0.1 0.1,0.2 0.1,0.2 v 0.4 0.4 z m -2.5,-9.7 h -2.5 c 0,0 0.1,0.1 0.1,0.1 0,0 0.1,0.1 0.1,0.1 0.1,0.1 0.1,0.1 0.2,0.2 0.1,0.1 0.1,0.2 0.2,0.3 0.1,0.3 0.1,0.5 0.1,0.7 0,0 0,0.1 0,0.1 0,0 0,0 0,0 0,0 0,0 0,0 0,0 0,0 0,0 L 125,72 v 0 c 0.1,-0.1 0.2,-0.2 0.3,-0.2 0.1,-0.1 0.1,-0.1 0.2,-0.1 h 0.2 c 0.1,0 0.1,0 0.2,0 0.1,0 0.1,0 0.1,0 0,0 0.1,0.1 0.1,0.1 0,0 0.1,0.1 0.2,0.1 l 0.4,0.5 z m -0.4,7.2 -0.3,-0.1 c -0.1,0 -0.3,0 -0.4,0.1 -0.1,0.1 -0.2,0.2 -0.2,0.3 v 0.1 c 0,0.1 0.1,0.1 0.3,0.1 0.1,0 0.2,0 0.3,-0.1 0.1,0 0.2,-0.1 0.3,-0.2 l 0.2,-0.2 v 0 z" id="path64"></path>			<path class="st0" d="m 132.7,74.1 c 0,-0.1 -0.1,-0.3 -0.2,-0.4 l -0.2,-0.5 c 0,-0.1 -0.1,-0.1 -0.1,-0.2 0,-0.1 -0.1,-0.1 -0.1,-0.2 l -0.4,-0.4 c -0.4,-0.3 -0.7,-0.5 -1,-0.5 v 0 c 0.1,0.2 0.2,0.3 0.2,0.4 0,0.1 0.1,0.3 0.1,0.4 0,0.1 0,0.1 0,0.2 0,0 0,0.1 0,0.1 0,0.1 0,0.1 -0.1,0.3 -0.2,0.3 -0.4,0.5 -0.9,0.5 -0.1,0 -0.1,0 -0.2,0 0,0 -0.1,0 -0.1,0 v 0 c -0.1,0 -0.2,0 -0.3,-0.1 -0.1,0 -0.2,-0.1 -0.3,-0.2 -0.1,-0.1 -0.1,-0.2 -0.2,-0.3 -0.1,-0.1 -0.1,-0.3 -0.1,-0.4 v -0.3 c 0,-0.2 0,-0.5 0.1,-0.7 0.1,-0.2 0.2,-0.4 0.4,-0.5 0.1,-0.1 0.3,-0.2 0.5,-0.3 0.2,-0.1 0.4,-0.1 0.6,-0.1 h 0.3 c 0.1,0 0.2,0 0.3,0.1 v 0 c 0.1,0 0.2,0.1 0.2,0.1 0.1,0 0.2,0.1 0.3,0.2 0.1,0.1 0.3,0.2 0.4,0.3 0.1,0.1 0.2,0.3 0.4,0.5 0.1,0.1 0.1,0.2 0.2,0.3 0,0.1 0.1,0.1 0.1,0.2 0,0 0,0.1 0.1,0.1 0,0 0,0 0,0.1 v -2.1 h -4.3 l -0.8,-0.9 h 6.6 l 0.8,0.9 h -1.4 v 8.1 L 133.1,78.3 133,78 v 0 -0.1 c 0,0 0,0 0,0 0,0 0,0 0,-0.1 l -0.1,-0.2 -0.2,-0.5 -0.4,-0.6 -0.1,-0.2 c 0,-0.1 -0.1,-0.1 -0.1,-0.2 l -0.4,-0.4 c -0.2,-0.2 -0.3,-0.3 -0.5,-0.3 -0.2,-0.1 -0.3,-0.1 -0.5,-0.1 v 0 c 0.1,0.1 0.2,0.3 0.2,0.4 0,0.1 0.1,0.3 0.1,0.4 0,0.1 0,0.1 0,0.2 0,0 0,0.1 0,0.1 0,0.1 0,0.1 -0.1,0.3 -0.1,0.2 -0.2,0.3 -0.4,0.4 -0.2,0.1 -0.3,0.1 -0.5,0.1 -0.1,0 -0.1,0 -0.1,0 0,0 -0.1,0 -0.1,0 -0.3,0 -0.5,-0.1 -0.7,-0.3 -0.1,-0.2 -0.2,-0.4 -0.3,-0.6 v -0.4 c 0,-0.2 0,-0.5 0.1,-0.7 0.1,-0.2 0.2,-0.4 0.4,-0.5 0.1,-0.1 0.3,-0.3 0.5,-0.3 0.2,-0.1 0.4,-0.1 0.6,-0.1 h 0.3 v 0 c 0.1,0 0.2,0 0.3,0.1 v 0 c 0.2,0 0.3,0.1 0.5,0.3 0.1,0.1 0.2,0.2 0.4,0.4 0.1,0.1 0.3,0.3 0.4,0.5 0.1,0.1 0.2,0.3 0.2,0.4 0.1,0.1 0.1,0.2 0.2,0.3 z" id="path66"></path>			<path class="st0" d="m 137.6,70.6 h -1.5 v 7.3 L 135.3,77 v -5.2 c 0,-0.1 0,-0.2 0,-0.3 0,-0.2 -0.1,-0.3 -0.1,-0.4 -0.1,-0.1 -0.1,-0.1 -0.2,-0.2 -0.1,-0.1 -0.1,-0.1 -0.2,-0.2 -0.2,-0.1 -0.4,-0.2 -0.5,-0.2 h -0.2 l -0.8,-0.9 h 0.4 0.3 0.2 c 0.3,0 0.5,0.1 0.6,0.1 0.1,0 0.1,0.1 0.2,0.1 0,0 0.1,0.1 0.1,0.1 v 0 c 0.1,0.1 0.3,0.3 0.4,0.7 v 0.1 l -0.1,-0.8 V 69.1 69 c 0,0 0,-0.1 0,-0.2 0,-0.1 0,-0.2 -0.1,-0.3 l 0.5,0.4 0.1,0.4 v 0.2 l 0.1,0.1 0.1,0.2 v 0.1 h 0.8 z" id="path68"></path>			<path class="st0" d="m 140.4,70.9 c -0.2,0.1 -0.4,0.2 -0.5,0.3 -0.1,0.1 -0.3,0.2 -0.3,0.2 -0.2,0.2 -0.4,0.4 -0.5,0.6 -0.2,0.2 -0.3,0.5 -0.4,0.8 v 0 l -0.2,0.8 c 0,0.1 0,0.2 0,0.3 0,0.1 0,0.2 0,0.3 v 0 0.5 0.5 c 0,0.1 0,0.2 0.1,0.3 0,0.1 0.1,0.2 0.1,0.3 0,0.1 0.1,0.2 0.1,0.3 0,0.1 0.1,0.2 0.2,0.2 v 0 c 0.1,0.1 0.1,0.1 0.2,0.2 0.1,0.1 0.2,0.2 0.3,0.2 v 0 c 0.1,0 0.1,0 0.2,0 v 0 0 c -0.1,-0.1 -0.2,-0.3 -0.2,-0.5 V 76 c 0,-0.1 0.1,-0.3 0.1,-0.4 0.1,-0.1 0.2,-0.2 0.3,-0.3 l 0.3,-0.1 c 0.1,0 0.1,0 0.1,0 0,0 0.1,0 0.1,0 0,0 0.1,0 0.1,0 0,0 0.1,0 0.1,0 0.1,0 0.1,0.1 0.2,0.1 0.1,0.1 0.1,0.1 0.1,0.2 0,0.1 0.1,0.2 0.1,0.2 0,0.1 0,0.2 0,0.3 0,0.1 0,0.2 0,0.3 0,0.1 -0.1,0.2 -0.1,0.3 -0.1,0.1 -0.1,0.2 -0.2,0.3 -0.1,0.1 -0.2,0.2 -0.4,0.2 -0.1,0 -0.2,0.1 -0.3,0.1 -0.1,0 -0.2,0 -0.2,0 -0.2,0 -0.4,0 -0.6,-0.1 C 139,77 138.9,77 138.7,76.8 v 0 c -0.2,-0.2 -0.4,-0.4 -0.6,-0.7 -0.2,-0.3 -0.3,-0.6 -0.4,-0.9 -0.1,-0.3 -0.1,-0.5 -0.2,-0.8 0,-0.2 -0.1,-0.5 -0.1,-0.8 v -0.4 -0.5 0 c 0,-0.2 0.1,-0.5 0.3,-1 0.2,-0.4 0.5,-0.9 0.9,-1.4 H 137 l -0.8,-0.9 h 4.4 l 0.7,0.8 z" id="path70"></path>			<path class="st0" d="m 141,70.6 -0.8,-0.9 h 7.7 l 0.9,0.9 z m 6.7,3.4 c 0,0.2 0,0.5 -0.1,0.7 -0.1,0.2 -0.1,0.4 -0.2,0.6 -0.1,0.2 -0.2,0.3 -0.3,0.5 -0.1,0.1 -0.3,0.3 -0.4,0.4 l -0.5,0.3 -0.3,0.1 c -0.1,0 -0.3,0 -0.7,0 -0.3,0 -0.6,-0.1 -1,-0.2 -0.1,-0.1 -0.2,-0.1 -0.3,-0.2 -0.1,-0.1 -0.2,-0.1 -0.3,-0.2 l -0.2,-0.3 -0.4,-0.6 -0.5,-0.8 -0.2,-0.3 -0.1,-0.3 -0.6,-1.6 c -0.1,-0.2 -0.2,-0.7 -0.3,-1.3 l 0.5,0.2 0.3,0.8 0.5,1.2 0.5,0.8 v 0 l 0.4,0.5 c 0.1,0.2 0.3,0.4 0.4,0.5 l 0.4,0.3 0.4,0.1 0.4,0.1 h 0.4 l 0.3,-0.1 v 0 c 0.1,0 0.2,-0.1 0.3,-0.2 0.1,-0.1 0.3,-0.2 0.4,-0.3 0,0 0.1,-0.1 0.1,-0.1 0,-0.1 0.1,-0.1 0.1,-0.2 v 0 l 0.2,-0.3 c 0,-0.1 0.1,-0.2 0.1,-0.3 0,-0.1 0,-0.2 0,-0.3 v -0.1 c 0,-0.1 0,-0.1 0,-0.2 0,-0.1 0,-0.2 -0.1,-0.3 0,-0.1 -0.1,-0.1 -0.1,-0.2 -0.1,-0.1 -0.1,-0.1 -0.2,-0.2 l -0.2,-0.1 -0.2,-0.2 c 0,0 -0.1,0 -0.1,0 0,0 -0.1,0 -0.1,0 -0.1,0 -0.2,0 -0.3,0 0.1,0.2 0.2,0.5 0.2,0.7 0,0.2 -0.1,0.5 -0.2,0.6 -0.1,0.2 -0.3,0.3 -0.6,0.4 h -0.2 -0.2 c -0.2,0 -0.3,0 -0.4,-0.1 -0.1,-0.1 -0.3,-0.2 -0.4,-0.3 -0.1,-0.2 -0.2,-0.4 -0.3,-0.7 v -0.3 c 0,-0.3 0.1,-0.5 0.2,-0.8 l 0.2,-0.3 c 0.1,-0.2 0.3,-0.3 0.5,-0.4 0.2,-0.1 0.4,-0.1 0.6,-0.1 h 0.3 l 0.3,0.1 c 0.5,0.1 1,0.5 1.3,1 l 0.3,0.6 0.2,0.4 c 0.2,0.5 0.2,0.7 0.2,1 z" id="path72"></path>			<path class="st0" d="m 154.6,70.6 v 1.9 c 0,0.1 0,0.1 0,0.2 0,0.1 0,0.1 0,0.2 0,0 0,0 0.1,0.1 0,0 0,0 0.1,0.1 h 0.1 c 0.1,0 0.3,-0.2 0.5,-0.6 v 0 c 0.1,-0.2 0.3,-0.4 0.4,-0.5 0.1,-0.1 0.2,-0.2 0.3,-0.2 h 0.2 c 0.1,0 0.1,0.1 0.2,0.1 0.1,0 0.1,0.1 0.2,0.2 l 0.3,0.5 c 0.1,0.2 0.2,0.4 0.3,0.6 0.1,0.2 0.1,0.5 0.1,0.7 0,0.2 0,0.4 0,0.6 0,0.2 -0.1,0.4 -0.2,0.7 v 0 c -0.1,0.2 -0.2,0.4 -0.3,0.6 -0.1,0.2 -0.3,0.3 -0.5,0.5 -0.2,0.1 -0.4,0.2 -0.6,0.3 -0.2,0.1 -0.5,0.1 -0.8,0.1 h -0.2 -0.1 c -0.3,0 -0.6,-0.1 -0.9,-0.2 -0.3,-0.1 -0.5,-0.3 -0.7,-0.6 0,0 -0.1,-0.1 -0.1,-0.2 0,-0.1 -0.1,-0.2 -0.2,-0.3 l -0.5,-0.9 -0.1,-0.4 -0.2,-0.7 c 0,-0.1 -0.1,-0.3 -0.1,-0.6 0,-0.2 -0.1,-0.6 -0.2,-0.9 l -0.1,-1.2 0.6,0.3 c 0,0.2 0,0.4 0,0.6 0,0.2 0.1,0.4 0.1,0.7 v 0 c 0.1,0.1 0.1,0.3 0.2,0.4 0.1,0.2 0.1,0.3 0.2,0.4 0.1,0.4 0.3,0.7 0.5,1 l 0.5,0.6 c 0.1,0.1 0.2,0.1 0.3,0.2 0.1,0.1 0.3,0.1 0.4,0.2 v 0 c 0.2,0.1 0.4,0.1 0.5,0.1 0.1,0 0.3,0 0.5,-0.1 0.2,0 0.3,-0.1 0.4,-0.2 0.1,-0.1 0.2,-0.2 0.3,-0.3 0.1,-0.1 0.2,-0.2 0.2,-0.3 l 0.2,-0.4 v 0 c 0,-0.1 0,-0.1 0,-0.2 0,-0.1 0,-0.1 0,-0.2 v 0 -0.1 c 0,0 0,-0.1 0,-0.1 0,-0.1 0,-0.1 0,-0.2 0,-0.1 0,-0.1 -0.1,-0.2 0,-0.1 -0.1,-0.1 -0.1,-0.2 0,0.1 -0.1,0.1 -0.2,0.2 -0.1,0.1 -0.2,0.2 -0.3,0.3 -0.1,0 -0.1,0.1 -0.1,0.1 -0.1,0 -0.1,0.1 -0.1,0.1 l -0.3,0.2 c -0.3,0.2 -0.6,0.3 -0.8,0.3 -0.1,0 -0.3,0 -0.4,-0.1 -0.1,0 -0.2,-0.1 -0.3,-0.2 -0.1,-0.2 -0.2,-0.4 -0.3,-0.7 v -0.2 -2.5 h -2.6 l -0.8,-0.9 h 5.2 l 0.5,-0.2 0.1,-0.1 c 0,-0.1 0,-0.1 -0.1,-0.2 -0.1,-0.1 -0.1,-0.1 -0.2,-0.1 -0.1,0 -0.2,-0.1 -0.3,-0.1 -0.1,0 -0.2,0 -0.4,0 h -0.5 -0.4 l -0.3,0.1 c -0.1,0 -0.2,0 -0.3,0 h -0.2 c -0.3,0 -0.6,0 -0.8,-0.1 -0.3,-0.1 -0.5,-0.2 -0.7,-0.4 -0.1,-0.1 -0.2,-0.2 -0.2,-0.2 -0.1,-0.1 -0.1,-0.2 -0.2,-0.3 l -0.1,-0.3 v -0.3 c 0,-0.1 0,-0.2 0,-0.3 0,-0.1 0.1,-0.2 0.1,-0.3 0,-0.1 0.1,-0.1 0.1,-0.2 0,0 0.1,-0.1 0.1,-0.1 l 0.4,0.2 c -0.1,0.1 -0.1,0.1 -0.2,0.1 0,0 -0.1,0.1 -0.1,0.1 l -0.1,0.2 c 0,0.1 0,0.2 0.1,0.3 0.1,0.1 0.2,0.2 0.3,0.2 v 0 c 0.1,0 0.2,0.1 0.2,0.1 0.1,0 0.1,0 0.2,0 h 0.5 0.7 c 0.1,0 0.2,0 0.3,0 0.1,0 0.2,0 0.3,0 h 0.5 c 0.2,0 0.4,0 0.6,0.1 v 0 c 0.2,0 0.4,0.1 0.5,0.2 v 0 c 0.4,0.2 0.6,0.5 0.8,1 l 0.1,0.3 v 0.3 h 0.8 l 0.8,0.9 h -3.6 z" id="path74"></path>			<path class="st0" d="M 163.1,74.4 163,74.3 162.8,74 162.7,73.7 c 0,-0.1 0,-0.3 0,-0.5 0,-0.3 0,-0.5 0,-0.6 l 0.1,-0.4 -0.3,0.2 v 0 l -0.5,0.4 -0.4,0.4 c -0.1,0 -0.1,0.1 -0.2,0.2 -0.1,0.1 -0.1,0.2 -0.2,0.3 l -0.7,-0.8 V 70.7 H 158 l -0.8,-0.9 h 8 l 0.7,0.9 h -4.6 v 1.5 l 0.3,-0.3 0.4,-0.3 0.3,-0.2 0.5,-0.3 1.1,0.9 -0.3,0.4 c 0,0 0,0.1 0,0.1 0,0 0,0.1 0,0.1 0,0 0,0.1 0,0.1 0,0 0,0.1 0,0.1 v 0 l -0.2,0.5 v 0.7 0 0.1 c 0,0 0,0 0.1,-0.1 l 0.2,-0.3 c 0,-0.1 0.1,-0.1 0.1,-0.2 0,-0.1 0.1,-0.1 0.1,-0.2 l 0.2,-0.3 0.4,0.3 c 0.4,0.5 0.6,1.1 0.6,1.7 0,0.3 0,0.5 -0.1,0.7 0,0.2 -0.1,0.4 -0.2,0.7 -0.1,0.3 -0.3,0.6 -0.6,0.8 l -0.5,0.3 -0.3,0.1 -0.3,0.1 -0.3,0.1 h -0.3 c -0.2,0 -0.4,0 -0.6,0 -0.1,0 -0.2,0 -0.3,-0.1 -0.1,0 -0.2,-0.1 -0.3,-0.1 -0.3,-0.1 -0.5,-0.3 -0.8,-0.5 -0.2,-0.2 -0.4,-0.4 -0.6,-0.7 l -0.4,-0.7 -0.2,-0.4 -0.2,-0.4 C 159,74.8 159,74.6 158.9,74.3 l -0.3,-0.8 -0.2,-0.7 -0.1,-0.8 v 0 l -0.2,-1.1 0.6,0.4 v 0.1 c 0,0.1 0,0.2 0.1,0.4 0,0.1 0.1,0.3 0.1,0.5 0.1,0.2 0.1,0.4 0.2,0.6 0.1,0.2 0.1,0.4 0.2,0.6 0.1,0.4 0.3,0.7 0.4,0.9 0.1,0.2 0.2,0.4 0.2,0.5 v 0 c 0,0 0.1,0.1 0.1,0.1 0,0.1 0.1,0.1 0.1,0.2 l 0.3,0.5 c 0.2,0.3 0.4,0.5 0.6,0.6 0,0 0.1,0 0.1,0.1 0,0 0.1,0.1 0.1,0.1 0,0 0.1,0 0.1,0.1 0.1,0 0.1,0.1 0.1,0.1 0.3,0.1 0.5,0.2 0.8,0.2 h 0.3 c 0.1,0 0.2,0 0.4,-0.1 0.1,0 0.2,-0.1 0.3,-0.1 0.1,0 0.2,-0.1 0.3,-0.2 v 0 c 0.1,-0.1 0.2,-0.2 0.3,-0.3 0.1,-0.1 0.2,-0.3 0.2,-0.4 v 0 l 0.1,-0.5 v 0 -0.4 -0.2 L 164,74.3 c 0,0 0,0.1 -0.1,0.1 0,0 0,0.1 -0.1,0.1 0,0.1 -0.1,0.1 -0.1,0.1 0,0 -0.1,0.1 -0.1,0.1 l -0.4,0.4 c -0.2,0.2 -0.4,0.3 -0.6,0.4 -0.2,0.1 -0.4,0.1 -0.7,0.1 h -0.3 l -0.2,-0.1 v 0 c -0.1,0 -0.1,0 -0.2,-0.1 -0.1,0 -0.2,-0.1 -0.2,-0.2 v 0 c -0.3,-0.3 -0.5,-0.6 -0.5,-1 0,-0.3 0.1,-0.6 0.4,-0.8 v 0 c 0,0 0.1,-0.1 0.1,-0.1 0.1,0 0.1,0 0.2,-0.1 h 0.2 c 0.1,0 0.2,0 0.2,0 v 0 c 0,0 0.1,0 0.1,0 0,0 0.1,0 0.1,0 0.3,0.1 0.4,0.4 0.4,0.7 0,0.1 0,0.1 0,0.2 0,0.1 -0.1,0.1 -0.1,0.2 h 0.2 l 0.2,-0.1 v 0 z" id="path76"></path>			<path class="st0" d="m 168.7,70.6 h -1.5 v 7.3 L 166.4,77 v -5.2 c 0,-0.1 0,-0.2 0,-0.3 0,-0.2 -0.1,-0.3 -0.1,-0.4 -0.1,-0.1 -0.1,-0.1 -0.2,-0.2 -0.1,-0.1 -0.1,-0.1 -0.2,-0.2 -0.2,-0.1 -0.4,-0.2 -0.5,-0.2 h -0.2 l -0.8,-0.9 h 0.4 0.3 0.2 c 0.3,0 0.5,0.1 0.6,0.1 0.1,0 0.1,0.1 0.2,0.1 0,0 0.1,0.1 0.1,0.1 v 0 c 0.1,0.1 0.3,0.3 0.4,0.7 v 0.1 l -0.1,-0.8 V 69.1 69 c 0,0 0,-0.1 0,-0.2 0,-0.1 0,-0.2 -0.1,-0.3 l 0.5,0.4 0.1,0.4 v 0.2 l 0.1,0.1 0.1,0.2 v 0.1 h 0.8 z" id="path78"></path>			<path class="st0" d="m 173.7,68.3 c -0.1,-0.1 -0.2,-0.2 -0.4,-0.3 -0.1,-0.1 -0.3,-0.2 -0.5,-0.2 -0.4,-0.1 -0.6,-0.2 -0.8,-0.2 v 0 h -0.5 c -0.2,0 -0.4,0 -0.6,0.1 -0.1,0 -0.2,0 -0.3,0.1 -0.1,0 -0.2,0.1 -0.3,0.2 -0.2,0.1 -0.3,0.2 -0.3,0.2 l -0.3,0.4 v 0 l -0.3,0.5 v 0 c 0,0.1 -0.1,0.1 -0.1,0.2 0,0.1 0,0.1 0,0.2 0,0.1 0.1,0.2 0.1,0.2 0,0.1 0.1,0.2 0.1,0.3 h 1.1 l 0.7,0.9 h -1.6 V 78 L 169,77 v -6.4 h -0.9 l -0.8,-0.9 h 1.7 l -0.5,-0.5 v 0 c -0.1,-0.1 -0.1,-0.2 -0.1,-0.4 0,-0.2 0,-0.3 0.1,-0.4 v 0 l 0.1,-0.3 0.3,-0.6 c 0.1,-0.2 0.2,-0.3 0.2,-0.3 0.2,-0.2 0.5,-0.4 1,-0.6 0.2,-0.1 0.5,-0.2 0.9,-0.2 0.2,0 0.5,0 0.8,0.1 0.3,0.1 0.5,0.1 0.8,0.3 l 0.6,0.3 c 0.1,0 0.2,0.1 0.3,0.1 0.1,0 0.2,0.1 0.3,0.2 v 0 c 0.2,0.2 0.6,0.4 0.9,0.8 l 0.2,0.3 0.2,0.7 z" id="path80"></path>			<path class="st0" d="m 176.2,70.6 v 7.1 l -0.8,-0.9 v -3 l -0.1,-0.3 c 0,-0.1 -0.1,-0.1 -0.1,-0.2 0,-0.1 -0.1,-0.2 -0.1,-0.2 v 0 c -0.1,-0.1 -0.2,-0.2 -0.3,-0.2 -0.1,0 -0.1,0 -0.2,0 0,0 -0.1,0 -0.1,0.1 0,0 -0.1,0.1 -0.1,0.1 0,0.1 -0.1,0.1 -0.2,0.2 l -0.9,1.3 c -0.2,0.3 -0.3,0.4 -0.5,0.4 h -0.3 -0.2 c 0,0 -0.1,0 -0.1,0 0,0 -0.1,0 -0.1,0 H 172 c -0.1,0 -0.1,-0.1 -0.2,-0.1 -0.1,-0.1 -0.1,-0.2 -0.2,-0.3 l -0.3,-0.5 -0.1,-0.3 -0.1,-0.3 0.6,-0.6 c 0,0.1 0,0.2 0,0.3 0,0.1 0.1,0.2 0.1,0.3 v 0 l 0.2,0.3 c 0,0 0.1,0 0.1,0.1 0,0 0.1,0 0.1,0 0.1,0 0.2,-0.1 0.3,-0.2 v 0 l 0.3,-0.4 0.5,-0.8 v -0.4 c 0,0 0,-0.1 0,-0.1 0,0 0,-0.1 0,-0.1 0,-0.1 -0.1,-0.2 -0.2,-0.3 -0.1,-0.1 -0.1,-0.2 -0.2,-0.3 -0.1,0 -0.1,0 -0.2,-0.1 -0.1,0 -0.1,0 -0.2,-0.1 v 0 c -0.1,0 -0.2,0 -0.3,-0.1 -0.1,0 -0.1,0 -0.2,0 -0.2,0 -0.3,0 -0.4,0 -0.1,0 -0.2,0 -0.3,-0.1 -0.1,0 -0.1,-0.1 -0.2,-0.1 0,0 -0.1,-0.1 -0.2,-0.1 l -0.2,-0.3 -0.2,-0.1 -0.7,-0.8 h 7.1 l 0.8,0.9 h -1.5 z m -0.7,0 H 173 c 0,0 0.1,0.1 0.1,0.1 0,0 0.1,0.1 0.1,0.1 0.1,0.1 0.1,0.1 0.2,0.2 0.1,0.1 0.1,0.2 0.2,0.3 0.1,0.3 0.1,0.5 0.1,0.7 v 0.1 0 0 0 l 0.1,-0.1 v 0 c 0.2,-0.2 0.3,-0.3 0.5,-0.3 h 0.2 c 0.1,0 0.1,0 0.2,0 0.1,0 0.1,0 0.1,0 0,0 0.1,0.1 0.1,0.1 0,0 0.1,0.1 0.2,0.1 l 0.4,0.5 z" id="path82"></path>			<path class="st0" d="m 177.4,70.6 -0.8,-0.9 h 7.7 l 0.8,0.9 z m 6.8,3.4 c 0,0.2 0,0.5 -0.1,0.7 -0.1,0.2 -0.1,0.4 -0.2,0.6 -0.1,0.2 -0.2,0.3 -0.3,0.5 -0.1,0.1 -0.3,0.3 -0.4,0.4 l -0.5,0.3 -0.3,0.1 c -0.1,0 -0.3,0 -0.7,0 -0.3,0 -0.6,-0.1 -1,-0.2 -0.1,-0.1 -0.2,-0.1 -0.3,-0.2 -0.1,-0.1 -0.2,-0.1 -0.3,-0.2 l -0.2,-0.3 -0.4,-0.6 -0.5,-0.8 -0.2,-0.3 -0.1,-0.3 -0.6,-1.6 c -0.1,-0.2 -0.2,-0.7 -0.3,-1.3 l 0.5,0.2 0.3,0.8 0.4,1.2 0.5,0.8 v 0 l 0.4,0.5 c 0.1,0.2 0.3,0.4 0.4,0.5 l 0.4,0.3 0.4,0.1 0.4,0.1 h 0.4 l 0.3,-0.1 v 0 c 0.1,0 0.2,-0.1 0.3,-0.2 0.1,-0.1 0.3,-0.2 0.4,-0.3 0,0 0.1,-0.1 0.1,-0.1 0,-0.1 0.1,-0.1 0.1,-0.2 v 0 l 0.2,-0.3 c 0,-0.1 0.1,-0.2 0.1,-0.3 0,-0.1 0,-0.2 0,-0.3 v -0.1 c 0,-0.1 0,-0.1 0,-0.2 0,-0.1 0,-0.2 -0.1,-0.3 0,-0.1 -0.1,-0.1 -0.1,-0.2 -0.1,-0.1 -0.1,-0.1 -0.2,-0.2 l -0.2,-0.1 -0.2,-0.2 c 0,0 -0.1,0 -0.1,0 0,0 -0.1,0 -0.1,0 -0.1,0 -0.2,0 -0.3,0 0.1,0.2 0.2,0.5 0.2,0.7 0,0.2 -0.1,0.5 -0.2,0.6 -0.1,0.2 -0.3,0.3 -0.6,0.4 h -0.2 -0.2 c -0.2,0 -0.3,0 -0.4,-0.1 -0.1,-0.1 -0.3,-0.2 -0.4,-0.3 -0.1,-0.2 -0.2,-0.4 -0.3,-0.7 v -0.3 c 0,-0.3 0.1,-0.5 0.2,-0.8 l 0.2,-0.3 c 0.1,-0.2 0.3,-0.3 0.5,-0.4 0.2,-0.1 0.4,-0.1 0.6,-0.1 h 0.3 l 0.3,0.1 c 0.5,0.1 1,0.5 1.3,1 l 0.3,0.6 0.2,0.4 c 0.2,0.5 0.3,0.7 0.3,1 z" id="path84"></path>			<path class="st0" d="m 192.2,70.6 -0.3,0.2 c 0,0.2 0.1,0.4 0.3,0.6 l 0.4,0.1 c 0.1,0 0.1,0 0.2,0 0.1,0 0.2,0 0.2,0 0,0 0.1,0 0.1,0 0,0 0.1,0 0.1,0 h 0.2 c 0,0 0.1,0 0.3,-0.1 l 0.7,-0.2 0.6,0.7 v 0 l 0.4,0.5 c -0.1,0.1 -0.2,0.2 -0.3,0.4 -0.1,0.1 -0.2,0.3 -0.3,0.5 v 0 c -0.3,0.5 -0.4,1 -0.4,1.4 l -0.1,0.5 v 0.3 c 0,0.3 0,0.6 0.1,0.9 0.1,0.3 0.2,0.7 0.4,1.1 -0.1,0 -0.2,0 -0.3,0 -0.1,0 -0.1,0 -0.2,0 v 0 c -0.2,-0.1 -0.3,-0.1 -0.4,-0.2 l -0.4,-1.7 -0.1,-0.6 v -0.5 c 0,-0.3 0.1,-0.7 0.2,-1.2 v 0 c 0,-0.1 0.1,-0.3 0.1,-0.4 0,-0.1 0.1,-0.3 0.1,-0.4 0,0 0,0 0,0 0,0 0,0 0,0 0,0 -0.1,0 -0.2,0 -0.1,0 -0.1,0 -0.2,0 -0.2,0 -0.4,0 -0.6,-0.1 -0.2,0 -0.4,-0.1 -0.6,-0.2 -0.2,-0.1 -0.3,-0.2 -0.5,-0.3 -0.2,-0.1 -0.3,-0.2 -0.4,-0.3 l -0.4,-0.5 c 0,0 -0.2,0.1 -0.4,0.4 v 0 c -0.1,0.2 -0.2,0.3 -0.3,0.5 -0.1,0.2 -0.2,0.3 -0.2,0.5 0,0 0,0 0,0 0,0 0,0 0,0 v 0.1 c 0,0.1 0,0.2 0.1,0.3 0.1,0.1 0.2,0.1 0.3,0.1 h 0.2 c 0.1,0 0.2,0 0.3,-0.1 l 0.5,-0.3 0.2,-0.1 c 0.1,0 0.2,-0.1 0.2,0 0,0 0.1,0 0.1,0 0,0 0.1,0.1 0.1,0.1 l 0.2,0.3 v 0 c 0.1,0.1 0.1,0.2 0.2,0.3 0.1,0.1 0.1,0.3 0.2,0.5 0.1,0.2 0.1,0.3 0.1,0.5 0,0.1 0,0.3 0,0.4 0,0.2 0,0.3 -0.1,0.4 0,0.2 -0.1,0.4 -0.2,0.5 -0.1,0.1 -0.1,0.3 -0.2,0.4 -0.1,0.1 -0.2,0.1 -0.3,0.2 -0.1,0.1 -0.2,0.1 -0.4,0.2 -0.1,0 -0.2,0.1 -0.4,0.1 -0.1,0 -0.3,0.1 -0.4,0.1 -0.4,0 -0.7,-0.1 -1.1,-0.3 -0.2,-0.1 -0.3,-0.2 -0.5,-0.4 -0.1,-0.1 -0.3,-0.3 -0.4,-0.5 -0.1,-0.1 -0.2,-0.3 -0.2,-0.4 -0.1,-0.1 -0.2,-0.3 -0.2,-0.5 l -0.2,-0.6 C 188,73.6 188,73.4 188,73.2 c 0,-0.2 -0.1,-0.4 -0.1,-0.7 v -0.6 -0.5 -0.1 -0.2 l 0.4,0.3 0.1,0.1 c 0.1,0.1 0.1,0.3 0.1,0.4 v 0.3 c 0,0.2 0,0.4 0,0.5 l 0.2,0.8 v 0 c 0,0.1 0.1,0.2 0.1,0.3 0,0.1 0.1,0.2 0.2,0.3 0.1,0.1 0.1,0.2 0.2,0.3 0.1,0.1 0.1,0.2 0.2,0.2 0.2,0.2 0.3,0.3 0.4,0.4 0.1,0.1 0.2,0.2 0.3,0.2 0.1,0 0.2,0.1 0.3,0.1 0.1,0 0.2,0 0.3,0 0,0 0,0 0,0 0,0 0,0 0,0 0.2,0 0.3,0 0.5,-0.1 0.2,0 0.3,-0.1 0.5,-0.2 0.3,-0.2 0.4,-0.4 0.4,-0.6 0,-0.1 0,-0.2 -0.1,-0.3 0,0 0,-0.1 -0.1,-0.1 0,0 -0.1,0 -0.1,-0.1 h -0.1 v 0 l -0.6,0.2 -0.3,0.1 h 0.2 c -0.1,0 -0.2,0 -0.3,0 -0.1,0 -0.2,-0.1 -0.4,-0.1 -0.1,-0.1 -0.2,-0.1 -0.3,-0.3 -0.1,-0.1 -0.2,-0.3 -0.3,-0.4 -0.2,-0.3 -0.3,-0.6 -0.3,-0.9 0,-0.2 0,-0.4 0.1,-0.6 v 0 c 0,-0.1 0.1,-0.2 0.2,-0.3 0.1,-0.1 0.2,-0.3 0.3,-0.4 l 0.3,-0.3 h -2.5 L 187,70 h 8.8 l 0.8,0.9 h -4.4 z" id="path86"></path>			<path class="st0" d="m 199.1,70.6 h -1.7 v 7.1 l -0.8,-0.8 v -6.3 h -1 l -0.5,-0.7 V 70 h -1 l 0.4,-0.3 v 0 c 0,0 0,-0.1 0,-0.1 0,0 0,-0.1 0,-0.1 0,-0.1 -0.1,-0.3 -0.4,-0.4 L 193.4,69 H 193 c -0.2,0 -0.4,0 -0.5,0 -0.1,0 -0.3,0 -0.4,-0.1 v 0 c -0.1,0 -0.2,-0.1 -0.4,-0.1 -0.1,-0.1 -0.3,-0.2 -0.4,-0.3 v 0 c -0.1,-0.1 -0.3,-0.2 -0.4,-0.4 -0.1,-0.2 -0.1,-0.3 -0.1,-0.5 0,-0.3 0.1,-0.5 0.2,-0.6 v 0 l 0.4,-0.4 c 0.1,-0.1 0.3,-0.1 0.6,-0.2 0.2,-0.1 0.5,-0.1 0.8,-0.2 h 0.2 0.2 0.2 c 0,0 0.1,0 0.1,0 0,0 0.1,0 0.1,0 0,0 0.1,0 0.1,0 0.1,0 0.1,0 0.2,0.1 v 0 c 0.1,0 0.3,0.1 0.4,0.1 0.1,0 0.3,0.1 0.4,0.1 0.1,0 0.2,0.1 0.3,0.1 v 0 l 0.3,0.1 0.5,0.4 c 0.1,0.1 0.3,0.2 0.4,0.4 0.1,0.2 0.3,0.4 0.4,0.6 0,0.1 0.1,0.1 0.1,0.2 0,0.1 0.1,0.1 0.1,0.2 l 0.2,0.5 0.1,0.6 h 1 z m -4,-0.8 h 1.6 c 0,-0.1 0,-0.1 -0.1,-0.2 0,-0.1 0,-0.1 -0.1,-0.2 0,-0.1 0,-0.1 -0.1,-0.2 0,-0.1 -0.1,-0.2 -0.1,-0.3 l -0.1,-0.3 c 0,-0.1 -0.1,-0.2 -0.1,-0.2 -0.2,-0.3 -0.5,-0.6 -0.7,-0.7 v 0 c -0.1,-0.1 -0.3,-0.1 -0.4,-0.2 -0.2,-0.1 -0.3,-0.1 -0.5,-0.2 v 0 l -0.6,-0.1 v 0 l -0.6,-0.1 h -0.3 -0.3 c -0.1,0 -0.1,0 -0.2,0 0,0 -0.1,0 -0.1,0 0,0 -0.1,0 -0.1,0 0,0 -0.1,0 -0.1,0.1 0,0 -0.1,0 -0.1,0 0,0 -0.1,0 -0.1,0.1 v 0 l -0.3,0.2 v 0.1 0.1 c 0,0 0.1,0.1 0.1,0.1 v 0 l 0.4,0.1 c 0.1,0 0.3,0 0.4,0 0.1,0 0.3,0 0.4,0 0.5,0 0.8,0 1.1,0.1 v 0 c 0.1,0 0.2,0 0.3,0.1 0.1,0 0.2,0 0.3,0.1 0.2,0.1 0.4,0.2 0.5,0.4 L 195,69 v 0.3 0.3 z" id="path88"></path>			<path class="st0" d="m 203.7,70.6 v 7.2 l -0.5,-0.7 -0.1,-0.3 v 0 l -0.2,-0.3 c 0,0 -0.1,-0.1 -0.1,-0.1 0,0 -0.1,-0.1 -0.1,-0.1 v 0 c -0.1,-0.2 -0.2,-0.3 -0.3,-0.4 -0.1,-0.1 -0.2,-0.2 -0.2,-0.3 -0.1,-0.1 -0.2,-0.2 -0.3,-0.3 -0.1,-0.1 -0.3,-0.2 -0.4,-0.3 l -0.2,-0.1 -0.2,-0.1 v 0 l -0.2,-0.1 -0.2,-0.1 c -0.1,0 -0.3,-0.1 -0.4,-0.1 -0.1,0 -0.3,0 -0.4,0 l -0.9,-1.3 0.8,-0.6 0.8,-0.5 1.1,-0.6 0.5,-0.2 0.6,-0.2 v -0.3 h -4.3 l -0.8,-0.9 h 6.4 l 0.8,0.9 h -1.2 z m -0.8,1.6 c -0.2,0.1 -0.4,0.2 -0.6,0.3 -0.2,0.1 -0.4,0.2 -0.6,0.4 v 0 l -0.6,0.4 c 0,0 -0.1,0 -0.1,0.1 0,0 -0.1,0 -0.1,0.1 0,0 -0.1,0 -0.1,0.1 0,0 -0.1,0 -0.1,0.1 0.1,0.1 0.2,0.1 0.3,0.2 0.1,0.1 0.2,0.1 0.3,0.2 0.1,0.1 0.3,0.2 0.4,0.3 0.1,0.1 0.2,0.2 0.3,0.3 l 0.4,0.4 c 0.1,0.1 0.1,0.1 0.2,0.2 0.1,0.1 0.1,0.2 0.2,0.3 v -3.4 z" id="path90"></path>			<path class="st0" d="m 207.8,70.9 c -0.2,0.1 -0.4,0.2 -0.5,0.3 -0.1,0.1 -0.3,0.2 -0.3,0.2 -0.2,0.2 -0.4,0.4 -0.5,0.6 -0.2,0.2 -0.3,0.5 -0.4,0.8 v 0 l -0.2,0.8 c 0,0.1 0,0.2 0,0.3 0,0.1 0,0.2 0,0.3 v 0 0.5 0.5 c 0,0.1 0,0.2 0.1,0.3 0,0.1 0.1,0.2 0.1,0.3 0,0.1 0.1,0.2 0.1,0.3 0,0.1 0.1,0.2 0.2,0.2 v 0 c 0.1,0.1 0.1,0.1 0.2,0.2 0.1,0.1 0.2,0.2 0.3,0.2 v 0 c 0.1,0 0.1,0 0.2,0 v 0 0 c -0.1,-0.1 -0.2,-0.3 -0.2,-0.5 V 76 c 0,-0.1 0.1,-0.3 0.1,-0.4 0.1,-0.1 0.2,-0.2 0.3,-0.3 l 0.3,-0.1 c 0.1,0 0.1,0 0.1,0 0,0 0.1,0 0.1,0 0,0 0.1,0 0.1,0 0,0 0.1,0 0.1,0 0.1,0 0.1,0.1 0.2,0.1 0.1,0.1 0.1,0.1 0.1,0.2 0,0.1 0.1,0.2 0.1,0.2 0,0.1 0,0.2 0,0.3 0,0.1 0,0.2 0,0.3 0,0.1 -0.1,0.2 -0.1,0.3 -0.1,0.1 -0.1,0.2 -0.2,0.3 -0.1,0.1 -0.2,0.2 -0.4,0.2 -0.1,0 -0.2,0.1 -0.3,0.1 -0.1,0 -0.2,0 -0.2,0 -0.2,0 -0.4,0 -0.6,-0.1 -0.2,-0.1 -0.3,-0.1 -0.5,-0.3 v 0 c -0.2,-0.2 -0.4,-0.4 -0.6,-0.7 -0.2,-0.3 -0.3,-0.6 -0.4,-0.9 -0.1,-0.3 -0.1,-0.5 -0.2,-0.8 0,-0.2 -0.1,-0.5 -0.1,-0.8 v -0.4 -0.5 0 c 0,-0.2 0.1,-0.5 0.3,-1 0.2,-0.4 0.5,-0.9 0.9,-1.4 h -1.8 l -0.8,-0.9 h 4.4 l 0.7,0.8 z" id="path92"></path>			<path class="st0" d="m 213.3,70.6 v 7.3 l -0.4,-0.6 v -0.2 c 0,-0.4 -0.1,-0.8 -0.2,-1.3 -0.1,-0.2 -0.2,-0.5 -0.3,-0.8 -0.1,-0.3 -0.2,-0.5 -0.3,-0.7 0,-0.1 -0.1,-0.1 -0.1,-0.2 0,-0.1 -0.1,-0.1 -0.1,-0.2 l -0.4,-0.4 c -0.2,-0.1 -0.3,-0.2 -0.5,-0.3 -0.2,-0.1 -0.3,-0.1 -0.5,-0.1 0,0 0,0 0,0 0.2,0.3 0.3,0.6 0.3,0.9 0,0.1 0,0.1 0,0.2 0,0 0,0.1 0,0.1 0,0 0,0.1 0,0.1 0,0 0,0.1 -0.1,0.2 -0.2,0.3 -0.4,0.5 -0.8,0.5 h -0.3 c -0.1,0 -0.2,0 -0.3,-0.1 -0.1,0 -0.2,-0.1 -0.3,-0.2 -0.1,-0.2 -0.2,-0.4 -0.3,-0.8 v -0.3 c 0,-0.2 0,-0.5 0.1,-0.7 0.1,-0.2 0.2,-0.4 0.4,-0.5 0.1,-0.1 0.3,-0.3 0.5,-0.3 0.2,-0.1 0.4,-0.1 0.6,-0.1 h 0.3 c 0.1,0 0.2,0 0.3,0.1 0.1,0 0.2,0.1 0.2,0.1 0.1,0.1 0.2,0.1 0.3,0.2 0.1,0.1 0.3,0.2 0.4,0.4 0.1,0.2 0.3,0.3 0.4,0.5 0.1,0.1 0.1,0.2 0.2,0.3 0.1,0.1 0.1,0.2 0.2,0.3 v -3.2 h -4.3 l -0.8,-0.9 h 6.5 l 0.8,0.9 h -1.5 z" id="path94"></path>			<path class="st0" d="m 219.2,70.6 v 7 l -0.4,-0.4 -0.6,-1.2 c 0,-0.1 -0.1,-0.2 -0.2,-0.3 -0.1,-0.1 -0.2,-0.2 -0.3,-0.4 -0.1,-0.1 -0.2,-0.2 -0.3,-0.3 -0.1,-0.1 -0.2,-0.2 -0.3,-0.2 v 0 l -0.6,-0.3 v 0 c -0.2,-0.1 -0.3,-0.1 -0.5,-0.2 -0.2,0 -0.4,-0.1 -0.6,-0.1 l -0.9,-1.3 0.8,-0.6 0.4,-0.3 0.4,-0.2 1.1,-0.6 1.1,-0.4 V 70.5 H 214 l -0.8,-0.9 h 6.3 l 0.8,0.9 h -1.1 z m -1.9,6 c -0.1,0.3 -0.3,0.4 -0.6,0.4 -0.1,0 -0.2,0 -0.3,-0.1 -0.1,0 -0.2,-0.1 -0.3,-0.2 -0.1,-0.1 -0.1,-0.2 -0.2,-0.3 0,-0.1 -0.1,-0.2 -0.1,-0.3 0,-0.1 0,-0.1 0,-0.2 0,-0.1 0,-0.1 0.1,-0.2 0.1,-0.2 0.3,-0.3 0.6,-0.3 0.1,0 0.2,0 0.3,0.1 0.1,0 0.2,0.1 0.2,0.2 0.1,0.1 0.1,0.1 0.2,0.2 0,0.1 0.1,0.2 0.1,0.3 0,0.1 0,0.1 0,0.1 0,0 0,0.1 0,0.1 z m 0.8,-1.5 c 0.1,0.1 0.1,0.2 0.2,0.3 l 0.1,0.2 v -3.4 c -0.1,0 -0.1,0 -0.2,0.1 -0.1,0 -0.1,0 -0.2,0.1 v 0 l -0.3,0.1 c -0.1,0.1 -0.2,0.1 -0.3,0.2 -0.1,0.1 -0.2,0.1 -0.3,0.2 v 0 l -0.6,0.4 v 0 l -0.4,0.3 0.2,0.1 c 0.1,0 0.1,0.1 0.2,0.1 0,0 0.1,0 0.1,0.1 0,0 0.1,0 0.1,0.1 0,0 0.1,0.1 0.1,0.1 l 0.4,0.3 0.4,0.4 z" id="path96"></path>			<path class="st0" d="m 227.4,70.6 -0.3,0.2 c 0,0.2 0.1,0.4 0.3,0.6 l 0.4,0.1 c 0.1,0 0.1,0 0.2,0 0.1,0 0.2,0 0.2,0 0,0 0.1,0 0.1,0 0,0 0.1,0 0.1,0 h 0.2 c 0,0 0.1,0 0.3,-0.1 l 0.7,-0.2 0.6,0.7 v 0 l 0.4,0.5 c -0.1,0.1 -0.2,0.2 -0.3,0.4 -0.1,0.1 -0.2,0.3 -0.3,0.5 v 0 c -0.3,0.5 -0.4,1 -0.4,1.4 l -0.1,0.5 v 0.3 c 0,0.3 0,0.6 0.1,0.9 0.1,0.3 0.2,0.7 0.4,1.1 -0.1,0 -0.2,0 -0.3,0 -0.1,0 -0.1,0 -0.2,0 v 0 c -0.2,-0.1 -0.3,-0.1 -0.4,-0.2 l -0.4,-1.7 -0.1,-0.6 v -0.5 c 0,-0.3 0.1,-0.7 0.2,-1.2 v 0 c 0,-0.1 0.1,-0.3 0.1,-0.4 0,-0.1 0.1,-0.3 0.1,-0.4 0,0 0,0 0,0 0,0 0,0 0,0 0,0 -0.1,0 -0.2,0 -0.1,0 -0.1,0 -0.2,0 -0.2,0 -0.4,0 -0.6,-0.1 -0.2,0 -0.4,-0.1 -0.6,-0.2 -0.2,-0.1 -0.3,-0.2 -0.5,-0.3 -0.2,-0.1 -0.3,-0.2 -0.4,-0.3 l -0.4,-0.5 c 0,0 -0.2,0.1 -0.4,0.4 v 0 c -0.1,0.2 -0.2,0.3 -0.3,0.5 -0.1,0.2 -0.2,0.3 -0.2,0.5 0,0 0,0 0,0 0,0 0,0 0,0 v 0.1 c 0,0.1 0,0.2 0.1,0.3 0.1,0.1 0.2,0.1 0.3,0.1 h 0.2 c 0.1,0 0.2,0 0.3,-0.1 l 0.5,-0.3 0.2,-0.1 c 0.1,0 0.2,-0.1 0.2,0 0,0 0.1,0 0.1,0 0,0 0.1,0.1 0.1,0.1 l 0.2,0.3 v 0 c 0.1,0.1 0.1,0.2 0.2,0.3 0.1,0.1 0.1,0.3 0.2,0.5 0.1,0.2 0.1,0.3 0.1,0.5 0,0.1 0,0.3 0,0.4 0,0.2 0,0.3 -0.1,0.4 0,0.2 -0.1,0.4 -0.2,0.5 -0.1,0.1 -0.1,0.3 -0.2,0.4 -0.1,0.1 -0.2,0.1 -0.3,0.2 -0.1,0.1 -0.2,0.1 -0.4,0.2 -0.1,0 -0.2,0.1 -0.4,0.1 -0.1,0 -0.3,0.1 -0.4,0.1 -0.4,0 -0.7,-0.1 -1.1,-0.3 -0.2,-0.1 -0.3,-0.2 -0.5,-0.4 -0.1,-0.1 -0.3,-0.3 -0.4,-0.5 -0.1,-0.1 -0.2,-0.3 -0.2,-0.4 -0.1,-0.1 -0.2,-0.3 -0.2,-0.5 l -0.2,-0.6 c -0.1,-0.2 -0.1,-0.4 -0.1,-0.6 0,-0.2 -0.1,-0.4 -0.1,-0.7 v -0.6 -0.5 -0.1 -0.2 l 0.4,0.3 0.1,0.1 c 0.1,0.1 0.1,0.3 0.1,0.4 v 0.3 c 0,0.2 0,0.4 0,0.5 l 0.2,0.8 v 0 c 0,0.1 0.1,0.2 0.1,0.3 0,0.1 0.1,0.2 0.2,0.3 0.1,0.1 0.1,0.2 0.2,0.3 0.1,0.1 0.1,0.2 0.2,0.2 0.2,0.2 0.3,0.3 0.4,0.4 0.1,0.1 0.2,0.2 0.3,0.2 0.1,0 0.2,0.1 0.3,0.1 0.1,0 0.2,0 0.3,0 0,0 0,0 0,0 0,0 0,0 0,0 0.2,0 0.3,0 0.5,-0.1 0.2,0 0.3,-0.1 0.5,-0.2 0.3,-0.2 0.4,-0.4 0.4,-0.6 0,-0.1 0,-0.2 -0.1,-0.3 0,0 0,-0.1 -0.1,-0.1 0,0 -0.1,0 -0.1,-0.1 h -0.1 v 0 l -0.6,0.2 -0.3,0.1 h -0.2 c -0.1,0 -0.2,0 -0.3,0 -0.1,0 -0.2,-0.1 -0.4,-0.1 -0.1,-0.1 -0.2,-0.1 -0.3,-0.3 -0.1,-0.1 -0.2,-0.3 -0.3,-0.4 -0.2,-0.3 -0.3,-0.6 -0.3,-0.9 0,-0.2 0,-0.4 0.1,-0.6 v 0 c 0,-0.1 0.1,-0.2 0.2,-0.3 0.1,-0.1 0.2,-0.3 0.3,-0.4 l 0.3,-0.3 H 223 L 222.2,70 h 8.8 l 0.8,0.9 h -4.4 z" id="path98"></path>			<path class="st0" d="m 236.2,70.6 v 7.3 l -0.4,-0.6 v -0.2 c 0,-0.4 -0.1,-0.8 -0.2,-1.3 -0.1,-0.2 -0.2,-0.5 -0.3,-0.8 -0.1,-0.3 -0.2,-0.5 -0.3,-0.7 0,-0.1 -0.1,-0.1 -0.1,-0.2 0,-0.1 -0.1,-0.1 -0.1,-0.2 l -0.4,-0.4 c -0.2,-0.1 -0.3,-0.2 -0.5,-0.3 -0.2,-0.1 -0.3,-0.1 -0.5,-0.1 0,0 0,0 0,0 0.2,0.3 0.3,0.6 0.3,0.9 0,0.1 0,0.1 0,0.2 0,0 0,0.1 0,0.1 0,0.1 0,0.1 -0.1,0.3 -0.2,0.3 -0.4,0.5 -0.8,0.5 h -0.3 c -0.1,0 -0.2,0 -0.3,-0.1 -0.1,0 -0.2,-0.1 -0.3,-0.2 -0.1,-0.2 -0.2,-0.4 -0.3,-0.8 v -0.3 c 0,-0.2 0,-0.5 0.1,-0.7 0.1,-0.2 0.2,-0.4 0.3,-0.5 0.1,-0.1 0.3,-0.3 0.5,-0.3 0.2,-0.1 0.4,-0.1 0.6,-0.1 h 0.3 c 0.1,0 0.2,0 0.3,0.1 0.1,0 0.2,0.1 0.3,0.1 0.1,0.1 0.2,0.1 0.3,0.2 0.1,0.1 0.3,0.2 0.4,0.4 0.1,0.2 0.3,0.3 0.4,0.5 0.2,0.3 0.3,0.5 0.4,0.6 V 70.8 H 231 l -0.8,-0.9 h 6.3 l 0.8,0.9 h -1.1 z m 2.5,0.3 c -0.1,0 -0.1,0.1 -0.1,0.1 0,0.1 -0.1,0.1 -0.1,0.2 0,0.1 0,0.2 0,0.3 0,0.1 0,0.2 0,0.3 v 0.4 c 0,0.1 0,0.3 0,0.5 0,0.2 0.1,0.4 0.1,0.6 0.1,0.2 0.1,0.5 0.1,0.7 0,0.2 0,0.4 0,0.5 0,0.1 0,0.2 0,0.3 0,0.1 0,0.2 0,0.3 v 0.4 0.3 0.2 c 0,0 0,0.1 0,0.1 0,0 0,0.1 -0.1,0.2 v 0.1 0 c -0.2,0.3 -0.5,0.7 -0.9,0.9 -0.4,0.2 -0.6,0.4 -0.8,0.4 -0.2,0 -0.3,-0.1 -0.4,-0.3 0,-0.1 0.1,-0.2 0.3,-0.3 0.2,0 0.3,-0.1 0.3,-0.1 l 0.5,-0.5 c 0.1,-0.1 0.1,-0.2 0.1,-0.4 0,-0.2 0,-0.3 0,-0.5 -0.1,-0.2 -0.1,-0.5 -0.2,-0.8 -0.1,-0.3 -0.1,-0.5 -0.2,-0.8 v 0 c -0.1,-0.2 -0.1,-0.4 -0.1,-0.6 0,-0.2 0,-0.4 0,-0.6 0,-0.2 0,-0.3 0,-0.5 0,-0.2 0.1,-0.3 0.1,-0.4 0,-0.1 0.1,-0.3 0.1,-0.4 0,-0.1 0.1,-0.2 0.1,-0.2 l 0.5,-0.8 h -1.7 l -0.8,-0.9 h 3.9 l 0.6,0.9 h -0.6 -0.1 c -0.1,0 -0.3,0 -0.4,0.1 0,0.1 -0.1,0.2 -0.2,0.3 z" id="path100"></path>		</g>		<g id="g172">			<path class="st0" d="m 92.3,9.3 v 6.8 L 91.5,15.4 V 15 l -0.1,-0.2 v 0 l -0.2,-0.2 c 0,0 -0.1,-0.1 -0.1,-0.1 0,0 -0.1,0 -0.1,0 l -0.3,-0.1 h -0.2 c -0.1,0 -0.2,0 -0.3,0 -0.1,0 -0.2,0 -0.3,0.1 l -0.4,0.1 H 89 88.7 c -0.1,0 -0.1,0 -0.2,0 -0.1,0 -0.1,0 -0.2,0 -0.2,0 -0.5,0 -0.7,-0.1 -0.2,0 -0.4,-0.1 -0.6,-0.2 v 0 C 86.8,14.2 86.6,14.1 86.5,14 86.4,13.9 86.3,13.8 86.2,13.7 L 86.1,13.5 86,13.3 v -0.4 -0.4 l 0.1,-0.8 0.6,0.5 -0.1,0.1 v 0.1 c 0,0.1 0,0.1 0,0.2 0,0 0,0.1 0,0.1 l 0.1,0.4 c 0,0 0,0 0.1,0 l 0.1,0.1 v 0 l 0.2,0.1 0.2,0.1 v 0 l 0.2,0.1 v 0 l 0.4,0.1 h 0.2 0.6 l 0.5,-0.1 0.7,-0.1 h 0.1 0.2 l 0.5,0.1 0.3,0.1 v 0 c 0.1,0 0.2,0.1 0.2,0.1 0,0 0.1,0.1 0.1,0.1 0,0 0.1,0.1 0.1,0.1 l 0.1,0.1 v -2 l -0.1,-0.2 v 0 l -0.1,-0.4 -0.1,-0.2 c 0,-0.1 -0.1,-0.1 -0.1,-0.2 0,-0.1 -0.1,-0.1 -0.1,-0.2 0,-0.1 -0.1,-0.2 -0.1,-0.2 l -0.1,-0.1 c -0.4,0.4 -0.7,0.7 -1.1,1.1 -0.4,0.4 -0.7,0.7 -1.1,1.1 l -1.1,-0.4 0.7,-0.7 c 0.1,0 0.1,-0.1 0.1,-0.3 0,-0.1 0,-0.1 0,-0.2 0,-0.1 0,-0.1 -0.1,-0.2 0,-0.1 -0.1,-0.1 -0.1,-0.1 0,0 -0.1,-0.1 -0.1,-0.1 -0.1,0 -0.1,0 -0.2,0 -0.1,0 -0.3,0.1 -0.6,0.2 -0.1,0 -0.2,0 -0.4,-0.1 -0.2,-0.1 -0.3,-0.3 -0.3,-0.5 0,0 0,-0.1 0,-0.2 0,-0.1 0,-0.1 0.1,-0.2 0.1,-0.3 0.3,-0.5 0.4,-0.6 0,0 0.2,-0.2 0.4,-0.3 0.4,-0.3 1,-0.5 1.6,-0.5 0.3,0 0.6,0.1 0.9,0.2 0.3,0.1 0.5,0.3 0.8,0.5 0.2,0.2 0.3,0.3 0.5,0.5 0.1,0.2 0.3,0.4 0.4,0.6 l 0.1,0.3 v 0 l 0.1,0.2 -0.1,-1.2 V 7.5 l 0.4,0.2 0.1,0.1 c 0,0.2 0,0.4 0.1,0.5 l 0.3,0.1 h 0.5 l 0.5,0.8 h -1.3 z m -3.7,1.5 c 0,0.1 0.1,0.2 0.1,0.4 L 90,9.9 c 0,0 0,0 0,0 0,0 0,0 -0.1,0 v 0 L 89.7,9.8 C 89.6,9.7 89.6,9.7 89.5,9.7 c -0.1,0 -0.2,0 -0.3,0 -0.2,0 -0.4,0 -0.6,0.1 -0.2,0.1 -0.3,0.2 -0.5,0.3 v 0 c 0,0 -0.1,0.1 -0.1,0.1 0,0.1 -0.1,0.1 -0.1,0.2 0.1,0 0.2,0 0.2,0.1 0.1,0 0.1,0 0.2,0.1 0.1,0 0.1,0.1 0.1,0.1 0,0 0.1,0.1 0.1,0.2 0,-0.3 0.1,-0.2 0.1,-0.1 z m 0.1,0.3 v 0 0.2 l -0.1,-0.1 z" id="path104"></path>			<path class="st0" d="M 98.6,7 C 98.5,6.9 98.4,6.8 98.2,6.7 98.1,6.6 97.9,6.6 97.7,6.5 97.3,6.4 97.1,6.3 96.9,6.3 v 0 h -0.5 c -0.2,0 -0.4,0 -0.7,0.1 -0.1,0 -0.2,0 -0.3,0.1 -0.1,0 -0.2,0.1 -0.3,0.2 -0.2,0.1 -0.3,0.2 -0.3,0.2 l -0.3,0.4 v 0 l -0.3,0.5 v 0 c 0,0.1 -0.1,0.1 -0.1,0.2 0,0.1 0,0.1 0,0.1 0,0.1 0.1,0.2 0.1,0.2 0,0.1 0.1,0.2 0.1,0.2 h 1.2 l 0.7,0.8 h -1.6 v 6.9 L 93.8,15.5 V 9.4 H 92.9 L 92.1,8.6 h 1.7 L 93.3,8 V 8 C 93.2,7.9 93.2,7.8 93.2,7.6 c 0,-0.1 0,-0.3 0.1,-0.4 v 0 L 93.4,7 93.8,6.4 C 93.9,6.2 94,6.1 94,6.1 c 0.2,-0.2 0.5,-0.4 1,-0.6 0.2,-0.1 0.5,-0.2 0.9,-0.2 0.3,0 0.5,0 0.8,0.1 0.3,0.1 0.5,0.1 0.9,0.3 L 98,6 c 0.1,0 0.2,0.1 0.3,0.1 0.1,0 0.2,0.1 0.3,0.2 v 0 c 0.2,0.2 0.6,0.4 1,0.8 L 99.8,7.4 100,8 Z" id="path106"></path>			<path class="st0" d="M 95.5,9.3 94.7,8.5 h 7.9 l 0.9,0.8 z m 6.9,3.2 c 0,0.2 0,0.4 -0.1,0.6 -0.1,0.2 -0.1,0.4 -0.2,0.6 -0.1,0.2 -0.2,0.3 -0.3,0.5 -0.1,0.1 -0.3,0.3 -0.5,0.4 l -0.5,0.3 -0.3,0.1 c -0.1,0 -0.3,0 -0.7,0 -0.3,0 -0.7,-0.1 -1,-0.2 -0.1,-0.1 -0.2,-0.1 -0.4,-0.2 -0.1,-0.1 -0.2,-0.1 -0.3,-0.2 L 98,14.2 97.6,13.7 97,12.8 96.8,12.5 96.7,12.2 96.1,10.6 C 96,10.4 95.9,10 95.8,9.4 l 0.6,0.2 0.3,0.7 0.5,1.1 0.5,0.8 v 0 l 0.4,0.5 c 0.2,0.2 0.3,0.4 0.4,0.5 l 0.4,0.3 0.4,0.1 h 0.4 0.4 l 0.3,-0.1 v 0 c 0.1,0 0.2,-0.1 0.4,-0.2 0.1,-0.1 0.3,-0.2 0.4,-0.3 0,0 0.1,-0.1 0.1,-0.1 0,-0.1 0.1,-0.1 0.1,-0.2 v 0 l 0.2,-0.3 c 0,-0.1 0.1,-0.2 0.1,-0.2 0,-0.1 0,-0.2 0,-0.2 v -0.1 c 0,-0.1 0,-0.1 0,-0.2 0,-0.1 0,-0.2 -0.1,-0.3 0,-0.1 -0.1,-0.1 -0.1,-0.2 -0.1,-0.1 -0.1,-0.1 -0.2,-0.2 l -0.2,-0.1 -0.2,-0.1 c 0,0 -0.1,0 -0.1,0 0,0 -0.1,0 -0.1,0 -0.1,0 -0.2,0 -0.3,0 0.1,0.2 0.2,0.5 0.2,0.7 0,0.2 -0.1,0.4 -0.2,0.6 -0.1,0.2 -0.3,0.3 -0.6,0.4 h -0.2 -0.2 c -0.2,0 -0.3,0 -0.4,-0.1 -0.1,-0.1 -0.3,-0.2 -0.4,-0.3 -0.1,-0.1 -0.2,-0.4 -0.3,-0.7 v -0.3 c 0,-0.3 0.1,-0.5 0.2,-0.7 l 0.2,-0.3 C 98.8,10 99,9.8 99.2,9.8 99.4,9.7 99.6,9.7 99.8,9.7 h 0.3 0.3 c 0.5,0.1 1,0.4 1.4,0.9 l 0.3,0.5 0.2,0.4 c 0.1,0.5 0.1,0.7 0.1,1 z" id="path108"></path>			<path class="st0" d="m 107.5,9.3 0.2,0.3 0.3,0.5 0.4,0.9 c 0.1,0.1 0.1,0.2 0.1,0.4 0,0.1 0.1,0.2 0.1,0.3 l 0.1,0.4 v 0.3 0.4 c 0,0.3 0,0.5 0,0.6 l -0.2,0.5 c 0,0.1 -0.1,0.2 -0.1,0.3 -0.1,0.1 -0.1,0.2 -0.2,0.3 v 0 c -0.1,0.1 -0.1,0.2 -0.2,0.2 -0.1,0 -0.1,0.1 -0.2,0.2 l -0.3,0.2 -0.4,0.2 -0.4,0.1 h -0.4 -0.2 c -0.2,0 -0.4,-0.1 -0.5,-0.1 -0.1,0 -0.3,-0.1 -0.3,-0.1 v 0 c -0.2,-0.1 -0.3,-0.1 -0.5,-0.2 -0.1,-0.1 -0.3,-0.2 -0.4,-0.4 -0.2,-0.2 -0.3,-0.4 -0.4,-0.7 -0.1,-0.2 -0.1,-0.5 -0.1,-0.7 V 13 12.8 l 0.8,-0.3 c -0.1,0 -0.1,-0.1 -0.2,-0.1 -0.1,0 -0.1,-0.1 -0.2,-0.1 l -0.4,-0.4 c -0.1,-0.2 -0.2,-0.3 -0.2,-0.4 0,-0.1 0,-0.2 0.1,-0.3 0.1,-0.1 0.2,-0.3 0.3,-0.5 0.2,-0.3 0.3,-0.5 0.3,-0.7 l -0.1,-0.2 v 0 c -0.2,-0.4 -0.5,-0.6 -1,-0.6 H 103 l -0.8,-0.8 h 4 V 8.3 L 105.7,7.5 C 105.6,7.4 105.5,7.2 105.5,7 105.4,6.8 105.4,6.7 105.3,6.5 L 105.2,6.1 V 5.7 c 0,-0.1 0,-0.2 0.1,-0.4 0,-0.1 0.1,-0.2 0.1,-0.3 0,0 0.1,-0.1 0.1,-0.2 0.1,-0.1 0.2,-0.2 0.3,-0.3 l 0.9,0.6 c -0.1,0.1 -0.2,0.2 -0.3,0.2 -0.1,0.1 -0.2,0.2 -0.2,0.3 -0.1,0.2 -0.2,0.3 -0.2,0.4 0,0.1 0,0.2 0,0.4 0,0.2 0,0.4 0.1,0.6 0.1,0.2 0.2,0.4 0.3,0.6 v 0 l 0.6,0.8 h 1.9 l 0.8,0.8 h -2.2 z m -1.5,2 -0.3,-0.3 -0.3,-0.2 -0.2,-0.1 -0.2,0.2 v 0 l -0.3,0.3 v 0 c -0.1,0.1 -0.1,0.2 -0.1,0.4 v 0.2 c 0,0.1 0,0.1 0.1,0.2 0,0.1 0.1,0.1 0.2,0.2 0,0 0.1,0 0.1,0 0,0 0.1,0 0.1,0 0.1,0 0.2,0 0.3,-0.1 0.1,0 0.2,-0.1 0.3,-0.1 l 0.3,-0.3 v 0 c 0,0 0.1,-0.1 0.1,-0.1 0,0 0,-0.1 0,-0.1 z m 0.5,-0.8 V 10 9.8 c 0,-0.1 0,-0.2 0,-0.3 0,-0.1 -0.1,-0.2 -0.1,-0.3 h -1.5 l 0.1,0.1 v 0 l 0.6,0.5 0.4,0.5 c 0.1,0.1 0.2,0.2 0.3,0.3 0.1,0.1 0.1,0.1 0.2,0.2 z m 1.2,1 -0.1,-0.4 c 0,-0.1 -0.1,-0.3 -0.1,-0.4 0,-0.1 -0.1,-0.2 -0.2,-0.3 0,0.2 0,0.4 -0.1,0.6 0,0.2 -0.1,0.4 -0.1,0.5 -0.1,0.2 -0.1,0.3 -0.3,0.5 -0.1,0.2 -0.2,0.4 -0.4,0.5 -0.1,0.1 -0.2,0.2 -0.3,0.2 -0.1,0.1 -0.3,0.2 -0.5,0.3 l -0.7,0.4 c -0.1,0 -0.1,0.1 -0.1,0.2 0,0.1 0,0.1 0,0.2 0,0.1 0,0.1 0.1,0.2 0,0.1 0.1,0.1 0.1,0.2 0,0.1 0.1,0.1 0.1,0.1 v 0 l 0.3,0.1 c 0.1,0 0.1,0 0.1,0 0,0 0.1,0 0.1,0 0.1,0 0.2,0 0.4,-0.1 0.1,-0.1 0.3,-0.1 0.5,-0.2 0.1,0 0.1,-0.1 0.2,-0.2 0.1,-0.1 0.2,-0.2 0.2,-0.3 0.1,-0.1 0.2,-0.2 0.2,-0.3 0.1,-0.1 0.1,-0.3 0.2,-0.4 0.1,-0.2 0.1,-0.3 0.1,-0.5 0,-0.2 0,-0.3 0,-0.5 v -0.2 0 z" id="path110"></path>			<path class="st0" d="M 112.5,9.3 H 111 v 7 l -0.8,-0.8 v -5 c 0,-0.1 0,-0.2 0,-0.3 0,-0.2 -0.1,-0.3 -0.1,-0.4 C 110,9.7 110,9.7 109.9,9.6 109.8,9.5 109.8,9.5 109.7,9.4 109.5,9.3 109.3,9.2 109.2,9.2 H 109 l -1,-0.8 h 0.5 0.3 0.2 c 0.3,0 0.5,0.1 0.6,0.1 0.1,0 0.1,0.1 0.2,0.1 0,0 0.1,0.1 0.1,0.1 v 0 c 0.1,0.1 0.3,0.3 0.4,0.6 V 9.4 L 110.2,8.7 V 7.9 7.6 c 0,0 0,-0.1 0,-0.2 0,-0.1 0,-0.2 -0.1,-0.3 l 0.5,0.4 0.1,0.4 v 0.2 l 0.1,0.1 0.1,0.2 v 0 h 0.8 z" id="path112"></path>			<path class="st0" d="m 111.9,9.3 -0.8,-0.8 h 7.9 l 0.9,0.8 z m 7,3.2 c 0,0.2 0,0.4 -0.1,0.6 -0.1,0.2 -0.1,0.4 -0.2,0.6 -0.1,0.2 -0.2,0.3 -0.3,0.5 -0.1,0.1 -0.3,0.3 -0.5,0.4 l -0.5,0.3 -0.3,0.1 c -0.1,0 -0.3,0 -0.7,0 -0.3,0 -0.7,-0.1 -1,-0.2 -0.1,-0.1 -0.2,-0.1 -0.4,-0.2 -0.1,-0.1 -0.2,-0.1 -0.3,-0.2 l -0.2,-0.2 -0.4,-0.5 -0.5,-0.8 -0.2,-0.3 -0.1,-0.3 -0.6,-1.6 c -0.1,-0.2 -0.2,-0.6 -0.3,-1.2 l 0.6,0.2 0.3,0.7 0.5,1.1 0.5,0.8 v 0 l 0.4,0.5 c 0.2,0.2 0.3,0.4 0.4,0.5 l 0.4,0.3 0.4,0.1 h 0.4 0.4 l 0.3,-0.1 v 0 c 0.1,0 0.2,-0.1 0.4,-0.2 0.1,-0.1 0.3,-0.2 0.4,-0.3 0,0 0.1,-0.1 0.1,-0.1 0,-0.1 0.1,-0.1 0.1,-0.2 v 0 l 0.2,-0.3 c 0,-0.1 0.1,-0.2 0.1,-0.2 0,-0.1 0,-0.2 0,-0.2 V 12 c 0,-0.1 0,-0.1 0,-0.2 0,-0.1 0,-0.2 -0.1,-0.3 0,-0.1 -0.1,-0.1 -0.1,-0.2 -0.1,-0.1 -0.1,-0.1 -0.2,-0.2 l -0.2,-0.1 -0.2,-0.1 c 0,0 -0.1,0 -0.1,0 0,0 -0.1,0 -0.1,0 -0.1,0 -0.2,0 -0.3,0 0.1,0.2 0.2,0.5 0.2,0.7 0,0.2 -0.1,0.4 -0.2,0.6 -0.1,0.2 -0.3,0.3 -0.6,0.4 h -0.2 -0.2 c -0.2,0 -0.3,0 -0.4,-0.1 -0.1,-0.1 -0.3,-0.2 -0.4,-0.3 -0.1,-0.1 -0.2,-0.4 -0.3,-0.7 v -0.3 c 0,-0.3 0.1,-0.5 0.2,-0.7 l 0.2,-0.3 c 0.1,-0.1 0.3,-0.3 0.5,-0.3 0.2,-0.1 0.4,-0.1 0.6,-0.1 h 0.3 0.3 c 0.5,0.1 1,0.4 1.4,0.9 l 0.3,0.5 0.2,0.4 c 0,0.4 0.1,0.6 0.1,0.9 z" id="path114"></path>			<path class="st0" d="m 122.7,9.3 h -1.6 v 7 l -0.8,-0.8 v -5 c 0,-0.1 0,-0.2 0,-0.3 0,-0.2 -0.1,-0.3 -0.1,-0.4 -0.1,-0.1 -0.1,-0.1 -0.2,-0.2 -0.1,-0.1 -0.1,-0.1 -0.2,-0.2 -0.2,-0.1 -0.4,-0.2 -0.5,-0.2 h -0.2 l -0.8,-0.8 h 0.5 0.3 0.2 c 0.3,0 0.5,0.1 0.6,0.1 0.1,0 0.1,0.1 0.2,0.1 0,0 0.1,0.1 0.1,0.1 v 0 c 0.1,0.1 0.3,0.3 0.4,0.6 V 9.4 L 120.5,8.7 V 7.9 7.6 c 0,0 0,-0.1 0,-0.2 0,-0.1 0,-0.2 -0.1,-0.3 l 0.5,0.4 0.1,0.4 v 0.2 l 0.1,0.1 0.1,0.2 v 0 h 0.8 z" id="path116"></path>			<path class="st0" d="m 125.6,11.5 c -0.1,0.1 -0.1,0.1 -0.2,0.2 -0.1,0.1 -0.1,0.1 -0.2,0.1 l -0.3,0.1 h -0.2 c -0.4,0 -0.8,-0.2 -1.1,-0.5 -0.2,-0.2 -0.3,-0.4 -0.4,-0.6 -0.1,-0.2 -0.1,-0.4 -0.1,-0.6 0,-0.1 0,-0.1 0,-0.2 0,0 0,-0.1 0,-0.1 0,0 0,-0.1 0,-0.1 0,0 0,-0.1 0.1,-0.2 0,-0.1 0.1,-0.1 0.2,-0.2 0.1,-0.1 0.1,-0.1 0.2,-0.2 0.3,-0.2 0.6,-0.3 0.9,-0.3 0.4,0 0.7,0.2 1,0.5 v 0 c 0.3,0.3 0.4,0.7 0.4,1.1 0.2,0.2 0,0.6 -0.3,1 z m -0.1,3.8 c -0.1,0.1 -0.1,0.1 -0.2,0.2 -0.1,0 -0.1,0.1 -0.2,0.1 -0.1,0 -0.1,0.1 -0.2,0.1 -0.1,0 -0.2,0 -0.3,0.1 -0.2,0 -0.4,0 -0.6,-0.1 -0.2,-0.1 -0.3,-0.2 -0.5,-0.4 -0.3,-0.4 -0.4,-0.8 -0.4,-1.2 0,-0.2 0,-0.4 0.1,-0.6 0.1,-0.2 0.2,-0.4 0.4,-0.5 0.1,-0.1 0.3,-0.2 0.4,-0.2 0.2,-0.1 0.3,-0.1 0.5,-0.1 0.4,0 0.7,0.2 1,0.5 0.1,0.2 0.2,0.3 0.3,0.5 0.1,0.2 0.1,0.4 0.1,0.6 0,0.1 0,0.1 0,0.2 0,0.1 0,0.1 0,0.1 0,0 0,0.1 0,0.1 0,0 0,0.1 -0.1,0.1 v 0 c 0,0.1 -0.1,0.3 -0.3,0.5 z m -0.7,-4.4 c 0.3,-0.2 0.5,-0.5 0.5,-0.6 0,-0.1 0,-0.1 -0.1,-0.2 0,-0.1 -0.1,-0.1 -0.2,-0.1 -0.1,0 -0.1,-0.1 -0.2,-0.1 -0.1,0 -0.2,0 -0.3,0 -0.2,0 -0.4,0 -0.5,0.1 -0.2,0.2 -0.3,0.4 -0.3,0.8 0,0.1 0,0.2 0.1,0.3 0,0.1 0.1,0.1 0.3,0.1 0.2,-0.1 0.5,-0.1 0.7,-0.3 z m 0.1,3.8 v 0 c 0.1,-0.1 0.2,-0.2 0.3,-0.3 0.1,-0.1 0.1,-0.2 0.1,-0.4 0,-0.1 0,-0.1 -0.1,-0.2 -0.1,-0.1 -0.1,-0.1 -0.2,-0.2 -0.1,0 -0.2,-0.1 -0.3,-0.1 -0.1,0 -0.2,0 -0.3,0 -0.1,0 -0.1,0 -0.2,0 -0.1,0 -0.1,0 -0.2,0.1 v 0 c -0.1,0.1 -0.1,0.2 -0.2,0.3 v 0 c 0,0.2 -0.1,0.3 -0.1,0.5 0,0.1 0,0.2 0,0.2 0,0.1 0,0.1 0.1,0.2 0,0.1 0.1,0.1 0.1,0.1 0,0 0.1,0.1 0.2,0.1 0.1,0 0.2,0 0.3,-0.1 z" id="path118"></path>			<path class="st0" d="m 132.8,9.3 v 2.4 c 0.1,0 0.3,-0.1 0.6,-0.3 v 0 c 0.3,-0.2 0.5,-0.4 0.7,-0.7 l 0.1,-0.2 0.2,-0.2 c 0.1,0 0.2,0.1 0.2,0.1 0.1,0 0.1,0.1 0.2,0.1 l 0.3,0.3 c 0.1,0.1 0.1,0.2 0.2,0.3 0.1,0.1 0.1,0.2 0.2,0.4 0.2,0.4 0.2,0.7 0.2,1.1 0,0.3 -0.1,0.7 -0.2,1.1 -0.1,0.4 -0.4,0.8 -0.9,1 -0.2,0.1 -0.5,0.2 -0.7,0.3 -0.3,0.1 -0.6,0.1 -0.9,0.1 -0.6,0 -1.2,-0.3 -1.6,-0.8 0,0 -0.1,-0.1 -0.1,-0.2 0,-0.1 -0.1,-0.2 -0.2,-0.3 l -0.5,-0.8 -0.4,-1 c 0,-0.1 -0.1,-0.3 -0.1,-0.6 0,-0.2 -0.1,-0.5 -0.2,-0.9 l -0.1,-1.1 0.6,0.3 c 0,0.2 0,0.4 0,0.6 0,0.2 0.1,0.4 0.1,0.6 l 0.1,0.2 c 0,0 0,0.1 0,0.1 0,0 0,0.1 0,0.1 v 0 c 0,0.1 0.1,0.1 0.1,0.2 0,0.1 0.1,0.1 0.1,0.2 0.1,0.2 0.2,0.4 0.3,0.6 0.1,0.2 0.2,0.3 0.3,0.4 v 0 l 0.4,0.5 v 0 c 0.2,0.2 0.4,0.3 0.8,0.4 v 0 c 0.1,0 0.2,0 0.3,0.1 0.1,0 0.2,0 0.3,0 0.2,0 0.3,0 0.5,-0.1 0.2,-0.1 0.3,-0.1 0.4,-0.2 0.1,-0.1 0.3,-0.1 0.4,-0.2 0.1,-0.1 0.2,-0.2 0.3,-0.3 0.1,-0.1 0.1,-0.2 0.2,-0.3 0,-0.1 0.1,-0.3 0.1,-0.4 V 12 c 0,0 0,-0.1 0,-0.1 0,0 0,-0.1 -0.1,-0.2 v 0 c 0,0 0,-0.1 -0.1,-0.1 -0.1,0 -0.1,-0.1 -0.1,-0.2 -0.1,0.1 -0.2,0.3 -0.5,0.5 -0.1,0.1 -0.2,0.2 -0.3,0.3 -0.1,0.1 -0.2,0.1 -0.3,0.2 -0.1,0.1 -0.3,0.1 -0.4,0.2 -0.1,0 -0.3,0.1 -0.4,0.1 -0.2,0 -0.4,-0.1 -0.6,-0.2 -0.1,-0.1 -0.1,-0.2 -0.2,-0.3 -0.1,-0.1 -0.1,-0.3 -0.2,-0.4 V 10.6 9.3 h -2.5 l -0.8,-0.8 h 7.5 l 0.8,0.8 z" id="path120"></path>			<path class="st0" d="m 138.7,14.1 v 1.3 h -1.3 v -1.3 z" id="path122"></path>			<path class="st0" d="m 146,9.6 v 0 c -0.3,0.1 -0.5,0.2 -0.7,0.4 -0.2,0.1 -0.3,0.2 -0.5,0.4 -0.1,0.1 -0.2,0.3 -0.3,0.4 -0.1,0.1 -0.2,0.3 -0.3,0.5 0,0.1 -0.1,0.2 -0.1,0.3 0,0.1 -0.1,0.2 -0.1,0.3 0,0.1 0,0.2 -0.1,0.3 0,0.1 0,0.2 -0.1,0.3 0,0.1 0,0.2 0,0.3 0,0.1 0,0.2 0,0.3 v 0.2 c 0,0 0,0.1 0,0.1 0,0 0,0.1 0,0.1 v 0 c 0.1,0.2 0.1,0.4 0.2,0.6 0.1,0.2 0.1,0.3 0.2,0.4 0.1,0.1 0.1,0.3 0.2,0.3 0.1,0.1 0.2,0.2 0.2,0.2 l 0.4,0.1 c -0.1,-0.1 -0.1,-0.1 -0.1,-0.2 0,-0.1 -0.1,-0.2 -0.1,-0.2 0,-0.2 0,-0.3 0.1,-0.4 0,-0.1 0.1,-0.2 0.2,-0.3 l 0.2,-0.1 h 0.2 0.3 c 0.1,0 0.1,0 0.2,0.1 0.1,0 0.1,0.1 0.2,0.2 0.2,0.2 0.3,0.4 0.3,0.6 0,0.1 0,0.2 -0.1,0.3 0,0.1 -0.1,0.2 -0.2,0.3 -0.1,0.1 -0.1,0.2 -0.2,0.3 -0.1,0.1 -0.2,0.2 -0.3,0.2 -0.2,0.1 -0.3,0.1 -0.5,0.1 -0.2,0 -0.4,0 -0.5,-0.1 -0.2,-0.1 -0.3,-0.1 -0.5,-0.3 v 0 c -0.5,-0.4 -0.8,-0.9 -1,-1.5 -0.1,-0.2 -0.1,-0.5 -0.2,-0.7 0,-0.2 -0.1,-0.5 -0.1,-0.8 v -0.7 c 0,-0.1 0,-0.3 0.1,-0.5 0.1,-0.2 0.1,-0.4 0.2,-0.6 0.1,-0.2 0.2,-0.4 0.4,-0.6 0.1,-0.2 0.3,-0.4 0.5,-0.7 l 0.4,-0.3 0.2,-0.1 c 0.3,-0.2 0.5,-0.3 0.7,-0.3 0.2,-0.1 0.4,-0.1 0.5,-0.1 l 0.8,0.8 z" id="path124"></path>			<path class="st0" d="M 152.1,9.3 V 16 l -0.3,-0.3 -0.1,-0.2 -0.1,-0.2 -0.1,-0.2 -0.2,-0.4 v 0 l -0.2,-0.3 v 0 l -0.3,-0.3 v 0 c -0.1,-0.1 -0.1,-0.2 -0.2,-0.2 -0.1,-0.1 -0.2,-0.2 -0.3,-0.2 -0.3,-0.2 -0.6,-0.3 -1,-0.4 -0.3,-0.1 -0.7,-0.2 -1,-0.3 l -1.2,-1.5 0.7,0.1 h 0.5 c 0.1,0 0.2,0 0.3,-0.1 0.1,0 0.2,0 0.2,-0.1 v 0 c 0.2,-0.1 0.4,-0.1 0.6,-0.2 0.2,-0.1 0.3,-0.2 0.5,-0.3 0.1,-0.1 0.1,-0.2 0.2,-0.2 0,-0.1 0.1,-0.2 0.1,-0.2 0,-0.1 0,-0.2 -0.1,-0.3 0,-0.1 -0.1,-0.2 -0.2,-0.2 l -0.5,0.5 -0.4,0.2 -0.5,0.2 c -0.3,0.1 -0.5,0.1 -0.6,0.1 -0.1,0 -0.3,0 -0.4,-0.1 -0.1,0 -0.2,-0.1 -0.3,-0.2 -0.1,-0.1 -0.2,-0.2 -0.2,-0.3 -0.1,-0.1 -0.1,-0.2 -0.1,-0.4 V 9.7 c 0,0 0,-0.1 0,-0.1 0,0 0.1,-0.1 0.1,-0.1 0.2,-0.2 0.3,-0.3 0.6,-0.3 0.3,0 0.4,0.1 0.6,0.2 0,0 0.1,0.1 0.1,0.1 0,0.1 0,0.1 0,0.2 0.1,0 0.1,0 0.1,0 0,0 0.1,0 0.1,0 l 0.6,-0.5 0.5,-0.5 0.5,0.4 0.4,0.3 c 0.1,0.1 0.1,0.1 0.2,0.3 0.1,0.1 0.2,0.2 0.2,0.4 0,0.1 0.1,0.2 0.1,0.3 0,0.1 0,0.2 0,0.3 0,0.3 -0.1,0.5 -0.2,0.8 -0.1,0.2 -0.3,0.5 -0.7,0.7 l -0.3,0.2 -0.1,0.1 0.3,0.1 0.4,0.3 c 0.1,0.1 0.2,0.2 0.4,0.3 0.1,0.1 0.2,0.2 0.4,0.4 0.1,0.1 0.1,0.1 0.2,0.2 0,0.1 0.1,0.1 0.1,0.2 V 7.2 l 0.5,0.3 v 0.4 l 0.1,0.4 c 0,0 0,0 0,0 0,0 0,0 0.1,0 h 0.8 l 0.7,0.8 h -1.6 z" id="path126"></path>			<path class="st0" d="m 156.3,9.3 h -1.6 v 7 l -0.8,-0.8 v -5 c 0,-0.1 0,-0.2 0,-0.3 0,-0.2 -0.1,-0.3 -0.1,-0.4 -0.1,-0.1 -0.1,-0.1 -0.2,-0.2 -0.1,-0.1 -0.1,-0.1 -0.2,-0.2 -0.2,-0.1 -0.4,-0.2 -0.5,-0.2 h -0.2 l -0.8,-0.8 h 0.5 0.3 0.2 c 0.3,0 0.5,0.1 0.6,0.1 0.1,0 0.1,0.1 0.2,0.1 0,0 0.1,0.1 0.1,0.1 v 0 c 0.1,0.1 0.3,0.3 0.4,0.6 V 9.4 L 154,8.7 V 7.9 7.6 c 0,0 0,-0.1 0,-0.2 0,-0.1 0,-0.2 -0.1,-0.3 l 0.5,0.4 0.1,0.4 v 0.2 l 0.1,0.1 0.1,0.2 v 0 h 0.8 z" id="path128"></path>			<path class="st0" d="m 160,9.3 v 2.5 l 0.1,-0.1 v 0 l 0.9,-0.8 c 0.1,-0.1 0.3,-0.2 0.4,-0.3 0.2,-0.1 0.3,-0.2 0.5,-0.3 l 0.9,-0.4 1.2,0.9 -0.4,0.8 c -0.1,0.2 -0.2,0.5 -0.3,0.8 -0.1,0.3 -0.1,0.5 -0.2,0.7 l -0.1,0.5 c 0,0.1 0,0.2 0,0.3 0,0.1 0,0.2 0,0.3 0,0 0,0.1 0,0.1 0,0 0,0.1 0,0.1 v 0.2 0.2 c 0,0.1 0,0.1 0,0.2 0,0.1 0,0.1 0,0.2 l 0.1,0.3 v 0 l 0.2,0.5 -0.6,-0.3 -0.2,-0.7 -0.1,-0.5 -0.1,-0.5 -0.1,-0.8 v -0.3 -0.3 -0.4 -0.3 l 0.1,-0.6 c -0.2,0.1 -0.3,0.2 -0.5,0.3 l -0.3,0.2 c -0.1,0.1 -0.2,0.1 -0.3,0.2 -0.2,0.1 -0.3,0.3 -0.4,0.4 -0.1,0.1 -0.2,0.3 -0.3,0.4 -0.1,0.2 -0.3,0.3 -0.4,0.5 -0.1,0.2 -0.2,0.4 -0.3,0.5 l -1,-1 v -1.3 l -0.1,-0.2 v 0 c -0.1,-0.2 -0.2,-0.3 -0.2,-0.3 -0.1,-0.1 -0.3,-0.2 -0.4,-0.3 -0.1,-0.1 -0.3,-0.1 -0.4,-0.1 0.1,0.1 0.1,0.3 0.1,0.4 0,0.1 -0.1,0.2 -0.1,0.3 -0.1,0.1 -0.1,0.2 -0.2,0.2 -0.1,0.1 -0.2,0.1 -0.3,0.2 -0.1,0 -0.2,0.1 -0.3,0.1 -0.2,0 -0.4,-0.1 -0.6,-0.2 l -0.2,-0.3 c 0,-0.1 -0.1,-0.1 -0.1,-0.2 0,-0.1 0,-0.1 0,-0.2 0,-0.2 0,-0.4 0.1,-0.5 0.1,-0.2 0.1,-0.3 0.3,-0.4 0.1,-0.1 0.2,-0.2 0.4,-0.3 0.2,-0.1 0.3,-0.1 0.5,-0.1 0.4,0 0.7,0.1 1,0.4 l 0.3,0.2 0.2,0.2 0.2,0.2 V 9.3 h -3.5 l -0.6,-0.8 h 9.4 l 0.8,0.8 z" id="path130"></path>			<path class="st0" d="m 169.6,9.3 v 0.3 c 0,0 0,0 0,0 0,0 0,0 0,0 0.2,0 0.5,0.1 0.7,0.2 0.3,0.1 0.5,0.3 0.7,0.5 0.3,0.3 0.6,0.6 0.7,0.9 0.2,0.4 0.3,0.7 0.3,1.2 0,0.2 0,0.4 -0.1,0.5 -0.1,0.2 -0.1,0.3 -0.2,0.4 -0.1,0.1 -0.2,0.2 -0.4,0.3 -0.1,0.1 -0.3,0.1 -0.4,0.1 -0.3,0 -0.5,-0.1 -0.8,-0.4 L 170,13 v -0.2 -0.2 c 0,-0.1 0,-0.1 0.1,-0.2 0,0 0.1,-0.1 0.1,-0.1 l 0.2,-0.2 0.4,-0.1 c 0.2,0 0.4,0.1 0.6,0.2 v 0 c 0,-0.1 0,-0.1 0,-0.2 0,-0.1 0,-0.1 0,-0.2 -0.1,-0.2 -0.2,-0.4 -0.4,-0.6 -0.1,-0.1 -0.2,-0.1 -0.2,-0.2 -0.1,-0.1 -0.2,-0.1 -0.3,-0.2 -0.1,-0.1 -0.2,-0.1 -0.4,-0.1 -0.1,0 -0.3,0 -0.4,0 h -0.1 V 16 L 169.2,15.6 169,15 c 0,-0.1 -0.1,-0.2 -0.2,-0.4 -0.1,-0.1 -0.2,-0.3 -0.4,-0.5 -0.3,-0.4 -0.6,-0.6 -0.8,-0.8 l -0.3,-0.2 v 0 c -0.1,0 -0.1,-0.1 -0.2,-0.1 -0.1,0 -0.1,-0.1 -0.2,-0.1 -0.1,-0.1 -0.4,-0.1 -0.8,-0.2 l -1,-1.2 c 0.2,-0.1 0.4,-0.3 0.6,-0.4 0.2,-0.2 0.4,-0.3 0.7,-0.5 0.2,-0.1 0.4,-0.3 0.6,-0.4 0.2,-0.1 0.4,-0.2 0.5,-0.3 0.2,-0.1 0.3,-0.1 0.5,-0.2 0.2,-0.1 0.4,-0.2 0.7,-0.2 V 9.3 h -3.9 L 164,8.4 h 8.2 l 0.8,0.8 h -3.4 z m -0.8,1.4 c -0.1,0 -0.3,0.1 -0.4,0.1 -0.1,0 -0.2,0.1 -0.3,0.2 l -0.7,0.4 c -0.1,0.1 -0.1,0.1 -0.2,0.2 -0.1,0 -0.1,0.1 -0.2,0.2 0,0 -0.1,0 -0.1,0.1 0,0.1 0,0 -0.1,0 0,0 0,0 -0.1,0 -0.1,0 0,0 -0.1,0.1 0.1,0 0.2,0.1 0.3,0.1 0.1,0 0.2,0.1 0.2,0.1 v 0 l 0.1,0.1 0.1,0.1 0.1,0.1 0.2,0.1 c 0.1,0.1 0.2,0.2 0.3,0.3 0.1,0.1 0.2,0.2 0.3,0.3 0.1,0.1 0.1,0.2 0.2,0.3 0.1,0.1 0.1,0.2 0.2,0.3 v -3.1 z" id="path132"></path>			<path class="st0" d="m 175.9,9.3 h -1.6 v 7 l -0.8,-0.8 v -5 c 0,-0.1 0,-0.2 0,-0.3 0,-0.2 -0.1,-0.3 -0.1,-0.4 -0.1,-0.1 -0.1,-0.1 -0.2,-0.2 -0.1,-0.1 -0.1,-0.1 -0.2,-0.2 -0.2,-0.1 -0.4,-0.2 -0.5,-0.2 h -0.2 l -0.8,-0.8 h 0.5 0.3 0.2 c 0.3,0 0.5,0.1 0.6,0.1 0.1,0 0.1,0.1 0.2,0.1 0,0 0.1,0.1 0.1,0.1 v 0 c 0.1,0.1 0.3,0.3 0.4,0.6 V 9.4 L 173.7,8.7 V 7.9 7.6 c 0,0 0,-0.1 0,-0.2 0,-0.1 0,-0.2 -0.1,-0.3 l 0.5,0.4 0.1,0.4 v 0.2 l 0.1,0.1 0.1,0.2 v 0 h 0.8 z" id="path134"></path>			<path class="st0" d="M 180.5,9.3 V 16 l -0.4,-0.4 -0.6,-1.1 c 0,-0.1 -0.1,-0.2 -0.2,-0.3 -0.1,-0.1 -0.2,-0.2 -0.3,-0.3 -0.1,-0.1 -0.2,-0.2 -0.3,-0.3 -0.1,-0.1 -0.2,-0.2 -0.3,-0.2 v 0 l -0.6,-0.3 v 0 c -0.2,-0.1 -0.3,-0.1 -0.5,-0.2 -0.2,0 -0.4,-0.1 -0.6,-0.1 l -0.9,-1.3 0.8,-0.6 0.4,-0.3 0.4,-0.2 1.1,-0.5 1.1,-0.4 V 9.3 h -4.4 l -0.8,-0.8 h 6.5 l 0.8,0.8 z m -2,5.7 c -0.1,0.3 -0.3,0.4 -0.6,0.4 -0.1,0 -0.2,0 -0.3,-0.1 -0.1,0 -0.2,-0.1 -0.3,-0.2 -0.1,-0.1 -0.1,-0.2 -0.2,-0.2 0,-0.1 -0.1,-0.2 -0.1,-0.3 0,-0.1 0,-0.1 0,-0.2 0,-0.1 0,-0.1 0.1,-0.2 0.1,-0.2 0.3,-0.3 0.6,-0.3 0.1,0 0.2,0 0.3,0.1 0.1,0 0.2,0.1 0.3,0.2 0.1,0.1 0.1,0.1 0.2,0.2 0,0.1 0.1,0.2 0.1,0.3 0,0.1 0,0.1 0,0.1 0,0 0,0.1 0,0.1 z m 0.9,-1.5 c 0.1,0.1 0.2,0.2 0.2,0.3 l 0.1,0.1 v -3.2 c -0.1,0 -0.1,0 -0.2,0.1 -0.1,0.1 -0.1,0 -0.2,0.1 v 0 L 179,11 c -0.1,0.1 -0.2,0.1 -0.4,0.2 -0.1,0.1 -0.2,0.1 -0.3,0.2 v 0 l -0.6,0.4 v 0 l -0.4,0.3 0.2,0.1 c 0.1,0 0.1,0.1 0.2,0.1 0,0 0.1,0 0.1,0.1 0,0 0.1,0 0.1,0.1 0,0 0.1,0.1 0.1,0.1 l 0.4,0.3 0.4,0.4 z" id="path136"></path>			<path class="st0" d="m 191.5,9.3 h -0.1 v 6.9 l -0.4,-0.5 -0.1,-0.2 -0.1,-0.2 -0.1,-0.4 c 0,0 0,-0.1 -0.1,-0.1 0,0 0,-0.1 -0.1,-0.1 l -0.4,-0.6 -0.3,-0.4 c 0,0 -0.1,-0.1 -0.1,-0.1 0,0 -0.1,-0.1 -0.1,-0.1 -0.1,0.1 -0.2,0.3 -0.3,0.4 -0.1,0.1 -0.2,0.2 -0.4,0.3 -0.1,0.1 -0.3,0.2 -0.5,0.2 -0.2,0.1 -0.3,0.1 -0.5,0.1 h -0.3 c -0.1,0 -0.2,0 -0.3,-0.1 v 0 c -0.4,-0.1 -0.7,-0.3 -0.9,-0.5 -0.1,-0.1 -0.2,-0.2 -0.4,-0.4 -0.2,-0.2 -0.4,-0.5 -0.6,-0.8 -0.1,-0.1 -0.2,-0.3 -0.3,-0.6 -0.1,-0.2 -0.2,-0.5 -0.4,-0.9 l -0.3,-0.9 c 0,-0.1 -0.1,-0.2 -0.1,-0.3 0,-0.1 -0.1,-0.2 -0.1,-0.3 l 0.6,0.2 0.5,1.3 c 0,0.1 0.1,0.2 0.1,0.3 0,0.1 0.1,0.2 0.2,0.3 v 0 l 0.3,0.4 c 0.2,0.2 0.4,0.4 0.6,0.5 0.2,0.1 0.3,0.2 0.5,0.3 v 0 c 0.1,0.1 0.3,0.1 0.5,0.1 0.2,0 0.3,0.1 0.5,0.1 0.2,0 0.3,0 0.5,-0.1 0.1,0 0.2,-0.1 0.3,-0.2 0.1,-0.1 0.1,-0.2 0.2,-0.3 0,-0.1 0.1,-0.3 0.1,-0.4 0,-0.2 0,-0.3 0,-0.4 0,-0.1 -0.1,-0.3 -0.1,-0.4 -0.1,-0.1 -0.1,-0.2 -0.2,-0.3 -0.1,-0.1 -0.1,-0.1 -0.2,-0.1 0,0 -0.1,0.1 -0.2,0.2 -0.1,0.2 -0.2,0.3 -0.3,0.4 -0.1,0.1 -0.2,0.1 -0.3,0.1 -0.3,0 -0.6,-0.1 -0.8,-0.2 -0.3,-0.2 -0.4,-0.4 -0.4,-0.7 0,-0.1 0,-0.2 0,-0.3 0,-0.1 0.1,-0.2 0.1,-0.3 0,-0.1 0.1,-0.1 0.1,-0.2 0.1,0 0.1,-0.1 0.2,-0.1 0.1,0 0.2,-0.1 0.3,-0.1 0.1,0 0.2,0 0.3,0 0.5,0 1,0.2 1.4,0.5 l 0.2,0.2 0.2,0.3 c 0.2,0.2 0.3,0.5 0.4,0.8 0.1,0.3 0.1,0.6 0.1,0.9 0.1,0.1 0.1,0.2 0.2,0.3 0,0.1 0.1,0.2 0.1,0.2 0,0.1 0.1,0.2 0.1,0.2 0,0.1 0.1,0.2 0.2,0.3 V 9.3 h -6.3 l -0.8,-0.8 h 7.5 0.4 0.5 c 0.2,0 0.4,0.1 0.6,0.3 0.2,0.2 0.3,0.4 0.4,0.6 V 9.5 L 192.7,8.8 192.6,8 V 7.6 c 0,-0.1 0,-0.1 0,-0.2 0,-0.1 0,-0.2 -0.1,-0.3 l 0.5,0.4 0.1,0.4 v 0.2 l 0.1,0.1 0.1,0.2 h 0.1 0.8 l 0.8,0.8 h -1.6 v 7 l -0.8,-0.8 v -5 c 0,-0.1 0,-0.1 0,-0.2 0,-0.1 0,-0.1 0,-0.1 0,-0.1 0,-0.2 -0.1,-0.2 0,-0.1 -0.1,-0.1 -0.1,-0.2 L 192.1,9.4 C 192,9.3 191.8,9.2 191.7,9.2 v 0 z" id="path138"></path>			<path class="st0" d="m 198.3,9.3 v 2.5 l 0.4,-0.4 c 0.1,-0.1 0.2,-0.2 0.3,-0.3 0.1,-0.1 0.2,-0.2 0.3,-0.2 l 0.7,-0.6 0.2,-0.2 0.3,-0.2 1.2,0.9 -0.4,0.5 c 0,0.1 -0.1,0.2 -0.2,0.2 -0.1,0.1 -0.1,0.2 -0.2,0.3 0,0.1 -0.1,0.2 -0.1,0.3 0,0.1 -0.1,0.2 -0.1,0.2 v 0 l -0.1,0.5 -0.1,0.7 c 0,0 0,0.1 0,0.1 0,0 0,0.1 0,0.1 l 0.1,0.9 c 0,0.3 0.1,0.7 0.3,1.2 l -0.6,-0.2 -0.2,-0.5 -0.2,-0.7 -0.1,-0.5 v -0.3 -0.7 c 0,-0.2 0,-0.5 0.1,-0.7 0,-0.2 0.1,-0.5 0.2,-0.8 -0.1,0 -0.1,0.1 -0.2,0.1 -0.1,0.1 -0.1,0.1 -0.2,0.2 l -0.2,0.2 -0.2,0.3 -0.1,0.1 c 0,0 -0.1,0.1 -0.1,0.1 0,0 0,0.1 -0.1,0.1 0,0 -0.1,0.1 -0.1,0.1 0,0 -0.1,0.1 -0.1,0.1 l -0.2,0.3 c -0.1,0.1 -0.1,0.2 -0.2,0.4 -0.1,0.2 -0.1,0.3 -0.2,0.5 l -0.9,-0.7 -0.1,-0.4 c 0,-0.1 0,-0.1 -0.1,-0.2 0,-0.1 -0.1,-0.1 -0.2,-0.2 -0.1,-0.1 -0.3,-0.3 -0.5,-0.4 -0.3,-0.1 -0.6,-0.2 -0.8,-0.2 h -0.2 l -0.7,-1.1 0.8,-0.5 0.7,-0.4 0.7,-0.3 0.6,-0.3 v 0.1 h -2.8 l -0.8,-0.8 h 7.8 l 0.9,0.8 z m -0.8,1.1 -0.3,0.1 -0.4,0.3 v 0 c -0.1,0 -0.2,0.1 -0.2,0.1 0,0 -0.1,0.1 -0.2,0.1 v 0 l -0.1,0.1 c 0.1,0 0.2,0.1 0.2,0.1 0.1,0 0.1,0.1 0.2,0.1 v 0 c 0.1,0 0.1,0.1 0.2,0.1 0.1,0 0.1,0.1 0.2,0.1 l 0.3,0.3 0.1,0.1 z" id="path140"></path>			<path class="st0" d="m 202.7,18.6 -0.2,0.1 -0.1,-0.1 -0.2,-0.2 -0.4,-0.4 v 0 l -0.1,-0.1 -0.1,-0.1 c -0.1,-0.1 -0.2,-0.1 -0.2,-0.2 l -0.2,-0.2 -0.3,-0.2 v 0 l -0.2,-0.1 c -0.1,0.1 -0.1,0.1 -0.2,0.2 -0.1,0.1 -0.1,0.1 -0.2,0.2 -0.1,0.1 -0.2,0.2 -0.4,0.2 -0.1,0.1 -0.3,0.1 -0.4,0.1 -0.2,0 -0.3,0 -0.4,-0.1 -0.1,0 -0.3,-0.1 -0.4,-0.2 -0.1,-0.1 -0.2,-0.1 -0.3,-0.2 -0.1,-0.1 -0.1,-0.2 -0.1,-0.2 v -0.4 c 0,-0.2 0.1,-0.5 0.3,-0.7 l 0.3,-0.2 c 0,0 0.1,0 0.1,-0.1 0.1,0 0.1,0 0.2,-0.1 h 0.3 c 0.2,0 0.4,0 0.6,0.1 l 0.4,0.2 c 0,0 0,0 0,-0.1 0,0 0,0 0,-0.1 v -0.5 -0.6 l 0.5,0.3 c 0.2,0.3 0.3,0.5 0.3,0.8 v 0.2 0.2 c 0,0.1 0,0.1 0,0.1 v 0 l 0.3,0.3 0.3,0.3 0.4,0.4 0.3,0.5 0.1,0.2 0.1,0.3 v 0.4 z m -2.8,-2.2 c -0.1,0 -0.2,0 -0.4,0 -0.2,0 -0.3,0 -0.4,0.1 v 0 c -0.1,0.1 -0.1,0.2 -0.1,0.3 v 0 c 0,0.1 0.1,0.1 0.1,0.1 0.1,0 0.2,0 0.3,0 0.1,0 0.2,0 0.3,-0.1 0.1,0 0.1,-0.1 0.2,-0.1 0.1,0 0.1,-0.1 0.1,-0.2 z" id="path142"></path>			<path class="st0" d="m 208.3,16.1 -0.4,-0.3 -0.2,-0.4 v 0 l -0.2,-0.3 -0.1,-0.2 c 0,0 -0.1,-0.1 -0.1,-0.1 0,0 -0.1,-0.1 -0.1,-0.1 -0.1,-0.1 -0.1,-0.2 -0.3,-0.2 l -0.1,-0.1 v 0 c -0.1,0 -0.1,-0.1 -0.2,-0.1 -0.1,0 -0.1,0 -0.1,0.1 v 0 c -0.1,0.1 -0.1,0.2 -0.1,0.3 v 0.4 l -0.3,0.3 -0.3,-0.4 c 0,-0.1 -0.1,-0.1 -0.1,-0.2 0,0 -0.1,-0.1 -0.1,-0.1 0,0 -0.1,-0.1 -0.1,-0.1 0,0 -0.1,-0.1 -0.1,-0.1 l -0.3,-0.2 c -0.1,0 -0.1,0 -0.2,0 -0.1,0 -0.1,0 -0.1,0 -0.3,0 -0.5,0 -0.6,0.1 -0.1,0.1 -0.2,0.2 -0.3,0.3 V 15 c 0,0.1 0,0.2 0.1,0.3 0,0.1 0.1,0.2 0.2,0.3 v -0.1 c 0,-0.2 0.1,-0.3 0.2,-0.5 0.1,-0.1 0.2,-0.1 0.2,-0.1 0.1,0 0.2,-0.1 0.2,-0.1 0.3,0 0.5,0.1 0.6,0.3 l 0.1,0.2 v 0 c 0,0 0,0.1 0.1,0.1 0,0 0,0.1 0,0.2 l -0.1,0.3 -0.1,0.1 -0.1,0.1 c -0.1,0.1 -0.2,0.2 -0.3,0.3 -0.2,0.1 -0.3,0.1 -0.5,0.1 h -0.1 c 0,0 -0.1,0 -0.2,0 -0.1,0 -0.2,0 -0.3,-0.1 v 0 c -0.2,0 -0.3,-0.1 -0.4,-0.2 l -0.2,-0.2 -0.2,-0.2 c -0.1,-0.2 -0.2,-0.4 -0.2,-0.6 v -0.4 c 0.1,-0.4 0.2,-0.7 0.4,-1 0.2,-0.2 0.6,-0.4 1,-0.4 0.2,0 0.5,0.1 0.7,0.2 l 0.2,0.1 c 0,0 0.1,0 0.1,0.1 0,0.1 0.1,0.1 0.1,0.1 l 0.2,0.2 0.2,-0.4 c 0.1,-0.1 0.2,-0.2 0.4,-0.2 h 0.3 l 0.3,0.1 0.1,0.1 0.2,0.2 0.1,0.2 v -2.4 l -0.1,-0.3 v 0 C 207,11.3 207,11.2 207,11.1 207,11 206.9,11 206.9,10.9 l -0.2,-0.2 c -0.1,-0.1 -0.1,-0.1 -0.2,-0.1 -0.1,0 -0.1,0 -0.2,0 v 0 c -0.1,0 -0.1,0.1 -0.2,0.2 0,0.1 0,0.1 0,0.2 0,0.1 0,0.1 0,0.1 v 0 c 0,0 0,0.1 0,0.1 0,0 0,0.1 0,0.2 v 0.3 l -0.4,0.2 -0.1,-0.3 v -0.1 0 l -0.4,-0.6 v 0 c -0.1,-0.1 -0.2,-0.2 -0.3,-0.2 -0.1,-0.1 -0.2,-0.1 -0.4,-0.1 0,0 -0.1,0 -0.1,0 0,0 -0.1,0 -0.1,0 0,0 -0.1,0 -0.1,0 -0.2,0 -0.5,0.1 -0.7,0.2 v 0 c -0.2,0.1 -0.3,0.3 -0.3,0.4 v 0.1 c 0,0.2 0.1,0.5 0.3,0.7 v 0 c 0.1,0.1 0.1,0.1 0.2,0.1 0.1,0 0.1,0.1 0.2,0.1 0,-0.1 -0.1,-0.1 -0.1,-0.2 0,-0.1 0,-0.1 0,-0.2 0,-0.2 0.1,-0.4 0.2,-0.5 0.1,-0.1 0.3,-0.2 0.6,-0.2 0.4,0 0.7,0.2 0.8,0.7 0,0.1 0,0.1 0,0.2 0,0.1 0,0.1 0,0.2 -0.1,0.1 -0.1,0.3 -0.2,0.4 -0.1,0.1 -0.2,0.2 -0.3,0.3 -0.1,0 -0.2,0.1 -0.3,0.1 -0.1,0 -0.2,0 -0.4,0 h -0.2 -0.2 l -0.3,-0.1 c -0.7,-0.4 -1,-1 -1,-1.7 v -0.1 c 0.1,-0.4 0.2,-0.8 0.5,-1.1 0.3,-0.3 0.7,-0.4 1.1,-0.4 0.3,0 0.6,0.1 0.9,0.3 l 0.3,0.3 0.1,0.2 c 0,-0.1 0.1,-0.1 0.1,-0.2 0.1,-0.1 0.1,-0.1 0.2,-0.2 0.1,-0.1 0.2,-0.1 0.2,-0.2 0.1,0 0.2,-0.1 0.2,-0.1 0.3,0 0.5,0.1 0.7,0.2 l 0.1,0.1 0.1,0.1 c 0,0 0,0 0.1,0.1 0,0 0.1,0 0.1,0.1 l 0.1,0.2 c 0,-0.2 0,-0.4 0,-0.6 0,-0.2 0,-0.4 0,-0.6 h -5.4 l -0.8,-0.8 h 7.6 l 0.8,0.8 h -1.4 v 6.8 z" id="path144"></path>			<path class="st0" d="m 212.4,9.3 h -1.6 v 7 L 210,15.5 v -5 c 0,-0.1 0,-0.2 0,-0.3 0,-0.2 -0.1,-0.3 -0.1,-0.4 -0.1,-0.1 -0.1,-0.1 -0.2,-0.2 -0.1,-0.1 -0.1,-0.1 -0.2,-0.2 -0.2,-0.1 -0.4,-0.2 -0.5,-0.2 h -0.2 L 208,8.4 h 0.5 0.3 0.2 c 0.3,0 0.5,0.1 0.6,0.1 0.1,0 0.1,0.1 0.2,0.1 0,0 0.1,0.1 0.1,0.1 v 0 c 0.1,0.1 0.3,0.3 0.4,0.6 V 9.4 L 210.2,8.7 V 7.9 7.6 c 0,0 0,-0.1 0,-0.2 0,-0.1 0,-0.2 -0.1,-0.3 l 0.5,0.4 0.1,0.4 v 0.2 l 0.1,0.1 0.1,0.2 v 0 h 0.8 z" id="path146"></path>			<path class="st0" d="m 217.8,16.7 -0.5,-0.5 v 0 l -0.6,-0.5 c -0.1,0 -0.1,-0.1 -0.2,-0.2 -0.1,-0.1 -0.2,-0.1 -0.3,-0.2 l -0.8,-0.5 c -0.1,-0.1 -0.2,-0.1 -0.3,-0.1 -0.1,0 -0.2,-0.1 -0.3,-0.1 l -0.6,-0.3 v 0 c -0.2,-0.1 -0.4,-0.1 -0.6,-0.2 -0.2,-0.1 -0.5,-0.1 -0.8,-0.2 l -0.8,-2 0.7,0.4 c 0.1,0 0.2,0.1 0.3,0.1 0.1,0 0.2,0.1 0.3,0.1 v 0 c 0.2,0 0.3,0.1 0.5,0.1 0.2,0 0.3,0 0.5,0 h 0.3 0.2 0.2 c 0.1,0 0.1,0 0.2,-0.1 0,0 0.1,0 0.1,-0.1 0.3,-0.1 0.4,-0.2 0.5,-0.3 l 0.3,-0.2 c 0.1,-0.1 0.1,-0.1 0.1,-0.2 0,-0.1 0.1,-0.2 0.1,-0.2 0,-0.1 0,-0.2 0,-0.2 0,-0.1 -0.1,-0.2 -0.2,-0.3 v 0 c 0,0 -0.1,-0.1 -0.2,-0.1 -0.1,0 -0.1,-0.1 -0.2,-0.1 -0.1,0 -0.2,-0.1 -0.3,-0.1 -0.1,0 -0.2,0 -0.3,0 -0.1,0 -0.2,0 -0.2,0 0,0.2 -0.1,0.5 -0.3,0.7 l -0.3,0.3 -0.1,0.1 c -0.1,0.1 -0.1,0.1 -0.2,0.1 -0.1,0 -0.2,0.1 -0.4,0.1 -0.2,0 -0.4,-0.1 -0.5,-0.2 -0.1,-0.1 -0.2,-0.3 -0.3,-0.5 v -0.2 -0.2 c 0,-0.1 0,-0.1 0.1,-0.2 0,-0.1 0.1,-0.2 0.2,-0.2 0.2,-0.2 0.4,-0.4 0.7,-0.5 l 0.5,-0.2 v 0 c -0.1,-0.1 -0.1,-0.2 -0.2,-0.2 -0.1,0 -0.2,-0.1 -0.2,-0.1 H 212 l -1,-1.1 h 6.2 l 0.8,0.8 h -3.2 l 0.1,0.2 v 0 c 0,0.1 0.1,0.1 0.1,0.1 h 0.1 c 0,0 0.1,0 0.1,0 0.1,0 0.2,0.1 0.3,0.1 h 0.2 c 0.3,0.1 0.6,0.4 0.9,0.8 0.1,0.2 0.2,0.4 0.3,0.5 0.1,0.2 0.1,0.4 0.1,0.5 0,0.2 0,0.2 0,0.3 -0.1,0.4 -0.3,0.7 -0.5,1 -0.1,0.1 -0.3,0.2 -0.5,0.4 -0.2,0.1 -0.5,0.2 -0.8,0.4 v 0 c 0.1,0.1 0.2,0.1 0.3,0.2 0.1,0.1 0.2,0.1 0.3,0.2 l 0.6,0.4 c 0.1,0.1 0.3,0.2 0.4,0.3 0.1,0.1 0.2,0.2 0.3,0.3 l 0.9,1.1 0.1,1 z" id="path148"></path>			<path class="st0" d="m 225.1,9.3 -0.4,0.2 c 0,0.2 0.1,0.4 0.3,0.5 l 0.4,0.1 c 0.1,0 0.2,0 0.2,0 0.1,0 0.2,0 0.2,0 0,0 0.1,0 0.1,0 0,0 0.1,0 0.1,0 h 0.3 c 0,0 0.1,0 0.3,-0.1 l 0.7,-0.2 0.6,0.7 v 0 l 0.4,0.4 c -0.1,0.1 -0.2,0.2 -0.3,0.4 -0.1,0.1 -0.2,0.3 -0.3,0.5 v 0 c -0.3,0.5 -0.4,0.9 -0.4,1.3 l -0.1,0.5 v 0.3 c 0,0.3 0,0.5 0.1,0.9 0.1,0.3 0.2,0.7 0.4,1.1 -0.1,0 -0.2,0 -0.3,0 -0.1,0 -0.1,0 -0.2,0 v 0 c -0.2,-0.1 -0.3,-0.1 -0.4,-0.2 l -0.4,-1.6 -0.1,-0.6 V 13 c 0,-0.3 0.1,-0.7 0.2,-1.1 v 0 c 0,-0.1 0.1,-0.3 0.1,-0.4 0,-0.1 0.1,-0.2 0.1,-0.3 0,0 0,0 0,0 0,0 0,0 0,0 -0.1,0 -0.1,0 -0.2,0 -0.1,0 -0.1,0 -0.2,0 -0.2,0 -0.4,0 -0.6,-0.1 -0.2,0 -0.4,-0.1 -0.6,-0.2 -0.2,-0.1 -0.4,-0.2 -0.5,-0.2 -0.2,-0.1 -0.3,-0.2 -0.4,-0.3 L 224,9.8 c 0,0 -0.2,0.1 -0.4,0.4 v 0 c -0.1,0.1 -0.2,0.3 -0.3,0.5 -0.1,0.2 -0.2,0.3 -0.2,0.5 0,0 0,0 0,0 0,0 0,0 0,0 v 0.1 c 0,0.1 0,0.2 0.1,0.3 0.1,0.1 0.2,0.1 0.3,0.1 h 0.2 c 0.1,0 0.2,0 0.3,-0.1 l 0.5,-0.3 0.2,-0.1 c 0.1,0 0.2,0 0.3,0 0,0 0.1,0 0.1,0 0,0 0.1,0.1 0.1,0.1 l 0.2,0.3 v 0 c 0.1,0.1 0.2,0.2 0.2,0.3 0.1,0.1 0.1,0.3 0.2,0.4 0.1,0.2 0.1,0.3 0.1,0.5 0,0.1 0,0.3 0,0.4 0,0.2 0,0.3 -0.1,0.3 0,0.2 -0.1,0.3 -0.2,0.5 -0.1,0.1 -0.1,0.3 -0.2,0.3 -0.1,0.1 -0.2,0.1 -0.3,0.2 -0.1,0.1 -0.2,0.1 -0.4,0.2 -0.1,0 -0.2,0.1 -0.4,0.1 -0.1,0 -0.3,0.1 -0.4,0.1 -0.4,0 -0.7,-0.1 -1.1,-0.3 -0.2,-0.1 -0.3,-0.2 -0.5,-0.3 -0.2,-0.1 -0.3,-0.3 -0.4,-0.5 -0.1,-0.1 -0.2,-0.2 -0.2,-0.4 -0.1,-0.1 -0.2,-0.3 -0.2,-0.4 l -0.2,-0.6 c -0.1,-0.2 -0.1,-0.3 -0.1,-0.5 0,-0.2 -0.1,-0.4 -0.1,-0.7 V 10.6 10.1 9.8 9.6 l 0.4,0.3 0.1,0.1 c 0.1,0.1 0.1,0.2 0.1,0.4 v 0.3 c 0,0.2 0,0.3 0,0.5 l 0.2,0.7 v 0 c 0,0.1 0.1,0.2 0.1,0.3 0,0.1 0.1,0.2 0.2,0.3 0.1,0.1 0.1,0.2 0.2,0.2 0.1,0.1 0.1,0.2 0.2,0.2 0.2,0.2 0.3,0.3 0.4,0.4 0.1,0.1 0.2,0.2 0.3,0.2 0.1,0 0.2,0.1 0.3,0.1 0.1,0 0.2,0 0.3,0 0,0 0,0 0,0 0,0 0,0 0,0 0.2,0 0.3,0 0.5,-0.1 0.2,0 0.3,-0.1 0.5,-0.2 0.3,-0.2 0.5,-0.3 0.5,-0.6 0,-0.1 0,-0.2 -0.1,-0.3 0,0 0,-0.1 -0.1,-0.1 0,0 -0.1,0 -0.1,-0.1 H 225 v 0 l -0.6,0.2 -0.3,0.1 h -0.2 c -0.1,0 -0.2,0 -0.3,0 -0.1,0 -0.2,-0.1 -0.4,-0.1 -0.1,-0.1 -0.2,-0.1 -0.3,-0.3 -0.1,-0.1 -0.2,-0.2 -0.3,-0.4 -0.2,-0.3 -0.3,-0.6 -0.3,-0.9 0,-0.2 0,-0.4 0.1,-0.6 v 0 c 0,-0.1 0.1,-0.2 0.2,-0.3 0.1,-0.1 0.2,-0.3 0.3,-0.4 l 0.3,-0.3 h -2.6 l -0.8,-0.8 h 9 l 0.8,0.8 h -4.5 z" id="path150"></path>			<path class="st0" d="m 232.3,9.3 h -1.6 v 7 l -0.8,-0.8 v -5 c 0,-0.1 0,-0.2 0,-0.3 0,-0.2 -0.1,-0.3 -0.1,-0.4 -0.1,-0.1 -0.1,-0.1 -0.2,-0.2 -0.1,-0.1 -0.1,-0.1 -0.2,-0.2 -0.2,-0.1 -0.4,-0.2 -0.5,-0.2 h -0.2 l -0.8,-0.8 h 0.5 0.3 0.2 c 0.3,0 0.5,0.1 0.6,0.1 0.1,0 0.1,0.1 0.2,0.1 0,0 0.1,0.1 0.1,0.1 v 0 c 0.1,0.1 0.3,0.3 0.4,0.6 V 9.4 L 230.1,8.7 V 7.9 7.6 c 0,0 0,-0.1 0,-0.2 0,-0.1 0,-0.2 -0.1,-0.3 l 0.5,0.4 0.1,0.4 v 0.2 l 0.1,0.1 0.1,0.2 v 0 h 0.8 z" id="path152"></path>			<path class="st0" d="m 237.6,16.7 -0.5,-0.5 v 0 l -0.6,-0.5 c -0.1,0 -0.1,-0.1 -0.2,-0.2 -0.1,-0.1 -0.2,-0.1 -0.3,-0.2 l -0.8,-0.5 c -0.1,-0.1 -0.2,-0.1 -0.3,-0.1 -0.1,0 -0.2,-0.1 -0.3,-0.1 L 234,14.3 v 0 c -0.2,-0.1 -0.4,-0.1 -0.6,-0.2 -0.2,-0.1 -0.5,-0.1 -0.8,-0.2 l -0.8,-2 0.7,0.4 c 0.1,0 0.2,0.1 0.3,0.1 0.1,0 0.2,0.1 0.3,0.1 v 0 c 0.2,0 0.3,0.1 0.5,0.1 0.2,0 0.3,0 0.5,0 h 0.3 0.2 0.2 c 0.1,0 0.1,0 0.2,-0.1 0,0 0.1,0 0.1,-0.1 0.3,-0.1 0.4,-0.2 0.5,-0.3 l 0.3,-0.2 c 0.1,-0.1 0.1,-0.1 0.1,-0.2 0,-0.1 0.1,-0.2 0.1,-0.2 0,-0.1 0,-0.2 0,-0.2 0,-0.1 -0.1,-0.2 -0.2,-0.3 v 0 c 0,0 -0.1,-0.1 -0.2,-0.1 -0.1,0 -0.1,-0.1 -0.2,-0.1 -0.1,0 -0.2,-0.1 -0.3,-0.1 -0.1,0 -0.2,0 -0.3,0 -0.1,0 -0.2,0 -0.2,0 0,0.2 -0.1,0.5 -0.3,0.7 l -0.3,0.3 -0.1,0.1 c -0.1,0.1 -0.1,0.1 -0.2,0.1 -0.1,0 -0.2,0.1 -0.4,0.1 -0.2,0 -0.4,-0.1 -0.5,-0.2 -0.1,-0.1 -0.2,-0.3 -0.3,-0.5 v -0.2 -0.2 c 0,-0.1 0,-0.1 0.1,-0.2 0,-0.1 0.1,-0.2 0.2,-0.2 0.2,-0.2 0.4,-0.4 0.7,-0.5 l 0.5,-0.2 v 0 C 234,9.7 234,9.6 233.9,9.6 233.8,9.5 233.7,9.5 233.7,9.5 h -1.9 L 231,8.7 h 6.2 l 0.8,0.8 h -3.2 l 0.1,0.2 v 0 c 0,0.1 0.1,0.1 0.1,0.1 h 0.1 c 0,0 0.1,0 0.1,0 0.1,0 0.2,0.1 0.3,0.1 h 0.2 c 0.3,0.1 0.6,0.4 0.9,0.8 0.1,0.2 0.2,0.4 0.3,0.5 0.1,0.2 0.1,0.4 0.1,0.5 0,0.2 0,0.2 0,0.3 -0.1,0.4 -0.3,0.7 -0.5,1 -0.1,0.1 -0.3,0.2 -0.5,0.4 -0.2,0.1 -0.5,0.2 -0.8,0.4 v 0 c 0.1,0.1 0.2,0.1 0.3,0.2 0.1,0.1 0.2,0.1 0.3,0.2 l 0.6,0.4 c 0.1,0.1 0.3,0.2 0.4,0.3 0.1,0.1 0.2,0.2 0.3,0.3 l 0.9,0.9 0.1,1 z" id="path154"></path>			<path class="st0" d="m 240.7,9.3 h -1.6 v 7 l -0.8,-0.8 v -5 c 0,-0.1 0,-0.2 0,-0.3 0,-0.2 -0.1,-0.3 -0.1,-0.4 -0.1,-0.1 -0.1,-0.1 -0.2,-0.2 -0.1,-0.1 -0.1,-0.1 -0.2,-0.2 -0.2,-0.1 -0.4,-0.2 -0.5,-0.2 h -0.2 l -0.8,-0.8 h 0.5 0.3 0.2 c 0.3,0 0.5,0.1 0.6,0.1 0.1,0 0.1,0.1 0.2,0.1 0,0 0.1,0.1 0.1,0.1 v 0 c 0.1,0.1 0.3,0.3 0.4,0.6 V 9.4 L 238.5,8.7 V 7.9 7.6 c 0,0 0,-0.1 0,-0.2 0,-0.1 0,-0.2 -0.1,-0.3 l 0.5,0.4 0.1,0.4 v 0.2 l 0.1,0.1 0.1,0.2 v 0 h 0.8 z" id="path156"></path>			<path class="st0" d="m 245.2,9.3 c 0,0 0,0 0,0 0,0.1 0,0.1 0,0.1 0,0.1 0,0.3 0,0.4 0,0.1 -0.1,0.2 -0.1,0.3 0.1,-0.1 0.3,-0.2 0.5,-0.2 l 1.2,0.8 -0.7,0.7 v 0 c 0,0 -0.1,0.1 -0.1,0.2 -0.1,0.1 -0.1,0.2 -0.2,0.3 v 0 l -0.4,0.8 v 0 l -0.2,0.5 c 0,0.1 0,0.2 0,0.2 0,0.1 0,0.2 0,0.2 0,0.1 0,0.1 0,0.2 0,0.1 0,0.1 0,0.2 0,0.1 0,0.3 0,0.4 0,0.1 0,0.2 0,0.3 0,0.1 0,0.2 0.1,0.3 0,0.1 0.1,0.2 0.1,0.3 l 0.1,0.3 v 0 l 0.3,0.6 -0.8,-0.4 -0.3,-1 -0.2,-0.7 -0.1,-0.8 c 0,-0.3 0,-0.5 0.1,-0.8 0.1,-0.3 0.1,-0.5 0.2,-0.8 l -0.7,0.8 v 0 c -0.3,0.4 -0.5,0.7 -0.7,0.9 -0.3,0.3 -0.7,0.5 -1.1,0.7 -0.4,0 -0.8,-0.2 -1.1,-0.6 0,0 0,-0.1 -0.1,-0.2 0,-0.1 -0.1,-0.2 -0.1,-0.3 0,0 0,-0.1 0,-0.1 0,-0.1 0,-0.1 0,-0.2 v -0.1 l 0.4,-0.3 c 0.1,0.5 0.3,0.8 0.5,0.8 L 242,13 c 0.1,0 0.2,-0.1 0.3,-0.2 l 0.6,-0.6 v 0 l 0.2,-0.3 0.1,-0.4 c 0,-0.2 0,-0.4 -0.1,-0.5 -0.1,-0.1 -0.1,-0.2 -0.3,-0.2 h -0.2 c 0,0 -0.1,0 -0.2,0.1 v 0.1 0.1 c 0,0 0,0.1 0,0.1 0,0.1 -0.1,0.1 -0.1,0.2 -0.2,0.2 -0.4,0.3 -0.6,0.3 -0.3,0 -0.5,-0.1 -0.7,-0.2 -0.2,-0.2 -0.2,-0.4 -0.2,-0.7 l 0.1,-0.4 c 0,-0.1 0.1,-0.1 0.1,-0.2 0,0 0,-0.1 0.1,-0.1 l 0.4,-0.3 0.2,-0.1 h 0.2 c 0,-0.1 -0.1,-0.1 -0.1,-0.2 0,-0.1 -0.1,-0.1 -0.1,-0.2 h -1.3 l -0.8,-0.8 h 7.6 l 0.8,0.8 z m -0.8,1.2 0.4,-0.3 v 0 l -0.4,0.1 c 0,0 0,0 -0.1,0 h -0.1 c -0.1,0 -0.2,0 -0.3,-0.1 v 0 c -0.1,0 -0.2,-0.1 -0.2,-0.1 -0.1,0 -0.2,-0.1 -0.2,-0.2 l -0.4,-0.4 -0.3,-0.3 c 0,0 -0.1,0 -0.1,0 0,0 -0.1,0 -0.1,0 h -0.4 v 0.1 c 0,0.1 0,0.2 0,0.2 0,0 0,0 0,0 0,0 0,0 0,0 v 0 h 0.1 l 0.5,0.2 v 0 c 0.1,0 0.1,0 0.2,0.1 0.1,0 0.1,0.1 0.2,0.2 l 0.1,0.1 c 0,0.1 0.1,0.1 0.1,0.2 0.1,0.1 0.1,0.1 0.1,0.2 0.1,0.2 0.1,0.3 0.1,0.5 l 0.2,-0.3 0.1,-0.1 z m -1,-1.2 0.1,0.1 v 0 l 0.2,0.2 v 0 c 0.1,0.1 0.3,0.2 0.3,0.2 0.1,0 0.1,0 0.2,-0.1 v 0 c 0.1,-0.1 0.2,-0.2 0.2,-0.4 0,0 0,-0.1 0,-0.1 h -1 z" id="path158"></path>			<path class="st0" d="m 250.4,9.3 h -1.8 v 6.8 l -0.8,-0.8 v -6 h -1 l -0.5,-0.7 v 0.1 h -1 l 0.4,-0.3 v 0 c 0,0 0,-0.1 0,-0.1 0,0 0,-0.1 0,-0.1 0,-0.1 -0.1,-0.3 -0.4,-0.3 l -0.7,-0.1 h -0.4 c -0.2,0 -0.4,0 -0.5,0 -0.1,0 -0.3,0 -0.4,-0.1 v 0 c -0.1,0 -0.3,-0.1 -0.4,-0.1 -0.1,-0.1 -0.3,-0.2 -0.4,-0.3 v 0 C 242.3,7.2 242.2,7.1 242.1,7 242,6.9 242,6.7 242,6.5 242,6.2 242.1,6 242.2,5.9 v 0 l 0.4,-0.4 c 0.1,-0.1 0.3,-0.1 0.6,-0.2 0.2,-0.1 0.5,-0.1 0.9,-0.2 h 0.2 0.2 0.2 c 0,0 0.1,0 0.1,0 0,0 0.1,0 0.1,0 0,0 0.1,0 0.1,0 0.1,0 0.1,0 0.2,0.1 v 0 c 0.1,0 0.3,0.1 0.5,0.1 0.2,0 0.3,0.1 0.5,0.1 0.1,0 0.2,0.1 0.3,0.1 v 0 l 0.3,0.1 0.5,0.4 c 0.1,0.1 0.3,0.2 0.4,0.4 0.1,0.2 0.3,0.3 0.4,0.6 0,0.1 0.1,0.1 0.1,0.2 0,0.1 0.1,0.1 0.1,0.2 l 0.2,0.5 0.1,0.5 h 1 z m -4.1,-0.9 h 1.6 c 0,-0.1 0,-0.1 -0.1,-0.2 0,-0.1 0,-0.1 -0.1,-0.2 0,-0.1 0,-0.1 -0.1,-0.2 0,-0.1 -0.1,-0.2 -0.1,-0.2 l -0.1,-0.3 c 0,-0.1 -0.1,-0.2 -0.1,-0.2 -0.2,-0.3 -0.5,-0.5 -0.7,-0.7 v 0 C 246.5,6.3 246.3,6.3 246.2,6.2 246,6.1 245.9,6.1 245.7,6 V 6 H 245 v 0 h -0.7 -0.3 -0.3 c -0.1,0 -0.1,0 -0.2,0 -0.1,0 -0.1,0 -0.1,0 0,0 -0.1,0 -0.1,0 0,0 -0.1,0 -0.1,0.1 0,0 -0.1,0 -0.1,0 0,0 -0.1,0 -0.1,0.1 v 0 l -0.3,0.2 v 0 0.1 c 0,0 0.1,0.1 0.1,0.1 v 0 l 0.4,0.1 c 0.1,0 0.3,0 0.4,0 0.1,0 0.3,0 0.4,0 0.5,0 0.8,0 1.1,0.1 v 0 c 0.1,0 0.2,0 0.3,0.1 0.1,0 0.2,0 0.3,0.1 0.2,0.1 0.4,0.2 0.5,0.3 l 0.3,0.4 V 8 8.3 Z" id="path160"></path>			<path class="st0" d="M 255,9.3 V 16 l -0.4,-0.4 -0.6,-1.1 c 0,-0.1 -0.1,-0.2 -0.2,-0.3 -0.1,-0.1 -0.2,-0.2 -0.3,-0.3 -0.1,-0.1 -0.2,-0.2 -0.3,-0.3 -0.1,-0.1 -0.2,-0.2 -0.3,-0.2 v 0 l -0.6,-0.3 v 0 C 252.1,13 252,13 251.8,12.9 c -0.2,0 -0.4,-0.1 -0.6,-0.1 l -0.9,-1.3 0.8,-0.6 0.4,-0.3 0.4,-0.2 1.1,-0.5 1.1,-0.4 V 9.3 h -4.4 L 249,8.4 h 6.5 l 0.8,0.8 H 255 Z m -2,5.7 c -0.1,0.3 -0.3,0.4 -0.6,0.4 -0.1,0 -0.2,0 -0.3,-0.1 -0.1,0 -0.2,-0.1 -0.3,-0.2 -0.1,-0.1 -0.1,-0.2 -0.2,-0.2 0,-0.1 -0.1,-0.2 -0.1,-0.3 0,-0.1 0,-0.1 0,-0.2 0,-0.1 0,-0.1 0.1,-0.2 0.1,-0.2 0.3,-0.3 0.6,-0.3 0.1,0 0.2,0 0.3,0.1 0.1,0 0.2,0.1 0.3,0.2 0.1,0.1 0.1,0.1 0.2,0.2 0,0.1 0.1,0.2 0.1,0.3 0,0.1 0,0.1 0,0.1 0,0 0,0.1 0,0.1 z m 0.9,-1.5 c 0.1,0.1 0.2,0.2 0.2,0.3 l 0.1,0.1 v -3.2 c -0.1,0 -0.1,0 -0.2,0.1 -0.1,0.1 -0.1,0 -0.2,0.1 v 0 l -0.3,0.1 c -0.1,0.1 -0.2,0.1 -0.4,0.2 -0.1,0.1 -0.2,0.1 -0.3,0.2 v 0 l -0.6,0.4 v 0 l -0.4,0.3 0.2,0.1 c 0.1,0 0.1,0.1 0.2,0.1 0.1,0 0.1,0 0.1,0.1 0,0 0.1,0 0.1,0.1 0,0 0.1,0.1 0.1,0.1 l 0.4,0.3 0.4,0.4 z" id="path162"></path>			<path class="st0" d="M 264.1,9.3 V 16 l -0.4,-0.4 -0.6,-1.1 c 0,-0.1 -0.1,-0.2 -0.2,-0.3 -0.1,-0.1 -0.2,-0.2 -0.3,-0.3 -0.1,-0.1 -0.2,-0.2 -0.3,-0.3 -0.1,-0.1 -0.2,-0.2 -0.3,-0.2 v 0 l -0.6,-0.3 v 0 c -0.2,-0.1 -0.3,-0.1 -0.5,-0.2 -0.2,0 -0.4,-0.1 -0.6,-0.1 l -0.9,-1.3 0.8,-0.6 0.4,-0.3 0.4,-0.2 1.1,-0.5 1.1,-0.4 V 9.3 h -4.4 L 258,8.5 h 6.5 l 0.8,0.8 z m -2,5.7 c -0.1,0.3 -0.3,0.4 -0.6,0.4 -0.1,0 -0.2,0 -0.3,-0.1 -0.1,0 -0.2,-0.1 -0.3,-0.2 -0.1,-0.1 -0.1,-0.2 -0.2,-0.2 0,-0.1 -0.1,-0.2 -0.1,-0.3 0,-0.1 0,-0.1 0,-0.2 0,-0.1 0,-0.1 0.1,-0.2 0.1,-0.2 0.3,-0.3 0.6,-0.3 0.1,0 0.2,0 0.3,0.1 0.1,0.1 0.2,0.1 0.3,0.2 0.1,0.1 0.1,0.1 0.2,0.2 0,0.1 0.1,0.2 0.1,0.3 0,0.1 0,0.1 0,0.1 0,0 0,0.1 0,0.1 z m 0.9,-1.5 c 0.1,0.1 0.2,0.2 0.2,0.3 l 0.1,0.1 v -3.2 c -0.1,0 -0.1,0 -0.2,0.1 -0.1,0.1 -0.1,0 -0.2,0.1 v 0 l -0.3,0.1 c -0.1,0.1 -0.2,0.1 -0.4,0.2 -0.1,0.1 -0.2,0.1 -0.3,0.2 v 0 l -0.6,0.4 v 0 l -0.4,0.3 0.2,0.1 c 0.1,0 0.1,0.1 0.2,0.1 0.1,0 0.1,0 0.1,0.1 0,0 0.1,0 0.1,0.1 0,0 0.1,0.1 0.1,0.1 l 0.4,0.3 0.4,0.4 z" id="path164"></path>			<path class="st0" d="m 268.2,9.3 h -1.6 v 7 l -0.8,-0.8 v -5 c 0,-0.1 0,-0.2 0,-0.3 0,-0.2 -0.1,-0.3 -0.1,-0.4 -0.1,-0.1 -0.1,-0.1 -0.2,-0.2 -0.1,-0.1 -0.1,-0.1 -0.2,-0.2 -0.2,-0.1 -0.4,-0.2 -0.5,-0.2 h -0.2 l -0.8,-0.8 h 0.5 0.3 0.2 c 0.3,0 0.5,0.1 0.6,0.1 0.1,0 0.1,0.1 0.2,0.1 0,0 0.1,0.1 0.1,0.1 v 0 c 0.1,0.1 0.3,0.3 0.4,0.6 V 9.4 L 266,8.7 V 7.9 7.6 c 0,0 0,-0.1 0,-0.2 0,-0.1 0,-0.2 -0.1,-0.3 l 0.5,0.4 0.1,0.4 v 0.2 l 0.1,0.1 0.1,0.2 v 0 h 0.8 z" id="path166"></path>			<path class="st0" d="M 273.5,16.7 273,16.2 v 0 l -0.6,-0.5 c -0.1,0 -0.1,-0.1 -0.2,-0.2 -0.1,-0.1 -0.2,-0.1 -0.3,-0.2 l -0.8,-0.5 c -0.1,-0.1 -0.2,-0.1 -0.3,-0.1 -0.1,0 -0.2,-0.1 -0.3,-0.1 l -0.6,-0.3 v 0 c -0.2,-0.1 -0.4,-0.1 -0.6,-0.2 -0.2,-0.1 -0.5,-0.1 -0.8,-0.2 l -0.8,-2 0.7,0.4 c 0.1,0 0.2,0.1 0.3,0.1 0.1,0 0.2,0.1 0.3,0.1 v 0 c 0.2,0 0.3,0.1 0.5,0.1 0.2,0 0.3,0 0.5,0 h 0.3 0.2 0.2 c 0.1,0 0.1,0 0.2,-0.1 0,0 0.1,0 0.1,-0.1 0.3,-0.1 0.4,-0.2 0.5,-0.3 l 0.3,-0.2 c 0.1,-0.1 0.1,-0.1 0.1,-0.2 0,-0.1 0.1,-0.2 0.1,-0.2 0,-0.1 0,-0.2 0,-0.2 0,-0.1 -0.1,-0.2 -0.2,-0.3 v 0 c 0,0 -0.1,-0.1 -0.2,-0.1 -0.1,0 -0.1,-0.1 -0.2,-0.1 -0.1,0 -0.2,-0.1 -0.3,-0.1 -0.1,0 -0.2,0 -0.3,0 -0.1,0 -0.2,0 -0.2,0 0,0.2 -0.1,0.5 -0.3,0.7 l -0.3,0.3 -0.1,0.1 c -0.1,0.1 -0.1,0.1 -0.2,0.1 -0.1,0 -0.2,0.1 -0.4,0.1 -0.2,0 -0.4,-0.1 -0.5,-0.2 -0.1,-0.1 -0.2,-0.3 -0.3,-0.5 v -0.2 -0.2 c 0,-0.1 0,-0.1 0.1,-0.2 0,-0.1 0.1,-0.2 0.2,-0.2 0.2,-0.2 0.4,-0.4 0.7,-0.5 L 270,9.8 v 0 c -0.1,-0.1 -0.1,-0.2 -0.2,-0.2 -0.1,-0.1 -0.2,-0.1 -0.2,-0.1 h -1.9 l -0.8,-0.8 h 6.2 l 0.8,0.8 h -3.2 l 0.1,0.2 v 0 c 0,0.1 0.1,0.1 0.1,0.1 h 0.1 c 0,0 0.1,0 0.1,0 0.1,0 0.2,0.1 0.3,0.1 h 0.2 c 0.3,0.1 0.6,0.4 0.9,0.8 0.1,0.2 0.2,0.4 0.3,0.5 0.1,0.2 0.1,0.4 0.1,0.5 0,0.2 0,0.2 0,0.3 -0.1,0.4 -0.3,0.7 -0.5,1 -0.1,0.1 -0.3,0.2 -0.5,0.4 -0.2,0.1 -0.5,0.2 -0.8,0.4 v 0 c 0.1,0.1 0.2,0.1 0.3,0.2 0.1,0.1 0.2,0.1 0.3,0.2 l 0.6,0.4 c 0.1,0.1 0.3,0.2 0.4,0.3 0.1,0.1 0.2,0.2 0.3,0.3 l 0.9,0.9 0.1,1 z" id="path168"></path>			<path class="st0" d="m 275.4,14.1 v 1.3 h -1.3 v -1.3 z" id="path170"></path>		</g>	</g></g></svg>